<?xml version="1.0" encoding="UTF-8"?>
<svg id="uuid-ef179638-36f4-4d8f-bc83-79c5e09990bb" data-name="Layer 2" xmlns="http://www.w3.org/2000/svg" viewBox="0 0 260.15 128.11">
  <defs>
    <style>
      .uuid-9a3fd187-42fe-4d14-9e19-359a77ec6e08 {
        fill: #99850e;
      }

      .uuid-9a3fd187-42fe-4d14-9e19-359a77ec6e08, .uuid-6e48fd0e-6aed-4c1f-a771-384c84a52e1c, .uuid-e625bab8-2801-489c-bd98-eb8efd50c27c, .uuid-e268711d-73f2-4d2b-9bc0-f22127f68e27, .uuid-fe365611-8921-4401-b5ee-ad27c30af21c, .uuid-1f1476ba-87f3-4f0c-830c-82e96fc683d2, .uuid-996c8026-aed8-4bd9-b640-32de287f9b1a, .uuid-73e5892f-23e9-4274-bcb7-0b4be2d0ddba, .uuid-b0754df1-7cc4-4c7a-a3ba-ba256c1526b5, .uuid-a6c14147-9a5d-4d12-81a2-3b18b6609117, .uuid-5a2c845b-6037-4289-a017-98d8fe4b0407, .uuid-f4226ae4-6881-4e78-aac8-b9b1faa2f020, .uuid-a0927a49-858a-466c-a167-3b0fd1c1dbe3, .uuid-311ead87-dc2a-4d3d-b56f-6981edf2cf42, .uuid-8eb3c030-c1ff-41c2-ae94-c7d3f48b1b2f, .uuid-9b8e8165-c761-4b25-84f5-10127037aa93, .uuid-cdd4144e-5110-4e06-9131-bf8c9886a6f1, .uuid-72050df0-4c99-4253-bc30-9649ee9b800c, .uuid-656765b1-33e6-4136-8167-ef497aaa368f, .uuid-7a261679-17b7-48e7-a389-15ca5e4ee87b, .uuid-bb7fa20a-fdda-44f4-9c9a-f88f220a58e2, .uuid-3661a085-fc2d-4338-88ff-06001c037fd3, .uuid-d95f6817-6e40-4ee4-b7ca-fd6a4f69797e, .uuid-ffed33b3-1ab9-4396-b79f-b575e7c72d4b, .uuid-6e8c8b8b-5adb-4791-a83d-c5105cba3a6f, .uuid-fd8c06ce-030d-4858-a10e-a08ea07cfa6a, .uuid-e3ef4570-e2df-4309-961e-92cc26813773, .uuid-e58d2f66-7006-409f-9917-1d12e0118315, .uuid-266b40b6-0ee0-466e-9402-4ca65d33c0f2, .uuid-a61686d8-b791-4eb5-9502-bd75bf911158, .uuid-379a5154-a723-4fdb-abbf-b03579da1720, .uuid-c9e07e1a-6cde-400e-b5c2-19145e92b76a, .uuid-e6afcc77-eedf-4c82-a407-cfa80558b1f9, .uuid-d28fee54-a81b-4e03-8d03-188923883bdd, .uuid-c9d15f78-99f0-4cd4-99f8-0806a2e687b1, .uuid-60b11f7e-7b16-4486-a35f-ab392c7ba767, .uuid-98ed5bce-ff34-489c-bdd7-379461ede831, .uuid-7beb1457-7b17-420a-85ee-6eaa3642469f, .uuid-8ffcb7e4-35f3-4a1f-a377-8725f101616c, .uuid-44dddf33-e2cc-4382-9044-e38bbb82e593, .uuid-c066f684-54f4-48e8-b45f-2717e0b2c7c6, .uuid-2698d63a-3b4c-4f13-b4d8-c032156f460b, .uuid-6a1067f5-d8f4-42ed-be64-74c6f48edc6a, .uuid-41974c03-b729-48eb-ac64-ccd03312c1c4, .uuid-204c4c0e-3541-4809-bf87-45d033cb55cc, .uuid-a8d75711-91d4-40cd-b6a1-1a713b314183, .uuid-96bdf403-7def-4e85-b535-0dfcd0c3336d, .uuid-1944d0ce-40d8-4a94-ba5a-ef018abce0a5, .uuid-19e1cadc-e777-4e56-bf62-8ebcd4a7e9f9, .uuid-1f99dfb7-4cda-4b38-8d3f-68602b5932a7, .uuid-46e32848-5552-400c-b5ec-26b2d7f346c7, .uuid-95925088-e217-4532-9132-47a61f0ecde5, .uuid-f00f65f5-226c-403f-a78a-575cc7c798e7, .uuid-15a13c93-c4e4-4523-8d21-4bd9c52c14a9, .uuid-de6368e9-5018-430c-9e4f-0ff61b64d8e3, .uuid-81da6bb9-4cca-4cbb-9f88-cb28506067af, .uuid-28f52d05-3632-4ca9-ab67-119f1f898d33, .uuid-d6247cdc-07ed-46c9-8d00-6c91f9a86b16, .uuid-8c556432-ce10-49ab-9000-dc88dad0c7f4, .uuid-c781f86c-987f-4b01-825b-6b71119a409d, .uuid-453a46ba-0bb3-4be2-be1f-2b47cd735e9e, .uuid-2ba9eca1-a5e8-44e4-924e-04fbb38f1d95, .uuid-3fcf4af5-2584-4147-b28f-89a1dc9090a7, .uuid-01be4fad-8ad3-4ead-ba8e-32f8e052b36f, .uuid-f2f0da61-af32-4823-a59e-17faeeda4f2b, .uuid-cc4e41e4-205e-493d-87d8-dd12304e3a20, .uuid-5f62481f-8db7-4813-bf9f-93c3ced75dc3, .uuid-15f3bc21-7803-48a3-8010-b4c4d5790887, .uuid-778c3028-b89e-4a94-b60a-d475620b6113, .uuid-c074fd89-7173-4153-8974-2989cca6696e, .uuid-853b02c3-f9ca-46af-8a14-1518ec4c36f0, .uuid-5b883c09-e772-4b9a-ae62-3efa8926fe26, .uuid-248872f2-b902-4386-a97f-57f85bd2856f, .uuid-73f424c1-f194-41ef-b618-407122ff42c9, .uuid-d5ac6ce0-3ab8-47ac-877d-400042575290, .uuid-11082be0-8435-4515-abf9-72db94a80adf, .uuid-d36c2d91-0164-4776-aab7-6681f92ce074, .uuid-09a9e5e6-544f-4102-ad83-4f649c22d40a, .uuid-9d560164-7b7a-46d4-ad28-c33f233298cd, .uuid-f4696dd8-2880-4474-8c77-7d1a03fdbeb5, .uuid-d8267a52-7150-4abd-98a0-bd07846aa296, .uuid-b3fa8058-f015-420b-be79-fa8200a28af4, .uuid-0ea1420a-7ccf-4505-824e-b5f539552d7e, .uuid-1ad7779b-3d13-48a4-8c53-11c655ac0c70, .uuid-d812fe15-fb0d-4a25-9aab-2252880908f2, .uuid-dfc7ab85-cf5e-4746-a1fe-dc8eb44016d0, .uuid-74e07233-1b77-4464-ad8b-787ccb3da35d, .uuid-f91cbacd-17aa-4073-a568-0298ba8bdf9f, .uuid-cd0468c7-310e-4e69-92d7-7ef002121756, .uuid-c8bfd8b1-e434-4ac7-84db-972fc193977f, .uuid-bcb879ac-0dec-4ef7-9b49-85ecb39e40ec, .uuid-ea58764e-181a-4f33-9b6f-acc4c31ccd0a, .uuid-79aac1a2-46ab-447d-9bab-890da0d34026, .uuid-6c45c3c3-4e37-40b7-acf9-4504caf5329c, .uuid-33da8c06-c9f4-410c-9c83-19353a203a44, .uuid-273f27b3-021c-422f-8244-11231534257e, .uuid-1eb52903-75e1-48a6-bc51-e5845bf9acac, .uuid-866c3fd1-e5e7-4c68-b751-eee50b9a04ec, .uuid-7286fcef-c1b7-4101-801c-f7bda1c4510f, .uuid-145c5e24-41c9-423e-a1dc-ce70dc0ef1bd, .uuid-99886799-e44c-4578-a545-f0a6d2c73ce4, .uuid-93b51d54-120d-4c50-93e1-ac4fd9b3c328, .uuid-f7406ec2-ba5a-44eb-911e-df4b6bc4de0c, .uuid-5d2da63e-5626-47c0-95a3-05b461acb845, .uuid-341f9ee2-5d09-436b-80dc-d7e70435f238, .uuid-e5ce012b-8290-4309-a0a3-a56ad1b94e1f, .uuid-7a1322af-2be5-48fe-ac4c-a606ea1ea79e, .uuid-5520005d-845d-4959-80a3-6d70ab65809d, .uuid-b329cddc-a839-43e6-9798-b1393ae50656, .uuid-6de49f05-3e08-4974-85c2-e8e826a70f57, .uuid-392f2b92-4525-4863-8dcb-a901071b7d48, .uuid-f167df47-00f1-4865-8c3c-61e42dc200c8, .uuid-bd263874-317c-43c0-8728-79c8257e836c, .uuid-ec63ff23-fa91-4ee5-84c0-cc4b73c5b7bf, .uuid-27a2bedc-68e0-46b1-b2fd-85b2a3155ced, .uuid-96a56df9-ef71-4b91-8219-4384be3032f7, .uuid-20bd7ae7-4706-49f7-b194-52368b01b704, .uuid-d664a7f4-b132-412c-a002-6dc326d3872d, .uuid-36b32d7c-be87-4480-ad9c-5a2a70abce10, .uuid-221cfbd6-3745-4e2c-92e8-5330ea2b679e, .uuid-7f161588-75bd-4c2a-8dd3-d44318e09be6, .uuid-011a1e2a-7b85-4696-8890-bdafb12f52ac, .uuid-4e71b6f0-6e7f-402a-8366-c644f5d3a35c, .uuid-3ad3a9f2-acc6-4349-807a-7ab285c5923e, .uuid-d8c2d105-ad0e-4b8f-9a94-935fad479fdc, .uuid-ac1d382c-bfc5-4ced-b05e-21114ad42e4b, .uuid-e0b887d9-de7b-489e-80b6-1f3d66038bb2, .uuid-7a48d6ae-a4ab-47b0-843f-dc0c5e6440f3, .uuid-8b6b9caa-1712-4296-9894-874f4c18d62e, .uuid-9ff32bd5-7a9f-48fb-899b-c29503fca9eb, .uuid-f38622fb-6298-4eb2-9c5a-bc5c34882ad6, .uuid-5565be2c-5c97-4da4-870f-76fbac5263b0, .uuid-bd0cccfc-596c-4c2b-b904-403dede7d564, .uuid-47a6e222-93ba-4a97-a559-ed06e8951e7e, .uuid-e4c1f9bf-e028-4d47-a020-3fed7637cbd5, .uuid-aa005534-d230-4705-bd04-74f4f196b2f0, .uuid-ba34cc69-3a39-4f00-b7ad-653534c32eb6 {
        stroke-width: 0px;
      }

      .uuid-6e48fd0e-6aed-4c1f-a771-384c84a52e1c {
        fill: #dcbf58;
      }

      .uuid-e625bab8-2801-489c-bd98-eb8efd50c27c {
        fill: #ddc44e;
      }

      .uuid-e268711d-73f2-4d2b-9bc0-f22127f68e27 {
        fill: #dcc05b;
      }

      .uuid-fe365611-8921-4401-b5ee-ad27c30af21c {
        fill: #dcc34c;
      }

      .uuid-1f1476ba-87f3-4f0c-830c-82e96fc683d2 {
        fill: #8e7a02;
      }

      .uuid-996c8026-aed8-4bd9-b640-32de287f9b1a {
        fill: #bea50b;
      }

      .uuid-73e5892f-23e9-4274-bcb7-0b4be2d0ddba {
        fill: #8a7d3d;
      }

      .uuid-b0754df1-7cc4-4c7a-a3ba-ba256c1526b5 {
        fill: #8f7c19;
      }

      .uuid-a6c14147-9a5d-4d12-81a2-3b18b6609117 {
        fill: #c4b779;
      }

      .uuid-5a2c845b-6037-4289-a017-98d8fe4b0407 {
        fill: #d6bb44;
      }

      .uuid-f4226ae4-6881-4e78-aac8-b9b1faa2f020 {
        fill: #bba314;
      }

      .uuid-a0927a49-858a-466c-a167-3b0fd1c1dbe3 {
        fill: #dec34e;
      }

      .uuid-311ead87-dc2a-4d3d-b56f-6981edf2cf42 {
        fill: #dcc66c;
      }

      .uuid-8eb3c030-c1ff-41c2-ae94-c7d3f48b1b2f {
        fill: #dcc351;
      }

      .uuid-9b8e8165-c761-4b25-84f5-10127037aa93 {
        fill: #75610d;
      }

      .uuid-cdd4144e-5110-4e06-9131-bf8c9886a6f1 {
        fill: #dcc459;
      }

      .uuid-72050df0-4c99-4253-bc30-9649ee9b800c {
        fill: #d6bc48;
      }

      .uuid-656765b1-33e6-4136-8167-ef497aaa368f {
        fill: #9a870d;
      }

      .uuid-7a261679-17b7-48e7-a389-15ca5e4ee87b {
        fill: #9e9534;
      }

      .uuid-bb7fa20a-fdda-44f4-9c9a-f88f220a58e2 {
        fill: #d0b53a;
      }

      .uuid-3661a085-fc2d-4338-88ff-06001c037fd3 {
        fill: #dfc64d;
      }

      .uuid-d95f6817-6e40-4ee4-b7ca-fd6a4f69797e {
        fill: #c9b12d;
      }

      .uuid-ffed33b3-1ab9-4396-b79f-b575e7c72d4b {
        fill: #dbc247;
      }

      .uuid-6e8c8b8b-5adb-4791-a83d-c5105cba3a6f {
        fill: #debf5c;
      }

      .uuid-fd8c06ce-030d-4858-a10e-a08ea07cfa6a {
        fill: #745f01;
      }

      .uuid-e3ef4570-e2df-4309-961e-92cc26813773 {
        fill: #766303;
      }

      .uuid-e58d2f66-7006-409f-9917-1d12e0118315 {
        fill: #d9c568;
      }

      .uuid-266b40b6-0ee0-466e-9402-4ca65d33c0f2 {
        fill: #8f8040;
      }

      .uuid-a61686d8-b791-4eb5-9502-bd75bf911158 {
        fill: #cab028;
      }

      .uuid-379a5154-a723-4fdb-abbf-b03579da1720 {
        fill: #e4c962;
      }

      .uuid-c9e07e1a-6cde-400e-b5c2-19145e92b76a {
        fill: #d9bc56;
      }

      .uuid-e6afcc77-eedf-4c82-a407-cfa80558b1f9 {
        fill: #947f1c;
      }

      .uuid-d28fee54-a81b-4e03-8d03-188923883bdd {
        fill: #e0c652;
      }

      .uuid-c9d15f78-99f0-4cd4-99f8-0806a2e687b1 {
        fill: #b59c0d;
      }

      .uuid-60b11f7e-7b16-4486-a35f-ab392c7ba767 {
        fill: #e5cc65;
      }

      .uuid-98ed5bce-ff34-489c-bdd7-379461ede831 {
        fill: #e2c951;
      }

      .uuid-7beb1457-7b17-420a-85ee-6eaa3642469f {
        fill: #d8bc55;
      }

      .uuid-8ffcb7e4-35f3-4a1f-a377-8725f101616c {
        fill: #735e00;
      }

      .uuid-44dddf33-e2cc-4382-9044-e38bbb82e593 {
        fill: #b69f25;
      }

      .uuid-c066f684-54f4-48e8-b45f-2717e0b2c7c6 {
        fill: #6d5f00;
      }

      .uuid-2698d63a-3b4c-4f13-b4d8-c032156f460b {
        fill: #695d33;
      }

      .uuid-6a1067f5-d8f4-42ed-be64-74c6f48edc6a {
        fill: #958221;
      }

      .uuid-41974c03-b729-48eb-ac64-ccd03312c1c4 {
        fill: #e2c75a;
      }

      .uuid-204c4c0e-3541-4809-bf87-45d033cb55cc {
        fill: #766205;
      }

      .uuid-a8d75711-91d4-40cd-b6a1-1a713b314183 {
        fill: #dabe58;
      }

      .uuid-96bdf403-7def-4e85-b535-0dfcd0c3336d {
        fill: #e4cb63;
      }

      .uuid-1944d0ce-40d8-4a94-ba5a-ef018abce0a5 {
        fill: #c9b13a;
      }

      .uuid-19e1cadc-e777-4e56-bf62-8ebcd4a7e9f9 {
        fill: #856f01;
      }

      .uuid-1f99dfb7-4cda-4b38-8d3f-68602b5932a7 {
        fill: #dcc76e;
      }

      .uuid-46e32848-5552-400c-b5ec-26b2d7f346c7 {
        fill: #8b7d30;
      }

      .uuid-95925088-e217-4532-9132-47a61f0ecde5 {
        fill: #ae9d2b;
      }

      .uuid-f00f65f5-226c-403f-a78a-575cc7c798e7 {
        fill: #d8c062;
      }

      .uuid-15a13c93-c4e4-4523-8d21-4bd9c52c14a9 {
        fill: #e6cc67;
      }

      .uuid-de6368e9-5018-430c-9e4f-0ff61b64d8e3 {
        fill: #cab02b;
      }

      .uuid-81da6bb9-4cca-4cbb-9f88-cb28506067af {
        fill: #b49d0b;
      }

      .uuid-28f52d05-3632-4ca9-ab67-119f1f898d33 {
        fill: #97850f;
      }

      .uuid-d6247cdc-07ed-46c9-8d00-6c91f9a86b16 {
        fill: #b9a31b;
      }

      .uuid-8c556432-ce10-49ab-9000-dc88dad0c7f4 {
        fill: #e9ca68;
      }

      .uuid-c781f86c-987f-4b01-825b-6b71119a409d {
        fill: #efe3b5;
      }

      .uuid-453a46ba-0bb3-4be2-be1f-2b47cd735e9e {
        fill: #cab02f;
      }

      .uuid-2ba9eca1-a5e8-44e4-924e-04fbb38f1d95 {
        fill: #dac35e;
      }

      .uuid-3fcf4af5-2584-4147-b28f-89a1dc9090a7 {
        fill: #cab132;
      }

      .uuid-01be4fad-8ad3-4ead-ba8e-32f8e052b36f {
        fill: #857207;
      }

      .uuid-f2f0da61-af32-4823-a59e-17faeeda4f2b {
        fill: #7a6706;
      }

      .uuid-cc4e41e4-205e-493d-87d8-dd12304e3a20 {
        fill: #75650a;
      }

      .uuid-5f62481f-8db7-4813-bf9f-93c3ced75dc3 {
        fill: #ddc059;
      }

      .uuid-15f3bc21-7803-48a3-8010-b4c4d5790887 {
        fill: #dfbf64;
      }

      .uuid-778c3028-b89e-4a94-b60a-d475620b6113 {
        fill: #d5bf4b;
      }

      .uuid-c074fd89-7173-4153-8974-2989cca6696e {
        fill: #dcbf54;
      }

      .uuid-853b02c3-f9ca-46af-8a14-1518ec4c36f0 {
        fill: #8a7505;
      }

      .uuid-5b883c09-e772-4b9a-ae62-3efa8926fe26 {
        fill: #7a6802;
      }

      .uuid-248872f2-b902-4386-a97f-57f85bd2856f {
        fill: #7f7229;
      }

      .uuid-73f424c1-f194-41ef-b618-407122ff42c9 {
        fill: #c8b516;
      }

      .uuid-d5ac6ce0-3ab8-47ac-877d-400042575290 {
        fill: #d9bf55;
      }

      .uuid-11082be0-8435-4515-abf9-72db94a80adf {
        fill: #ddc678;
      }

      .uuid-d36c2d91-0164-4776-aab7-6681f92ce074 {
        fill: #d9bf47;
      }

      .uuid-09a9e5e6-544f-4102-ad83-4f649c22d40a {
        fill: #f0eee0;
      }

      .uuid-9d560164-7b7a-46d4-ad28-c33f233298cd {
        fill: #897516;
      }

      .uuid-f4696dd8-2880-4474-8c77-7d1a03fdbeb5 {
        fill: #e2c766;
      }

      .uuid-d8267a52-7150-4abd-98a0-bd07846aa296 {
        fill: #bca314;
      }

      .uuid-b3fa8058-f015-420b-be79-fa8200a28af4 {
        fill: #bca41a;
      }

      .uuid-0ea1420a-7ccf-4505-824e-b5f539552d7e {
        fill: #bea526;
      }

      .uuid-1ad7779b-3d13-48a4-8c53-11c655ac0c70 {
        fill: #b5a64b;
      }

      .uuid-d812fe15-fb0d-4a25-9aab-2252880908f2 {
        fill: #9c8b2a;
      }

      .uuid-dfc7ab85-cf5e-4746-a1fe-dc8eb44016d0 {
        fill: #c9b028;
      }

      .uuid-74e07233-1b77-4464-ad8b-787ccb3da35d {
        fill: #dbc355;
      }

      .uuid-f91cbacd-17aa-4073-a568-0298ba8bdf9f {
        fill: #816f06;
      }

      .uuid-cd0468c7-310e-4e69-92d7-7ef002121756 {
        fill: #cbb235;
      }

      .uuid-c8bfd8b1-e434-4ac7-84db-972fc193977f {
        fill: #8f7a03;
      }

      .uuid-bcb879ac-0dec-4ef7-9b49-85ecb39e40ec {
        fill: #dfc653;
      }

      .uuid-ea58764e-181a-4f33-9b6f-acc4c31ccd0a {
        fill: #dbc361;
      }

      .uuid-79aac1a2-46ab-447d-9bab-890da0d34026 {
        fill: #87730c;
      }

      .uuid-6c45c3c3-4e37-40b7-acf9-4504caf5329c {
        fill: #ddc54c;
      }

      .uuid-33da8c06-c9f4-410c-9c83-19353a203a44 {
        fill: #726000;
      }

      .uuid-273f27b3-021c-422f-8244-11231534257e {
        fill: #d6bc46;
      }

      .uuid-1eb52903-75e1-48a6-bc51-e5845bf9acac {
        fill: #806c00;
      }

      .uuid-866c3fd1-e5e7-4c68-b751-eee50b9a04ec {
        fill: #847624;
      }

      .uuid-7286fcef-c1b7-4101-801c-f7bda1c4510f {
        fill: #e2c659;
      }

      .uuid-145c5e24-41c9-423e-a1dc-ce70dc0ef1bd {
        fill: #675d24;
      }

      .uuid-99886799-e44c-4578-a545-f0a6d2c73ce4 {
        fill: #978519;
      }

      .uuid-93b51d54-120d-4c50-93e1-ac4fd9b3c328 {
        fill: #bcac48;
      }

      .uuid-f7406ec2-ba5a-44eb-911e-df4b6bc4de0c {
        fill: #988713;
      }

      .uuid-5d2da63e-5626-47c0-95a3-05b461acb845 {
        fill: #bda419;
      }

      .uuid-341f9ee2-5d09-436b-80dc-d7e70435f238 {
        fill: #ddc349;
      }

      .uuid-e5ce012b-8290-4309-a0a3-a56ad1b94e1f {
        fill: #9a8924;
      }

      .uuid-7a1322af-2be5-48fe-ac4c-a606ea1ea79e {
        fill: #7b6703;
      }

      .uuid-5520005d-845d-4959-80a3-6d70ab65809d {
        fill: #b8a52d;
      }

      .uuid-b329cddc-a839-43e6-9798-b1393ae50656 {
        fill: #e6cc5d;
      }

      .uuid-6de49f05-3e08-4974-85c2-e8e826a70f57 {
        fill: #c3af40;
      }

      .uuid-392f2b92-4525-4863-8dcb-a901071b7d48 {
        fill: #8f7a02;
      }

      .uuid-f167df47-00f1-4865-8c3c-61e42dc200c8 {
        fill: #dbc879;
      }

      .uuid-bd263874-317c-43c0-8728-79c8257e836c {
        fill: #dfc658;
      }

      .uuid-ec63ff23-fa91-4ee5-84c0-cc4b73c5b7bf {
        fill: #958317;
      }

      .uuid-27a2bedc-68e0-46b1-b2fd-85b2a3155ced {
        fill: #867004;
      }

      .uuid-96a56df9-ef71-4b91-8219-4384be3032f7 {
        fill: #85710a;
      }

      .uuid-20bd7ae7-4706-49f7-b194-52368b01b704 {
        fill: #beac47;
      }

      .uuid-d664a7f4-b132-412c-a002-6dc326d3872d {
        fill: #927c02;
      }

      .uuid-36b32d7c-be87-4480-ad9c-5a2a70abce10 {
        fill: #978312;
      }

      .uuid-221cfbd6-3745-4e2c-92e8-5330ea2b679e {
        fill: #726100;
      }

      .uuid-7f161588-75bd-4c2a-8dd3-d44318e09be6 {
        fill: #887713;
      }

      .uuid-011a1e2a-7b85-4696-8890-bdafb12f52ac {
        fill: #e4c857;
      }

      .uuid-4e71b6f0-6e7f-402a-8366-c644f5d3a35c {
        fill: #bca41c;
      }

      .uuid-3ad3a9f2-acc6-4349-807a-7ab285c5923e {
        fill: #c9b129;
      }

      .uuid-d8c2d105-ad0e-4b8f-9a94-935fad479fdc {
        fill: #b19d0e;
      }

      .uuid-ac1d382c-bfc5-4ced-b05e-21114ad42e4b {
        fill: #bdaa2c;
      }

      .uuid-e0b887d9-de7b-489e-80b6-1f3d66038bb2 {
        fill: #bca527;
      }

      .uuid-7a48d6ae-a4ab-47b0-843f-dc0c5e6440f3 {
        fill: #998610;
      }

      .uuid-8b6b9caa-1712-4296-9894-874f4c18d62e {
        fill: #917c02;
      }

      .uuid-9ff32bd5-7a9f-48fb-899b-c29503fca9eb {
        fill: #d8bf4a;
      }

      .uuid-f38622fb-6298-4eb2-9c5a-bc5c34882ad6 {
        fill: #93821f;
      }

      .uuid-5565be2c-5c97-4da4-870f-76fbac5263b0 {
        fill: #a59840;
      }

      .uuid-bd0cccfc-596c-4c2b-b904-403dede7d564 {
        fill: #e0c757;
      }

      .uuid-47a6e222-93ba-4a97-a559-ed06e8951e7e {
        fill: #ddc24f;
      }

      .uuid-e4c1f9bf-e028-4d47-a020-3fed7637cbd5 {
        fill: #bbaa45;
      }

      .uuid-aa005534-d230-4705-bd04-74f4f196b2f0 {
        fill: #d6c059;
      }

      .uuid-ba34cc69-3a39-4f00-b7ad-653534c32eb6 {
        fill: #96830b;
      }
    </style>
  </defs>
  <g id="uuid-cd71611f-969f-485e-87a1-92367dc9499d" data-name="Layer 2">
    <g id="uuid-24623b6e-c95b-4419-91ec-8277cb4150ea" data-name="Pickles">
      <path class="uuid-f4226ae4-6881-4e78-aac8-b9b1faa2f020" d="M232.54,65.69c6.34.48,11.83,3.03,16.73,6.97,1.11,1.42,1.9,2.96,1.8,4.82.36,4.74-2.7,9.75,1.17,14.21.6.6,1.03,1.29,1.32,2.07.07.84-.06,1.64-.41,2.41-2.48,3.84-6.09,6.45-9.75,9.02-.62.49-1.28.93-1.95,1.36-.66.43-1.37.77-2.1,1.06-2.2.74-4.42,1.38-6.77,1.41-2.51-.46-4.43.96-6.45,2.08-4.23,1.68-8.92.95-13.16,2.61-9,1.74-17.7-.79-26.51-1.75-2.34-.43-4.54-1.42-6.92-1.7-.91-.16-1.79-.41-2.67-.71-11.22-4.19-23.49-6.39-31.68-16.43-2.15-2.26-4.02-4.71-5.08-7.69-.49-1.24-.88-2.51-1.13-3.83-.2-1.34-.11-2.67.28-3.97,1.06-1.74,1.42-4.02,3.67-4.9,3.23.81,3.1,4.17,4.77,6.13,1.17,1.45,2.35,2.84,4.95,2.73,2.83-4.05,2.69-10.06,7.36-13.18,1.46-1.38,2.32-3.22,3.59-4.74.65-.49,1.39-.74,2.21-.74,2.73.83,4.93,2.37,6.32,4.93.13.78-.05,1.49-.48,2.15-.68.88-1.44,1.7-2.13,2.58-.21.31-.44.6-.64.9-.4.63-.83,1.24-1.26,1.84-1.31,2.97-1.3,5.87.4,8.69,15.86,13.09,33.72,14.88,52.86,9.55,2.28-.68,4.58-1.32,6.39-3.01,1.41-1.2,2.62-2.57,3.48-4.21.77-1.58,1.28-3.21.99-5.01-.25-.68-.53-1.33-.91-1.95-.25-.3-.46-.6-.71-.89-2.09-3.06-7.07-3.21-7.69-7.7.41-2.37,2.11-3.52,4.14-4.36,1.94-.57,4.14.81,5.95-.79Z"/>
      <path class="uuid-d8267a52-7150-4abd-98a0-bd07846aa296" d="M170.43,13.12c2.61,3.47,7.36,5.46,7.43,10.7.49.7.68,1.47.5,2.31-.7,1.92-.4,4.22-2.13,5.76-.83.35-1.58.21-2.22-.42-.81-.94-1.51-1.96-1.81-3.19-.28-1.11-.44-2.25-.67-3.33-1.04-1.99-1.66-.92-1.76.41-.15,2.03-1.63,4.77,2.15,5.27.41.05.79.13,1.2.2.75.43,1.35.99,1.82,1.72.24.89.24,1.76.04,2.65-5.88,10.55-16.57,13.45-26.87,17.01-17.93,4.03-35.68,2.76-53.33-1.7-7.55-2.72-15.44-4.66-22.16-9.38-2.2-1.56-4.47-3.03-6.55-4.76-5.37-4.9-9.11-10.67-9.48-18.18.24-.84.39-1.7.45-2.57-.02-.91.32-1.67.96-2.31l.13-.13c2.12-.95,4.19-4.63,6.42-.13.11.74.09,1.48-.01,2.21-.12,1-.3,2.02-.15,3.04.23.59.47,1.18.77,1.74.39.5.76,1.01,1.15,1.5.65.68,1.3,1.34,2.04,1.92.86.48,1.76.65,2.73.45,3.2-2.42,2.69-6.25,3.66-9.51.26-.85.65-1.63,1.13-2.38,1.81-2.14,3.78-3.96,6.92-3.34,1.87.87,2.43,2.49,2.55,4.38-.3,3.33-1.35,6.61-.8,10.02.46,3.3,3.22,4.46,5.59,5.99,16.86,8.16,34.35,9.59,52.4,5.02,2.59-1.15,5.59-1.64,7.08-4.52,2.97-4.32.18-9.08,1.02-13.57,1.78-4.09,4.08-7.49,9.33-6.86,1.54.2,3.07.4,4.61.6,2.17.76,3.99,2.12,5.87,3.4Z"/>
      <path class="uuid-d8267a52-7150-4abd-98a0-bd07846aa296" d="M106.18,68.11c4.04-.47,7.35,1.05,10.25,3.73.93,1,1.26,2.18,1.13,3.52-.8,5.34-2.18,10.79,3.06,14.89.67,1.23.77,2.51.43,3.85-1.78,3.81-5.02,6.33-7.95,9.15-4.61,3.37-9.84,5.62-14.86,8.29-16.32,6.01-33.16,6.73-50.25,5.09-3.52-1.24-7.5-1.15-10.63-3.56-.58-.7-.4-1.48-.18-2.26-10.18-1.48-18.42-7.31-27.12-12.14-1.64-1.09-2.26-2.7-2.35-4.58.19-2.43,1.11-4.27,3.78-4.7,4.09.37,7.52,4.63,12.11,2.06,2.77.05,3.62-4.13,6.84-3.14,1.57.77,2.75,2,3.91,3.25,11.16,7.25,23.64,8.06,36.39,7.47,4.76.41,9.26-.99,13.8-2.07.75-.29,1.53-.52,2.3-.73,2.19-.59,4.42-1.09,6.39-2.3.55-.45,1.09-.91,1.59-1.42.63-.93,1.08-1.94,1.42-3.01,1.08-3.6,1.81-7.14-.76-10.44-3.44-3.73-9.33-2.7-12.7-6.54-1.69-3.93.7-5.36,3.86-6.3.74-.39,1.43-.85,2.05-1.41.63,0,1.25.02,1.88.03,4.05.52,6.98,6.09,11.91,2.64,1.29-.12,2.47.33,3.69.62Z"/>
      <path class="uuid-27a2bedc-68e0-46b1-b2fd-85b2a3155ced" d="M93.1,48.07c18.88,3.46,37.81,5.5,56.92,1.8,3.26-.83,3.92,1.7,4.92,3.8.28,1.43.11,2.79-.73,4.01-1.14.86-2.44,1.08-3.83.87-3.29-1-6.45-3.27-10.22-1.09,0,3.05,6.39,1.57,4.33,6.01-1.28.44-2.59.36-3.91.36-3.56.35-7.21-.77-10.68.72-13.1.74-26.11.54-38.73-3.73-1.75-3.76,1.02-7.73-.57-11.51.41-1.26.99-2.19,2.5-1.24Z"/>
      <path class="uuid-19e1cadc-e777-4e56-bf62-8ebcd4a7e9f9" d="M177.31,107.93c.6,0,1.19.04,1.78.12,1.55,1.68,4.06.2,5.66,1.71,9.74.62,19.49,1.25,29.23,1.87,2.08-1.12,4.09-1.42,5.95.43.67,1.88-1.11,3.34-.91,5.14-.02,2.18,3.2,2.88,2.46,5.39-13.97,3.35-27.94,1.23-41.91-.05-1.49-.84-3.35-.48-4.79-1.49-1.59-2.17-1.57-4.6-1.15-7.08.25-1.08.7-2.1,1.06-3.14-.06-.72,0-1.43.13-2.14.61-.95,1.27-1.75,2.47-.75Z"/>
      <path class="uuid-4e71b6f0-6e7f-402a-8366-c644f5d3a35c" d="M83.76,13.09c-.08-1.64-.52-3.07-2.18-3.8-1.57-.62-2.44-1.8-2.77-3.43-.1-1.2.16-2.29,1.07-3.14,23.08-3.81,46.03-4.27,68.66,2.86-1.27,3.1-3.92,4.81-6.55,6.54-1.76.96-3.59,1.72-5.61,1.86-.79-.03-1.56-.22-2.3-.51-2.36-1.36-4.95-2.02-7.62-2.46-1.58-.28-3.16-.23-4.76-.09-.86.08-1.71.06-2.57,0-8.39-.98-16.77-1.57-25.14.05-3.49.32-6.4,3.49-10.23,2.12Z"/>
      <path class="uuid-5d2da63e-5626-47c0-95a3-05b461acb845" d="M88.7,66.49c-1.31,2.38-5.82,1.54-5.53,5.52-3.71,3.64-8.47,2.78-12.87,2.68-8.51-.19-16.91.41-25.21,2.16-7.42.93-11.53,6.22-15.43,11.78-.94,1.44-1.87,2.88-2.88,4.42-.82-.24-1.67-.48-2.53-.73-3.91-4.51-2.05-9.3-.73-14.04.1-.98-.01-1.93-.61-2.79-.45-.49-.83-1.02-1.16-1.58-.21-.71,0-1.24.64-1.61.5-.28,1.03-.39,1.6-.33,3.04-1.23,6.61-1,9.28-3.29,8.03-1.44,15.75-4.76,24.15-3.84,10.34,2.25,20.96-.86,31.28,1.65Z"/>
      <path class="uuid-27a2bedc-68e0-46b1-b2fd-85b2a3155ced" d="M46.39,114.36c18.04.77,35.97.38,53.33-5.48,1.3-.92,2.32-.12,3.36.55,1.92,1.72,3.69,3.52,3.18,6.44-.56,1.6-1.59,2.89-2.73,4.11l-.69.46-.83-.02c-2.24.71-3.21-1.1-4.58-2.23-2.7-2.24-5.26-2.9-7.03,1.04,1.25,1.42,4.35,1.19,3.74,4.2-1.05.14-2.09.29-3.14.43-14.43,2.71-28.97,1.7-43.49,1.22-3.43-1.69-3.75-4.91-4.02-8.16.3-1.59.62-3.17,2.88-2.57Z"/>
      <path class="uuid-79aac1a2-46ab-447d-9bab-890da0d34026" d="M9.34,94.17c.7,1.2,1.39,2.41,2.09,3.61.87.71,2.05,1.04,2.67,2.07.37.66.64,1.36.85,2.08.46,2.2,1.33,4.14,3.44,5.29.32.22.62.46.94.68.32.24.61.49.93.73,3.51,4.26,9.59,6.63,9.79,13.31-1.66,1.68-4.04.18-5.82,1.33-6.78-.24-11.46-6.67-18.64-5.82-1.27-8.18-8.91-14.84-3.94-23.73,1.22.1-.17,1.12.71.26.65-.63.07-1.21-.36-1.72-.18-3.14,1.2-5.54,3.51-7.51,7.17.75,1.07,6.89,3.82,9.43Z"/>
      <path class="uuid-b3fa8058-f015-420b-be79-fa8200a28af4" d="M171.7,69.21c-1.84-1.83-3.68-3.67-5.53-5.5,1.75-2.64,6.59-.33,7.36-4.59,14.81.07,29.65-.86,44.26,2.45,3.86,1.09,8.14.84,11.44,3.68-.25,1.2-1.45,1.43-2.18,2.13-1.24,1.25-2.48,2.5-3.73,3.74-1.86,1.78-3.75,1.52-5.64.08-2.57-4.14-5.42-.16-8.15-.24-11.68-1.19-23.37-1.13-35.08-.68-1.04-.03-1.96-.39-2.75-1.07Z"/>
      <path class="uuid-01be4fad-8ad3-4ead-ba8e-32f8e052b36f" d="M57.9,16.78c1.13,7.14,4.51,13.16,9.3,18.45,1.86,7.32,8.89,11.04,12.09,17.44.03.43.04.87.07,1.3-.17.88-.61,1.6-1.3,2.17-1.3.34-2.57.35-3.75-.42-.55-.21-1.1-.42-1.65-.62-.46-.45-.82-.97-1.09-1.55-.8-.75-1.65-.77-2.53-.16-2.42-1.28-4.84-2.57-7.26-3.85-1.16-1.19-2.4-2.29-3.71-3.3l-.03-.03c-1.02-1.35-2.17-2.57-3.43-3.7-.82-1.64-1.64-3.28-2.46-4.92-.29-.79-.63-1.56-1.03-2.3l-.28-1.9c.53-.59,1.2-.93,1.97-1.06,3.8-1.39,3.1-3.27.54-5.32-.75-.28-1.29-.78-1.66-1.47-.16-1.16-.2-2.29.67-3.23.38-.65.75-1.3,1.13-1.94.63-.41,2.06-.4.92-1.75.41-.73.83-1.47,1.24-2.2.42-.22.84-.45,1.26-.67.33.34.67.68,1,1.02Z"/>
      <path class="uuid-96a56df9-ef71-4b91-8219-4384be3032f7" d="M140.56,78.34c-.04,1.23-.08,2.47-.12,3.7.51.65,1.02,1.3,1.54,1.94,1.31,2.46,2.62,4.91,3.93,7.37,1.01,3.22,2.75,5.98,5.13,8.35,4.12,4.75,9.34,8.59,12,14.55.09,1.65-1.1,2.14-2.35,2.57-10.52-3.33-20.65-7.22-25.87-18.13-1.02-.95-.88-2.21-.89-3.43,0-.84.17-1.64.53-2.4,3.2-2.96,2.74-6.6,1.91-10.3-.08-.8-.22-1.6-.42-2.39-.15-1.19-.35-2.39.81-3.25l.22-.31c.46-.66.95-1.3,1.48-1.91v.03c.73-.62,1.48-.68,2.26-.08.59,1.25.68,2.49-.16,3.68Z"/>
      <path class="uuid-7a48d6ae-a4ab-47b0-843f-dc0c5e6440f3" d="M29.76,121.78c-3.71-4.28-7.43-8.57-11.14-12.85,5.12-3.07,9.23.87,13.47,2.35,4.17,1.45,8.66,2.36,12.39,5.01,2.62,1.97,1.54,4.85,1.83,7.4.59.46.93,1.06,1.04,1.8-.13.74-.5,1.32-1.11,1.75-6.44.53-12.6-.5-18.45-3.27.28-1.08,1.84-.98,1.98-2.18Z"/>
      <path class="uuid-28f52d05-3632-4ca9-ab67-119f1f898d33" d="M78.29,53.72c-3.29-6.4-13.63-8.57-11.09-18.48,1.84,1.22,3.69,2.45,5.53,3.67,2.04,4.24,6.41,4.9,10.12,6.57,2.89,1.3,6.57,1.14,8.33,4.52,5.32,3.61.74,7.22,0,10.83-4.09.11-7.92-.67-11.28-3.17.17-.61.26-1.23.25-1.85-.46-.84-1.24-1.39-1.86-2.09Z"/>
      <path class="uuid-656765b1-33e6-4136-8167-ef497aaa368f" d="M162.54,115.33c-4.33-4.91-8.65-9.81-12.98-14.72-.1-1.42.42-2.69,1.94-1.87,7.75,4.18,16.56,6.05,23.89,11.1h0c.42.41.56.82.43,1.24-.13.42-.27.62-.41.62-.03,3.01-.06,6.02-.1,9.03-1.12,1.29-2.33,1.23-3.6.23-2.53-1.12-5.06-2.23-7.59-3.35.55-1.51-1.2-1.42-1.58-2.29Z"/>
      <path class="uuid-36b32d7c-be87-4480-ad9c-5a2a70abce10" d="M153.76,57.4l.07-3.68c-.45-.47-.98-1.32-.71-1.54,5.56-4.62,10.85-9.92,19.1-8.63.66.57,1.21,1.24,1.65,2,.13.41.27.83.4,1.24-1.42,3.33-3.51,5.99-7.15,7.08l-.22.18c.06.51,0,1-.16,1.48-.71.71-1.41,1.44-2.49,1.56-.5-.06-.88.11-1.15.53-2.03,2.2-5.15,1.98-7.54,3.4-.61-.09-1.19.02-1.73.33-.74.49-1.47.5-2.19-.03-.65-2.04.89-2.9,2.12-3.93Z"/>
      <path class="uuid-9a3fd187-42fe-4d14-9e19-359a77ec6e08" d="M105.27,116.28c.28-2.81-2.48-3.61-3.61-5.49,2.1-4.93,9.04-4.16,10.95-9.32,2.47-2.46,4.94-4.92,7.41-7.38,3.08,3.12,2.29,6.49.68,9.92-.61,1.08-1.1,2.24-1.81,3.27-.38.7-.69,1.43-.92,2.2-.44,1.08-.71,2.26-1.67,3.06-1.94,2.48-4.38,4.21-7.46,4.97-.96-.32-1.99-.16-2.95-.45-.21-.26-.41-.53-.61-.79Z"/>
      <path class="uuid-853b02c3-f9ca-46af-8a14-1518ec4c36f0" d="M219.65,113.53c-1.38-2.15-3.61-1.74-5.66-1.91,3.67-3.72,9.38.2,13.07-3.48,1.69-1.56,3.52-1.18,5.38-.38,2.49-.56,4.98-1.12,7.47-1.69,1.17,3.26-2.42,3.57-3.42,5.56.31,2.13,2.65,2.13,3.75,3.46.47.81.36,1.55-.27,2.23-2.7,2.19-5.74,3.41-9.25,3.39-1.06-.62-2.23-1.05-3.18-1.86-2.03-2.66-5.73-2.85-7.89-5.32Z"/>
      <path class="uuid-7f161588-75bd-4c2a-8dd3-d44318e09be6" d="M118.12,105.4c2.21-3.5,2.05-7.4,1.89-11.3.04-1.19.08-2.38.12-3.57-1.35-1.81-.04-2.98,1.01-4.22.68-.48,1.42-.83,2.22-1.07.81-.17,1.63-.22,2.46-.14,1.28.14,2.32.73,3.15,1.7-.02,2.44-.04,4.87-.05,7.31-.98,1.37-2.42,1.55-3.94,1.48,1.02.62,1.65,1.36.83,2.57-.11,2.87-1.42,5.21-3.21,7.34-1.82.36-1.45,2.44-2.6,3.33l-.02.03c-1.15,1.13-2.34,1.14-3.58.15.03-.69.06-1.39.09-2.08.55-.51,1.1-1.02,1.64-1.54Z"/>
      <path class="uuid-f7406ec2-ba5a-44eb-911e-df4b6bc4de0c" d="M219.65,113.53h6.07c3.38,1.3,3.01,3.51,3.15,5.5-.21,1.07-1.29,1.47-1.8,2.31-1.54,1.86-3.55,1.57-5.58,1.25-2.12-.93-4.24-1.85-6.5-2.85-.25-3.4,1.05-5.63,4.66-6.21Z"/>
      <path class="uuid-866c3fd1-e5e7-4c68-b751-eee50b9a04ec" d="M259.98,87.72c.81,8.84-1.97,16.31-8.53,22.33-.74.47-1.52.59-2.36.3-2.95-6.12,4.67-9.65,3.75-15.28h0c2.54-2.41.64-5.84,1.92-8.55.75-1.66,1.43-3.42,3.84-2.76v.03c.71,1.22.53,2.75,1.39,3.92Z"/>
      <path class="uuid-9a3fd187-42fe-4d14-9e19-359a77ec6e08" d="M86.88,121.81q-1.01-6.09,10-8.43c3.4,1.12,2.27,5.55,5.14,7.05-1.25.53-2.51,1.06-3.76,1.59-3.81.65-7.53-3.04-11.38-.21Z"/>
      <path class="uuid-9d560164-7b7a-46d4-ad28-c33f233298cd" d="M46.32,125.59c0-.63-.02-1.27-.03-1.9,14.91.06,29.82.12,44.73.19-4.81,2.45-9.96,3.26-15.29,3.24-1.41-.87-2.98-.64-4.52-.68-8.29-.47-16.64,1-24.89-.84Z"/>
      <path class="uuid-e58d2f66-7006-409f-9917-1d12e0118315" d="M79.96,5.92c.54,1.13,1.08,2.25,1.62,3.38-1.74,1.25-3.49,2.5-5.23,3.75-3.55.84-6.98,3.08-10.77.86-2.03-3.68.73-4.89,3.22-6.23.99-.39,2.21-.58,1.92-2.14,1.29-.54,2.59-1.08,3.88-1.62,1.6,1.16,4.2-.35,5.36,2.01Z"/>
      <path class="uuid-95925088-e217-4532-9132-47a61f0ecde5" d="M9.34,94.17c-3.32-2.31-.32-7.19-3.82-9.43,1.43-3.51,4.29-5.54,7.47-7.25.69-.63,1.44-.7,2.24-.21.53,4.67-.88,8.95-2.57,13.19-2.29.17-3.21,1.58-3.32,3.71Z"/>
      <path class="uuid-4e71b6f0-6e7f-402a-8366-c644f5d3a35c" d="M159.95,9.12c-3.5,1.78-6.16,4.43-8.05,7.86-.73.51-1.52.66-2.39.47-1.99-.91-3.86-1.91-3.39-4.62,1.4-2.72,1.66-6.43,5.8-6.82,3.13-.13,5.84.82,8.02,3.11Z"/>
      <path class="uuid-e4c1f9bf-e028-4d47-a020-3fed7637cbd5" d="M258.59,83.77c-1.58.84-1.98,2.29-2.03,3.93-.65.65-1.38.73-2.18.32-2.33-2.86-2.86-6.7-5.14-9.59.01-1.92.02-3.85.03-5.77,5.45,1.74,8.14,5.8,9.32,11.12Z"/>
      <path class="uuid-c9d15f78-99f0-4cd4-99f8-0806a2e687b1" d="M88.7,66.49c-10.41-.91-21.01,1.89-31.28-1.65,10.43-1.05,20.85-1.01,31.28-.02,0,.56,0,1.11,0,1.67Z"/>
      <path class="uuid-93b51d54-120d-4c50-93e1-ac4fd9b3c328" d="M123.45,86.48c-.52.07-1.04.12-1.57.14-2.98-3.08-4.63-6.82-5.53-10.95.03-1.28.05-2.55.08-3.83,5.26,1,7.43,4.95,9.03,9.46-1.49,1.41.55,4.19-2,5.19Z"/>
      <path class="uuid-d8267a52-7150-4abd-98a0-bd07846aa296" d="M151.93,6c-3.99,1.45.03,4.41-1.3,6.75-1.32.13-2.76.27-4.21.41-.38.59-.91.83-1.6.75-.95-.25-1.81-.69-2.63-1.21-.54-.37-.96-.85-1.25-1.43,2.37-2.11,4.02-5.19,7.61-5.68,1.13.14,2.26.28,3.39.42Z"/>
      <path class="uuid-fd8c06ce-030d-4858-a10e-a08ea07cfa6a" d="M46.32,125.59c9.21,0,18.42-.02,27.63-.02.41.35.54.71.42,1.07-.13.36-.26.54-.39.54-9.25,1.1-18.5,1.34-27.75.05.04-.55.08-1.1.09-1.64Z"/>
      <path class="uuid-5520005d-845d-4959-80a3-6d70ab65809d" d="M140.56,78.34c-.08-1.18-.16-2.36-.25-3.54-.48-.46-.64-.92-.48-1.38.16-.46.32-.69.47-.69,1.37-3.1,4.33-4.17,7.07-5.49,1.88-1.05,2.41.23,2.86,1.66-1.01,3.99-1.35,8.25-4.44,11.44-2.03-1.33-1.69-3.61-2.04-6.32-1.36,1.84-2.28,3.09-3.2,4.34Z"/>
      <path class="uuid-0ea1420a-7ccf-4505-824e-b5f539552d7e" d="M101.68,68.42c-.49,3.22-2.51,3.88-5.41,3.21-1.88-2.24-3.78-4.52-5.69-6.8,3.36-.25,6.7-.38,9.77,1.39-.73,1.44,1.06,1.35,1.33,2.2Z"/>
      <path class="uuid-6de49f05-3e08-4974-85c2-e8e826a70f57" d="M70.93,7.64c-1.85,1.83-3.7,3.66-5.55,5.49.4,1.62-.3,2.12-1.82,1.8-.46-4.72-3.65-1.07-5.42-1.77.82-2.34,2.71-3.38,4.92-4.05.95-.2,1.62-.84,2.26-1.51l.05-.04c.97-.97,2.21-.89,3.44-.89.86-.01,1.57.31,2.12.96Z"/>
      <path class="uuid-b3fa8058-f015-420b-be79-fa8200a28af4" d="M162.44,61.56c.64.19,1.28.39,1.92.58.65.35.86.7.64,1.04-.22.34-.43.52-.65.52-.05,2.02.29,4.17-1.75,5.57-2.19-1.75-5.85-1.71-6.5-5.35.04-.93.51-1.5,1.41-1.71,1.64-.21,3.29-.43,4.93-.64Z"/>
      <path class="uuid-46e32848-5552-400c-b5ec-26b2d7f346c7" d="M249.04,109.79c.8.09,1.61.17,2.41.26-2.49,3.37-5.77,5.6-9.74,6.87-.58-.73-.83-1.56-.79-2.49,1.8-3.14,3.37-6.67,8.12-4.64Z"/>
      <path class="uuid-e3ef4570-e2df-4309-961e-92cc26813773" d="M134.84,93.31c-.03.55-.06,1.09-.08,1.64-.36.91-.83.92-1.38.16-1.76-5.17-1.31-10.12,1.53-14.81.58-.83,1.16-.83,1.74,0l.05.06c1.09,4.56,1.01,8.96-1.86,12.95Z"/>
      <path class="uuid-f38622fb-6298-4eb2-9c5a-bc5c34882ad6" d="M177.6,26.34c.09-.84.17-1.68.26-2.53,3.53,5.07,2.81,10.21.25,15.38-.41-.15-.82-.31-1.24-.46-3.15-4.33.88-8.23.73-12.38Z"/>
      <path class="uuid-e5ce012b-8290-4309-a0a3-a56ad1b94e1f" d="M86.88,121.81c3.86-3.52,7.62-1.48,11.38.21-1.03,1.46-2.5,1.64-4.11,1.42-2-2.44-4.8-1.33-7.28-1.64Z"/>
      <path class="uuid-1ad7779b-3d13-48a4-8c53-11c655ac0c70" d="M33.27,68.68c-2.11,3.88-5.71,3.53-9.28,3.29,2.76-2.02,5.78-3.33,9.28-3.29Z"/>
      <path class="uuid-99886799-e44c-4578-a545-f0a6d2c73ce4" d="M129.91,64.55c3.41-2.82,7.38-1.47,11.17-1.5.54.88.26,1.33-.74,1.42-3.48.03-6.95.05-10.43.08Z"/>
      <path class="uuid-d812fe15-fb0d-4a25-9aab-2252880908f2" d="M125.8,98.16c-.35-1.01-.7-2.03-1.24-3.6,1.71-.18,3.03-.32,4.35-.46.53,2.56-.64,3.81-3.11,4.06Z"/>
      <path class="uuid-5565be2c-5c97-4da4-870f-76fbac5263b0" d="M79.96,5.92c-1.95-.24-4.15.2-5.36-2.01,1.76-.4,3.52-.8,5.28-1.19.02,1.07.05,2.13.08,3.2Z"/>
      <path class="uuid-cc4e41e4-205e-493d-87d8-dd12304e3a20" d="M29.76,121.78c.15.48.3.96.45,1.47-.84.25-1.64.48-2.44.71-1.18-.23-2.36-.47-3.54-.7,1.51-1.73,3.58-1.35,5.52-1.48Z"/>
      <path class="uuid-ac1d382c-bfc5-4ced-b05e-21114ad42e4b" d="M149.53,65.3c1.29-.18,2.57-.35,3.86-.53.72,3.22-.35,4.81-3.83,4.22-.73-.58-1.45-1.17-2.18-1.75.71-.65,1.43-1.29,2.14-1.94Z"/>
      <path class="uuid-7a261679-17b7-48e7-a389-15ca5e4ee87b" d="M101.68,68.42c-.84-.24-1.68-.48-2.65-.75.55-.6.93-1.02,1.32-1.44,2.2-.17,4.19.29,5.83,1.88-1.5.11-3,.21-4.5.32Z"/>
      <path class="uuid-f38622fb-6298-4eb2-9c5a-bc5c34882ad6" d="M178.11,39.19c.08,2.1-.29,4.02-2.18,5.31-1.61-.94-2.34-2.39-2.44-4.21.65-1.99,1.88-2.67,3.84-1.69.26.2.52.39.78.59Z"/>
      <path class="uuid-c781f86c-987f-4b01-825b-6b71119a409d" d="M170.43,13.12c-2.66.08-4.35-1.51-5.86-3.4,2.95-.58,4.72.86,5.86,3.4Z"/>
      <path class="uuid-7a1322af-2be5-48fe-ac4c-a606ea1ea79e" d="M52.41,33.41h-.79s-.79,0-.79,0c.03-2.44.06-4.88.09-7.32.48-.91.98-.88,1.49-.02h-.02c2.11,2.44,2.18,4.89.03,7.35Z"/>
      <path class="uuid-e6afcc77-eedf-4c82-a407-cfa80558b1f9" d="M128.97,86.8c-1.13-.02-2.26-.04-3.39-.06-1.09-1.42-1.11-2.79.19-4.1,2.73.1,3.62,1.63,3.2,4.16Z"/>
      <path class="uuid-145c5e24-41c9-423e-a1dc-ce70dc0ef1bd" d="M174.19,40.83c.58,1.22,1.16,2.45,1.74,3.67-.56.76-1.11,1.52-1.67,2.29-.05-.36-.19-.68-.42-.97-.51-.58-.84-1.26-1-2.02-.02-1.21.32-2.25,1.35-2.97Z"/>
      <path class="uuid-266b40b6-0ee0-466e-9402-4ca65d33c0f2" d="M54.6,42.52c2.29.17,3.37,1.46,3.43,3.7-1.14-1.23-2.29-2.46-3.43-3.7Z"/>
      <path class="uuid-266b40b6-0ee0-466e-9402-4ca65d33c0f2" d="M58.06,46.24c2.2.02,3.54,1,3.71,3.3-1.24-1.1-2.47-2.2-3.71-3.3Z"/>
      <path class="uuid-f2f0da61-af32-4823-a59e-17faeeda4f2b" d="M83.73,55.66c-1.28.67-2.56,1.33-3.84,2-.63.12-1.2-.02-1.71-.41-.58-.37-.78-.74-.58-1.1.19-.37.39-.55.58-.55l.06-.07c1.86-1.17,3.7-1.32,5.49.14Z"/>
      <path class="uuid-9a3fd187-42fe-4d14-9e19-359a77ec6e08" d="M103.54,119.99c.58-1.24,1.15-2.47,1.73-3.71,0,0,.1.07.1.07.76.45,1.34,1.07,1.74,1.86-1.19.59-2.38,1.18-3.57,1.78Z"/>
      <path class="uuid-5b883c09-e772-4b9a-ae62-3efa8926fe26" d="M162.54,115.33c.8.21,1.59.43,2.45.66-.35.66-.61,1.14-.87,1.63-1.14-.26-2.28-.53-3.42-.79.61-.5,1.23-1,1.84-1.5Z"/>
      <path class="uuid-d8c2d105-ad0e-4b8f-9a94-935fad479fdc" d="M227.05,67.39c.73-.71,1.46-1.42,2.18-2.13,1.1.14,2.2.29,3.31.43-1.39,2-3.5,1.66-5.49,1.7Z"/>
      <path class="uuid-73e5892f-23e9-4274-bcb7-0b4be2d0ddba" d="M116.38,109.02c1.19-.05,2.38-.1,3.58-.15-1.22,1.23-2.45,2.46-3.67,3.69.03-1.18.06-2.35.09-3.53Z"/>
      <path class="uuid-1ad7779b-3d13-48a4-8c53-11c655ac0c70" d="M22.39,72.3c-.01.58-.04,1.15-.08,1.72.48,1.51-.42,2.16-1.65,2.6-.84.04-1.6-.18-2.31-.63-.44-.78-.35-1.52.18-2.22v-.02c.62-.52,1.31-.94,2.06-1.25.6-.07,1.19-.14,1.79-.2Z"/>
      <path class="uuid-20bd7ae7-4706-49f7-b194-52368b01b704" d="M15.03,77.58c-.68-.03-1.36-.05-2.04-.08,1.1-.71,2.19-1.43,3.29-2.14.86-.39,1.65-.28,2.36.35l-.02.02c.06,3.06-1.5,2.97-3.59,1.85Z"/>
      <path class="uuid-204c4c0e-3541-4809-bf87-45d033cb55cc" d="M2.01,92.25c1.3.92,2.08,2.02.93,4.57-.59-1.44-.94-2.28-1.28-3.12-.27-.58-.15-1.06.35-1.46Z"/>
      <path class="uuid-248872f2-b902-4386-a97f-57f85bd2856f" d="M125.77,82.64c-.06,1.37-.13,2.73-.19,4.1-.71-.09-1.41-.17-2.12-.26.28-1.88-.05-4,2-5.19.4.38.5.83.31,1.35Z"/>
      <path class="uuid-e58d2f66-7006-409f-9917-1d12e0118315" d="M68.98,7.57c-1.21,0-2.41,0-3.62,0,.84-1.45,2.14-1.84,3.71-1.68.58.4.76.79.54,1.15-.21.35-.42.53-.63.53Z"/>
      <path class="uuid-44dddf33-e2cc-4382-9044-e38bbb82e593" d="M68.98,7.57c0-.56.02-1.12.09-1.67.52-.27,1.07-.39,1.65-.36.38.33.76.66,1.14,1.01-.31.38-.62.74-.94,1.1-.65-.03-1.3-.05-1.94-.08Z"/>
      <path class="uuid-ec63ff23-fa91-4ee5-84c0-cc4b73c5b7bf" d="M52.41,26.06l-.75.03s-.75,0-.75,0c.48-1.25.95-2.51,1.43-3.76.02,1.25.04,2.49.06,3.74Z"/>
      <path class="uuid-9b8e8165-c761-4b25-84f5-10127037aa93" d="M69.04,53.4c1.36-1.58,2.56-1.53,3.6.34-.63.61-1.32.7-2.09.28-.65.14-1.15-.06-1.51-.62Z"/>
      <path class="uuid-28f52d05-3632-4ca9-ab67-119f1f898d33" d="M78.18,55.58c.02.55.02,1.11,0,1.66-1.29-.5-2.59-1.01-3.88-1.51,1.29-.05,2.58-.1,3.87-.15Z"/>
      <path class="uuid-b0754df1-7cc4-4c7a-a3ba-ba256c1526b5" d="M136.65,80.29h-.87s-.87,0-.87,0c-.17-1.56.5-2.65,1.86-3.36-.04,1.12-.08,2.24-.12,3.36Z"/>
      <path class="uuid-33da8c06-c9f4-410c-9c83-19353a203a44" d="M227.07,121.34c.6-.77,1.2-1.54,1.8-2.31.62.56,1.23,1.12,1.85,1.68-1.22.21-2.43.42-3.65.63Z"/>
      <path class="uuid-27a2bedc-68e0-46b1-b2fd-85b2a3155ced" d="M107.11,118.21c-.58-.62-1.16-1.24-1.74-1.86,1.16.39,2.31.78,3.46,1.17-.57.23-1.15.46-1.72.69Z"/>
      <path class="uuid-e4c1f9bf-e028-4d47-a020-3fed7637cbd5" d="M259.98,87.72c-1.28-1.02-1.77-2.31-1.39-3.92,1.74.85,1.71,2.33,1.39,3.92Z"/>
      <path class="uuid-73e5892f-23e9-4274-bcb7-0b4be2d0ddba" d="M119.99,108.83c.1-1.71.61-3.1,2.6-3.33-.87,1.11-1.74,2.22-2.6,3.33Z"/>
      <path class="uuid-b0754df1-7cc4-4c7a-a3ba-ba256c1526b5" d="M133.38,95.11c.46-.08.92-.13,1.38-.16.02,1.25.05,2.5.07,3.75-.48-1.2-.97-2.39-1.45-3.59Z"/>
      <path class="uuid-1eb52903-75e1-48a6-bc51-e5845bf9acac" d="M241.62,115.43c.04.5.07,1,.09,1.5-.58.13-1.17.27-1.75.4,0-.64,0-1.27,0-1.91.56-.55,1.11-.55,1.66.01Z"/>
      <path class="uuid-27a2bedc-68e0-46b1-b2fd-85b2a3155ced" d="M73.98,127.18c-.02-.54-.03-1.08-.02-1.62.59.52,1.18,1.03,1.77,1.55,0,0-.86.31-.86.31l-.89-.24Z"/>
      <path class="uuid-b0754df1-7cc4-4c7a-a3ba-ba256c1526b5" d="M138.47,74.72c-.49.64-.99,1.27-1.48,1.91.49-.64.98-1.27,1.48-1.91Z"/>
      <path class="uuid-a6c14147-9a5d-4d12-81a2-3b18b6609117" d="M18.64,75.7c-.78-.12-1.57-.23-2.36-.35.75-.53,1.5-1.05,2.26-1.58.03.64.07,1.28.1,1.93Z"/>
      <path class="uuid-b0754df1-7cc4-4c7a-a3ba-ba256c1526b5" d="M140.31,72.73c0,.69,0,1.38,0,2.07-.62-.02-1.24-.04-1.85-.06.62-.67,1.23-1.34,1.85-2.02Z"/>
      <path class="uuid-311ead87-dc2a-4d3d-b56f-6981edf2cf42" d="M20.6,72.51c-.69.42-1.38.83-2.07,1.25.69-.42,1.38-.83,2.07-1.25Z"/>
      <path class="uuid-28f52d05-3632-4ca9-ab67-119f1f898d33" d="M70.55,54.02c.7-.09,1.39-.19,2.09-.28.06.46.07.92.02,1.37-.71-.36-1.41-.73-2.11-1.09Z"/>
      <path class="uuid-ec63ff23-fa91-4ee5-84c0-cc4b73c5b7bf" d="M51.11,35.31c.34.77.69,1.53,1.03,2.3-.34-.77-.69-1.53-1.03-2.3Z"/>
      <path class="uuid-c066f684-54f4-48e8-b45f-2717e0b2c7c6" d="M54.39,18.63c.18.42.35.85.54,1.29-.51.16-.98.31-1.45.46.31-.58.61-1.16.92-1.75Z"/>
      <path class="uuid-2698d63a-3b4c-4f13-b4d8-c032156f460b" d="M57.9,16.78c-.75-.12-1.51-.23-2.26-.35,0-.63.26-1.14.77-1.51.55-.57,1.1-.56,1.64.02-.05.62-.1,1.23-.15,1.85Z"/>
      <path class="uuid-6de49f05-3e08-4974-85c2-e8e826a70f57" d="M58.04,14.94l-.82.06s-.82-.08-.82-.08c.54-.54,1.07-1.08,1.61-1.62.06.55.07,1.09.04,1.64Z"/>
      <path class="uuid-e58d2f66-7006-409f-9917-1d12e0118315" d="M65.32,7.61c-.75.5-1.51,1.01-2.26,1.51.75-.5,1.51-1.01,2.26-1.51Z"/>
      <path class="uuid-09a9e5e6-544f-4102-ad83-4f649c22d40a" d="M164.25,57.09c.83-.52,1.66-1.04,2.49-1.56-.83.52-1.66,1.04-2.49,1.56Z"/>
      <path class="uuid-de6368e9-5018-430c-9e4f-0ff61b64d8e3" d="M217.76,69.3c1.39,2.03,3.54,1.73,5.56,1.83,2.91,2.67,7.95,2.72,9.16,7.48.15,2.86.13,5.7-.91,8.43-.79,1.9-2.59,2.92-3.83,4.43-1.35,1.34-3.16,2.12-4.4,3.61-20.18,8-47.33,2.89-58.99-11.11,1.94-3.46-.08-8.22,3.64-11.1l-.05.05c1.29-2.11,4.36-1.48,5.61-3.65,12.91-3.8,25.83-1.91,38.76-.1,1.85-1.38,3.67-1.55,5.44.13Z"/>
      <path class="uuid-1f99dfb7-4cda-4b38-8d3f-68602b5932a7" d="M149.57,68.99c2.2-.57,3.43-2.01,3.82-4.22,1.12-.4,2.24-.8,3.36-1.21,1.25,2.62,6.21,1.42,5.83,5.71-7.07,3.03-3.98,11.35-7.59,15.72-5.16,1.51-7.16-1.59-9.19-4.65.08-4.17-.91-8.69,3.76-11.34Z"/>
      <path class="uuid-ba34cc69-3a39-4f00-b7ad-653534c32eb6" d="M241.62,115.43l-.83-.02s-.83,0-.83,0c-6.04,3.88-5.17-2.98-8.19-4.52,3.13-1.85,6.44-1.99,8.13-4.81,0,0-.04.03-.04.03.65-.58,1.89-.56,1.89-1.82,3.69-3.07,7.39-6.14,11.08-9.21,4.57,6.41-3.02,9.69-3.8,14.72-3.47.56-5,3.69-7.42,5.63Z"/>
      <path class="uuid-c8bfd8b1-e434-4ac7-84db-972fc193977f" d="M175.4,109.84c-9.43-.79-16.31-8.72-25.83-9.23-3.56-2.16-5.63-4.92-3.65-9.26,8.38,9.49,20.78,11.35,31.4,16.58-.64.64-1.28,1.28-1.92,1.92Z"/>
      <path class="uuid-ea58764e-181a-4f33-9b6f-acc4c31ccd0a" d="M249.24,78.43c6.06.61,5.22,5.35,5.6,9.37,1.41,2.63.45,4.29-2.15,5.28-2.41.1-4.85.29-6.59-2.92,3.33-3.04.84-7.93,3.15-11.72Z"/>
      <path class="uuid-f4696dd8-2880-4474-8c77-7d1a03fdbeb5" d="M230.73,87.7c.39-3.07-1.23-6.52,1.75-9.09,0,0,.01-.07.01-.07.62.64,1.37,1.16,1.7,2.03.29,2.57-.35,4.91-1.78,7.05-.53.8-1.09.83-1.68.08Z"/>
      <path class="uuid-d5ac6ce0-3ab8-47ac-877d-400042575290" d="M168,72.87c-1.17,3.71-.99,7.87-3.64,11.1.96-3.78-2.91-9.15,3.64-11.1Z"/>
      <path class="uuid-ba34cc69-3a39-4f00-b7ad-653534c32eb6" d="M252.68,93.07c.72-1.76,1.43-3.52,2.15-5.28.58,0,1.15-.03,1.73-.09-.35,2.91,1.17,6.77-3.73,7.38-.05-.67-.1-1.34-.15-2.01Z"/>
      <path class="uuid-74e07233-1b77-4464-ad8b-787ccb3da35d" d="M173.56,69.27c.58.15,1.16.29,3.36.84-3.84,1.2-6.41,2.01-8.98,2.81,0-.6.04-1.19.11-1.78.65-.57,1.17-1.3,1.93-1.75.58-.02,1.15-.08,1.72-.18.62.02,1.24.04,1.86.06Z"/>
      <path class="uuid-81da6bb9-4cca-4cbb-9f88-cb28506067af" d="M164.34,63.7c0-.52,0-1.04.01-1.56,2.35-.17,4.7-.34,7.06-.51.71.34,1.42.68,4.37,2.08-4.74,0-7.17,0-9.6,0h-1.84Z"/>
      <path class="uuid-bb7fa20a-fdda-44f4-9c9a-f88f220a58e2" d="M223.35,95.07c.07-2.38,1.3-3.59,3.67-3.68.73-.8,1.41-.76,2.04.13-1.22,2.28-3.03,3.6-5.7,3.55Z"/>
      <path class="uuid-778c3028-b89e-4a94-b60a-d475620b6113" d="M229.05,91.52c-.68-.04-1.36-.09-2.03-.13,1.24-1.23,2.48-2.46,3.71-3.7.56-.03,1.12-.06,1.68-.07-1.12,1.3-2.24,2.6-3.36,3.9Z"/>
      <path class="uuid-c8bfd8b1-e434-4ac7-84db-972fc193977f" d="M184.75,109.75c-2.08.07-4.24.4-5.66-1.71,2.07-.05,4.18-.19,5.66,1.71Z"/>
      <path class="uuid-e0b887d9-de7b-489e-80b6-1f3d66038bb2" d="M232.43,107.76c-1.79.13-3.58.25-5.38.38,1.63-2.45,3.43-2.5,5.38-.38Z"/>
      <path class="uuid-853b02c3-f9ca-46af-8a14-1518ec4c36f0" d="M241.75,104.29c.18.46.36.91.6,1.5-.88.11-1.68.22-2.48.32.63-.61,1.26-1.22,1.89-1.82Z"/>
      <path class="uuid-b0754df1-7cc4-4c7a-a3ba-ba256c1526b5" d="M141.98,83.98c-.51-.64-1.03-1.29-1.54-1.93.52.64,1.03,1.29,1.54,1.93Z"/>
      <path class="uuid-de6368e9-5018-430c-9e4f-0ff61b64d8e3" d="M234.19,80.57c-.57-.68-1.13-1.36-1.7-2.04.57.68,1.13,1.36,1.7,2.04Z"/>
      <path class="uuid-de6368e9-5018-430c-9e4f-0ff61b64d8e3" d="M169.98,69.39c-.64.58-1.28,1.17-1.93,1.75.64-.58,1.28-1.17,1.93-1.75Z"/>
      <path class="uuid-d95f6817-6e40-4ee4-b7ca-fd6a4f69797e" d="M140.93,11.26c.6.02,1.21.02,1.81.02.57.66,1.31,1.15,1.87,1.82.6.02,1.21.04,1.81.05,1.24,1.21,2.49,2.43,3.73,3.64,2.35,4.66.48,9.79,1.62,14.58-1.6,2.72-4.23,3.55-7.13,3.88-3.24,1.99-4.74-.32-6.27-2.54-.54-1.15-.72-2.36-.52-3.61.39-1.28,1.28-2.49.65-3.92-.02.04-.9.1-.9.1,0,0,.73.5.73.54.08,1.18-.5,2.05-1.19,2.89-1.09.68-2.28.97-3.53,1.04-1.32.04-2.61-.13-3.88-.45-2.76-1.04-6.06-1-7.92-3.86-.28-.7-.38-1.45-.34-2.19.1-.45.22-.93.35-1.42-.29-.92-1.1-.5-1.71-.65-.7-.17-1.27-.52-1.76-1.03-.58-.95-.71-1.98-.61-3.05.52-1.89-1.14-3.25-1.23-5,.98-3.13,4.45-.8,5.97-2.73h0c1.23-1.02,2.46-1.08,3.69.01,3.53.07,7.39-.66,9.15,3.74h0c1.87-.63,3.74-1.26,5.61-1.9Z"/>
      <path class="uuid-a61686d8-b791-4eb5-9502-bd75bf911158" d="M139.03,31.53c1.94,1.14,2.76,3.97,5.62,3.73-19.91,6.94-38.99,5.24-57.19-5.55.23-.38.47-.76.7-1.14,2.84-2.63,6.33-2.95,9.94-2.82,1.23.1,2.41.43,3.48,1.05,1.23,1.02,1.83,2.99,3.99,2.67,1.33.04,2.65.15,3.89.62.54.28,1,.69,1.33,1.2,0-.02.71-.52.7-.54s-.68-.63-.68-.63c0,0,.41-.81.43-.84.59-.41,1.22-.62,1.91-.71,1.95.04,3.44,1.06,4.88,2.17.56.4,1.12.83,1.67,1.23.59.28,1.21.53,1.85.68.68-.03,1.34-.09,1.99-.26,1.62-.81,3.12-1.92,5.01-2.03.76,0,1.49.13,2.22.34,2.07.83,4.16,1.15,6.28.13.79-.15,1.44.1,1.96.69Z"/>
      <path class="uuid-d664a7f4-b132-412c-a002-6dc326d3872d" d="M174.19,40.83l-.2,3.79c-.55.63-1.17,1.18-1.87,1.63-8.48-3.35-12.72,3.68-18.29,7.47-1.27-1.28-2.54-2.57-3.81-3.85,8.62-4.63,18.72-7.1,24.12-16.46.5-.75.96-1.54,1.77-2.01.18-1.82-.23-3.83,1.69-5.06-.09,4.09-.18,8.18-.27,12.26-1.05.74-2.1,1.49-3.15,2.23Z"/>
      <path class="uuid-3ad3a9f2-acc6-4349-807a-7ab285c5923e" d="M87.46,29.72c-2.34-1.35-5.45-1.93-5.51-5.55,3.05-4.89,1.53-14.02,11.53-12.45.78.33,1.41.86,1.89,1.55.21.78.24,1.57.13,2.36-.68,2.9,2.95,3.52,3.19,5.94-.07,1.64-1.06,2.7-2.3,3.59-3.18,1.09-7.03.87-8.92,4.53l-.03.03Z"/>
      <path class="uuid-f167df47-00f1-4865-8c3c-61e42dc200c8" d="M63.56,14.94c.61-.6,1.21-1.2,1.82-1.8,3.68,2.36,7.28-4.54,10.98-.09,0,0-.02.05-.02.05-1.67,1.7-1.4,4.73-4,5.78-.81-.04-1.54-.31-2.14-.87.6.54,1.27.98,2,1.33,2.88,4.03,1.28,5.91-3.1,6.44-.65-.52-1.3-1.03-1.96-1.55-.54-.95-.62-2.19-1.76-2.75-.7-.18-1.29-.56-1.77-1.11h0c-1.49-1.74-1.34-3.53-.11-5.34l.06-.1Z"/>
      <path class="uuid-72050df0-4c99-4253-bc30-9649ee9b800c" d="M94.82,13.08c-9.37-2.21-8.1,7.95-12.87,11.09-.24-3.83-.39-7.65,1.81-11.07,2.92-1.63,5.41-4.32,9.23-3.69,1.12-1.04,2.37-.92,3.67-.41,1.05,2.11,0,3.28-1.84,4.1Z"/>
      <path class="uuid-2ba9eca1-a5e8-44e4-924e-04fbb38f1d95" d="M172.18,31.5c-.92,1.53-1.65,3.33-4.61,2.65-1.88-4.72.25-9.42.38-14.05,4.96-1.98,5.8.72,6.11,4.1-2.28,2.01-1.88,4.7-1.89,7.3Z"/>
      <path class="uuid-1f1476ba-87f3-4f0c-830c-82e96fc683d2" d="M91.17,49.99c-4.29-1.54-8.69-2.81-12.81-4.71-2.61-1.2-6.63-1.75-5.64-6.38,6.79,3.06,13.58,6.11,20.37,9.17-.64.64-1.28,1.28-1.92,1.92Z"/>
      <path class="uuid-e58d2f66-7006-409f-9917-1d12e0118315" d="M70.86,18.64c1.82-1.85,3.65-3.7,5.47-5.55-.4,11.68-1.02,12.76-7.24,12.69,1.05-.97,2.1-1.94,3.38-3.12-.56-1.4-1.09-2.71-1.62-4.01h0Z"/>
      <path class="uuid-9ff32bd5-7a9f-48fb-899b-c29503fca9eb" d="M151.77,31.38c-4.44-4.43-1.45-9.68-1.62-14.58.59.04,1.18.1,1.76.17,2.15,4.82,2.13,9.63-.13,14.41Z"/>
      <path class="uuid-11082be0-8435-4515-abf9-72db94a80adf" d="M172.18,31.5c-3.19-2.67-2.59-4.99,1.89-7.3,0,1.23,0,2.45.01,3.68-1.23.88-.39,2.83-1.85,3.59l-.04.03Z"/>
      <path class="uuid-e58d2f66-7006-409f-9917-1d12e0118315" d="M65.27,20.52c.79.16,1.57.32,2.76.57-.33,1.16-.61,2.15-.9,3.14-.66-.61-1.31-1.22-1.97-1.84-.39-.44-.5-.86-.34-1.27.16-.4.31-.6.45-.6Z"/>
      <path class="uuid-6de49f05-3e08-4974-85c2-e8e826a70f57" d="M63.5,15.03c.03,1.78.07,3.56.11,5.35-2.55-1.73-2.48-3.52-.11-5.35Z"/>
      <path class="uuid-2ba9eca1-a5e8-44e4-924e-04fbb38f1d95" d="M172.22,31.47c.62-1.2,1.23-2.39,1.85-3.59-.02,1.2-.03,2.39-.05,3.59h0s-.9.04-.9.04l-.9-.04Z"/>
      <path class="uuid-f38622fb-6298-4eb2-9c5a-bc5c34882ad6" d="M175.91,31.4c-.59.67-1.18,1.34-1.77,2.01-.04-.65-.07-1.3-.11-1.95,0,0,0,0,0,0,.63-.02,1.26-.04,1.88-.07Z"/>
      <path class="uuid-6de49f05-3e08-4974-85c2-e8e826a70f57" d="M65.27,20.52c-.03.62-.07,1.25-.1,1.87-.52-.67-1.04-1.35-1.56-2.02.56.04,1.11.09,1.66.15Z"/>
      <path class="uuid-453a46ba-0bb3-4be2-be1f-2b47cd735e9e" d="M42.57,75.65c13.06-6.47,27.06-2.54,40.6-3.64,4.88,1.94,10.86.99,14.71,5.61.91,5.94.63,11.66-3.22,16.68-2.34,1.75-5.77,1.12-7.8,3.56h0c-2.17,1.61-4.45.6-6.31.73-1.81-1.88-.78-3.08-.07-4.29,1.03-1.57.07-2.07-1.36-2.33-.77-.19-1.46-.49-2.13-.88-1.83-1.6-4.06-2.68-5.58-4.56-1.08-.86-1.87-.08-2.7.56-2.19,1.8-4.57,1.3-6.96.62-.81-.3-1.43-.82-1.92-1.52-1.13-1.4-.97-3.86-3.4-4.12-1.23.11-1.34.98-1.25,1.98.32,1.23-.02,2.62,1.1,3.56.59.16,1.1.47,1.53.87.34.43.66.88.98,1.29.61.08,1.08-.1,1.44-.65,1.54-1.54,3.29-.47,4.96-.51,1.18.05,2.36.06,3.53.21,1.63.33,3.19.85,4.77,1.37,1.25.41,2.4.99,3.34,1.92,2.55,4.41.93,6.37-3.74,6.52-.51-.29-.91-.64-1.11-1,.05.11.3.44.81,1.06.46,1.16.16,2.07-.69,2.84-11.92.34-23.81.72-34.89-5.12-2.16-1.14-4.64-1.53-5.63-4.15,1.28-2.53-1.13-5.28.17-7.03,2.13-5.69,7.13-6.84,10.81-9.57Z"/>
      <path class="uuid-311ead87-dc2a-4d3d-b56f-6981edf2cf42" d="M15.03,77.58c1.53.04,2.85-.36,3.59-1.85,1.23-.57,2.46-1.13,3.68-1.7.58,0,1.15.03,1.73.06.6.42,1.22.8,1.88,1.13.61,5.81-3.48,11.17-1.66,17.1-4.8,5.23-8.28,2.24-11.59-1.86-2.63-4.93.14-8.86,2.37-12.89Z"/>
      <path class="uuid-392f2b92-4525-4863-8dcb-a901071b7d48" d="M44.47,116.29c-9.15-.59-17.29-4.72-25.85-7.36,0,0,.02.01.02.01-.58-.69-1.18-.7-1.8-.04-3.48-1.43-3.93-4.32-3.63-7.57.82-.45,1.63-.46,2.43.02,6.54,4.43,14.16,6.46,21.32,9.51,3.14,1.17,6.29,2.33,9.43,3.5-.64.64-1.28,1.28-1.92,1.93Z"/>
      <path class="uuid-aa005534-d230-4705-bd04-74f4f196b2f0" d="M116.35,75.67c4.29,2.41,5.36,6.46,5.53,10.95-.58,1.3-1.17,2.6-1.75,3.9-2.05-.13-4.09-.25-8.02-.5,6.45-4.38-1.83-10.56,4.24-14.36Z"/>
      <path class="uuid-d6247cdc-07ed-46c9-8d00-6c91f9a86b16" d="M36.96,110.87c-8.39-.68-15.85-3.56-22.01-9.45-.69-.48-1.3-1.06-1.82-1.73-.57-.64-1.13-1.27-1.7-1.91,8.59,3.84,17.17,7.68,25.74,11.55.18.08.29.54.25.79-.04.27-.31.5-.47.75Z"/>
      <path class="uuid-3ad3a9f2-acc6-4349-807a-7ab285c5923e" d="M72.1,101.53c0-1.24,0-2.47-.01-3.71h-.01c1.38-.36,2.76-.72,4.7-1.24-.4-1.7-.72-3.04-1.03-4.37-.42-.44-.58-.89-.47-1.36.1-.48.22-.72.35-.72.77-.45,1.44-.31,2.03.34l1.9.02c1.02,1.42,3.07,1.82,3.62,3.7-.7.9-1.39,1.79-2.84,3.66h6.54c-4.57,2.62-9.51,3.79-14.76,3.67Z"/>
      <path class="uuid-5a2c845b-6037-4289-a017-98d8fe4b0407" d="M42.57,75.65c-5.28,4.47-9.79,9.44-10.99,16.61-.64-1.21-1.28-2.42-1.93-3.62.32-8.29,5.12-12.13,12.91-12.98Z"/>
      <path class="uuid-8b6b9caa-1712-4296-9894-874f4c18d62e" d="M112.6,101.47q-1.75,4.61-10.95,9.32c-.64-.64-1.28-1.27-1.93-1.91,4.29-2.47,8.59-4.94,12.88-7.41Z"/>
      <path class="uuid-8eb3c030-c1ff-41c2-ae94-c7d3f48b1b2f" d="M94.31,94.12c3-5.11,1.67-11.16,3.57-16.5,3.61,4.88,1.5,9.73-.09,14.59-.52.69-1.1,1.32-1.76,1.88h0c-.56.72-1.13.73-1.71.04Z"/>
      <path class="uuid-3ad3a9f2-acc6-4349-807a-7ab285c5923e" d="M94.31,94.12c.57-.02,1.14-.03,1.71-.02-2.31,3.06-5.57,3.81-9.16,3.76.64-4.93,4.55-3.33,7.45-3.74Z"/>
      <path class="uuid-453a46ba-0bb3-4be2-be1f-2b47cd735e9e" d="M96.03,94.09c.59-.63,1.18-1.25,1.77-1.88-.59.63-1.18,1.25-1.77,1.88Z"/>
      <path class="uuid-99886799-e44c-4578-a545-f0a6d2c73ce4" d="M148.66,61.55c-.09.44-.24.86-.46,1.26-1.23-.06-2.45-.13-3.68-.19-2.58-2.94-6.61-.31-10.31-3.06,4.88-5.97,9.49-9.08,15.95-2.16,1.97,2.28-2.73,2.14-1.51,4.15Z"/>
      <path class="uuid-f91cbacd-17aa-4073-a568-0298ba8bdf9f" d="M148.66,61.55c-2.62-2.52,1.56-2.57,1.51-4.15,1.2,0,2.39,0,3.59,0-.56,1.16-1.11,2.31-1.67,3.47-1.14.23-2.29.46-3.43.69Z"/>
      <path class="uuid-c8bfd8b1-e434-4ac7-84db-972fc193977f" d="M175.41,111.7c0-.62-.01-1.24-.02-1.86.24.44.52.86.68,1.33.03.09-.43.35-.66.53Z"/>
      <path class="uuid-dfc7ab85-cf5e-4746-a1fe-dc8eb44016d0" d="M96.61,9.46c-1.21-.02-2.41-.04-3.62-.06,9.83-3.49,19.67-2.13,29.5,0-1.84,1.22-3.69,2.43-5.53,3.65.25,1.45,1.6,2.37,1.84,3.83,0,1.2,0,2.4.01,3.6-.29.25-.58.5-.87.76-1.92.6-3.85.27-5.79.06-.78-.27-1.39-.76-1.87-1.41-1.1-2.01-1.84-4.42-4.83-4.34-.83-.04-1.63-.15-2.45-.27-4.19.31-4.05-4.1-6.38-5.82Z"/>
      <path class="uuid-dfc7ab85-cf5e-4746-a1fe-dc8eb44016d0" d="M126.17,9.42c-1.23,0-2.46,0-3.69-.01,1.24-1.83,2.46-1.83,3.69.01Z"/>
      <path class="uuid-1ad7779b-3d13-48a4-8c53-11c655ac0c70" d="M25.92,75.22c-.63-.38-1.25-.76-1.88-1.13.63.38,1.25.76,1.88,1.13Z"/>
      <path class="uuid-d8267a52-7150-4abd-98a0-bd07846aa296" d="M13.13,99.69c.61.58,1.21,1.15,1.82,1.73-.58.02-1.17,0-1.75-.08-.05-.55-.07-1.1-.07-1.65Z"/>
      <path class="uuid-7a48d6ae-a4ab-47b0-843f-dc0c5e6440f3" d="M16.84,108.91c.62-1.06,1.22-.98,1.8.04-.6,0-1.2-.02-1.8-.04Z"/>
      <path class="uuid-996c8026-aed8-4bd9-b640-32de287f9b1a" d="M217.76,69.3c-1.81-.04-3.63-.09-5.44-.13.29-3.38,2.54-4.06,5.19-3.25,2.02.62,1.69,2.12.26,3.38Z"/>
      <path class="uuid-ec63ff23-fa91-4ee5-84c0-cc4b73c5b7bf" d="M52.41,33.41c0-2.45-.02-4.91-.03-7.36,1.13-.88,2.27-1.77,3.52-2.75,3.37,4.21,2.09,8.08-.07,12.37-1.21-.8-2.32-1.53-3.43-2.27Z"/>
      <path class="uuid-6a1067f5-d8f4-42ed-be64-74c6f48edc6a" d="M83.73,55.66c-1.83-.05-3.66-.1-5.49-.14,0-.6.01-1.2.04-1.8,2.02.07,4.2-.31,5.45,1.94Z"/>
      <path class="uuid-b0754df1-7cc4-4c7a-a3ba-ba256c1526b5" d="M134.84,93.31c-.68-4.5.68-8.71,1.86-12.95,4.43,8.76,4.14,10.78-1.86,12.95Z"/>
      <path class="uuid-221cfbd6-3745-4e2c-92e8-5330ea2b679e" d="M166.89,54.05c-.25-.31-.5-.61-1.01-1.25.62.54.93.81,1.23,1.07,0,0-.22.18-.22.18Z"/>
      <path class="uuid-8ffcb7e4-35f3-4a1f-a377-8725f101616c" d="M172.12,46.26c.62-.55,1.25-1.09,1.87-1.63.04.41,0,.82-.15,1.2-.53.33-1.1.48-1.73.43Z"/>
      <path class="uuid-73e5892f-23e9-4274-bcb7-0b4be2d0ddba" d="M118.12,105.4c-.55.51-1.1,1.03-1.64,1.54.55-.51,1.09-1.03,1.64-1.54Z"/>
      <path class="uuid-4e71b6f0-6e7f-402a-8366-c644f5d3a35c" d="M144.61,13.11c-.62-.61-1.25-1.22-1.87-1.83.62.61,1.25,1.22,1.87,1.83Z"/>
      <path class="uuid-cd0468c7-310e-4e69-92d7-7ef002121756" d="M193.82,80.33c2.6-.02,4.41,1.22,5.57,3.5.17,1.65-.71,2.79-1.81,3.84-1.3-.58-2.6-1.16-3.91-1.75-.72.23-.98.71-.75,1.42.06.19.4.26.85.26-5.89,7.76-10.06,1.04-14.69-1.76,1.13-1.3,2.94-1.91,3.67-3.61-1.44-3.16-7.51-.46-7.26-5.75.93-.7,1.97-1.04,3.26-.96.98-.72-.73-1.83.25-2.54,3.6.27,6.95-.38,9.31-3.53,3.12,3.75,1.95,8.48,5.5,10.86h0Z"/>
      <path class="uuid-cd0468c7-310e-4e69-92d7-7ef002121756" d="M201.18,84.03c3.77,1.07,9.21-2.86,11.13,3.73l.02-.02c-2.49,1.23-4.97,2.46-7.46,3.69-1.59.36-2.22-.22-1.82-1.84-.65-.65-1.29-1.3-1.94-1.95-.99-1.22-.98-2.43.07-3.61Z"/>
      <path class="uuid-273f27b3-021c-422f-8244-11231534257e" d="M203.05,89.59c.61.61,1.22,1.23,1.82,1.84-1.66,5.64-4.1,3.66-6.71,1,.43-3.54,2.98-2.59,4.89-2.84Z"/>
      <path class="uuid-c9e07e1a-6cde-400e-b5c2-19145e92b76a" d="M212.31,87.75c2.14.42,4.91-1.22,6.6,2.37-3.23,1.42-5.75,2.23-6.58-2.38,0,0-.02.02-.02.02Z"/>
      <path class="uuid-bd0cccfc-596c-4c2b-b904-403dede7d564" d="M202,79.82c1.39-3.51,3.19-2.06,4.97-.96-1.28,2.78-2.85,3.09-4.97.96Z"/>
      <path class="uuid-7286fcef-c1b7-4101-801c-f7bda1c4510f" d="M213.44,81.02c2.72-.94,4.28-.78,5.66.91-2.41,2.58-3.76.85-5.66-.91Z"/>
      <path class="uuid-b329cddc-a839-43e6-9798-b1393ae50656" d="M208.63,73.32c2.69-.18,4.07-.28,5.64-.38-1.03,2.53-2.14,3.86-5.64.38Z"/>
      <path class="uuid-96bdf403-7def-4e85-b535-0dfcd0c3336d" d="M197.78,74.78c1.52-1.94,2.68-2.07,4.01-.85-.71,1.96-1.73,2.82-4.01.85Z"/>
      <path class="uuid-bd263874-317c-43c0-8728-79c8257e836c" d="M179.01,72.99c.73.87,1.46,1.74,2.26,2.69-1.81,1.86-3.91.56-5.78.81,1.17-1.17,2.35-2.33,3.52-3.5Z"/>
      <path class="uuid-98ed5bce-ff34-489c-bdd7-379461ede831" d="M193.77,87.61c-1.23.57-2.46,1.13-4.53,2.09.67-3.38,2.49-3.65,4.43-3.77.06.56.09,1.12.1,1.69Z"/>
      <path class="uuid-f00f65f5-226c-403f-a78a-575cc7c798e7" d="M201.18,84.03c-.02,1.2-.05,2.41-.07,3.61-1.18.01-2.35.02-3.52.03.6-1.28,1.21-2.56,1.81-3.84.59.11,1.19.17,1.79.19Z"/>
      <path class="uuid-011a1e2a-7b85-4696-8890-bdafb12f52ac" d="M182.76,82.24c.24.99.48,1.99.87,3.61h-4.54s0,0,0,0c-1.22-2.18.86-2.65,1.9-3.65.59.02,1.18.04,1.77.04Z"/>
      <path class="uuid-cd0468c7-310e-4e69-92d7-7ef002121756" d="M180.99,82.2c-.63,1.22-1.27,2.44-1.9,3.65-.46-.68-.92-1.36-1.72-2.55,1.5-.46,2.56-.78,3.62-1.11Z"/>
      <path class="uuid-7beb1457-7b17-420a-85ee-6eaa3642469f" d="M118.79,16.88c-.85-.26-1.69-.51-2.38-.72-1.09-1.41-.52-2.31.54-3.1,1.59.29,3.17.58,4.63.84.22,2.71-1.49,2.61-2.79,2.98Z"/>
      <path class="uuid-fe365611-8921-4401-b5ee-ad27c30af21c" d="M122.46,24.23c2.47,1.22,4.95,2.43,7.42,3.65-.18.38-.36.77-.54,1.16-3.44,2.39-6.46,1.34-9.32-1.13-.58-1.28-.55-2.52.17-3.74.77-.6,1.53-.55,2.27.07Z"/>
      <path class="uuid-6c45c3c3-4e37-40b7-acf9-4504caf5329c" d="M120.68,20.48c1.47-1.99,3.36-2.24,5.89-1.26,0,2.81-2.13,2.84-4.07,3.08-1.98.77-2.24-.18-1.82-1.82Z"/>
      <path class="uuid-5f62481f-8db7-4813-bf9f-93c3ced75dc3" d="M137.29,24.26c-1.4-.33-3.09-.32-2.9-2.61,3.03-2.02,4.22-.59,4.6,2.45-.51.67-1.07.73-1.7.16Z"/>
      <path class="uuid-6e48fd0e-6aed-4c1f-a771-384c84a52e1c" d="M139.03,31.53c-.59.03-1.19.08-1.78.15-1.99,1.36-3.47.9-4.47-1.26-.17-.99.11-1.83.84-2.53,1.23-.05,2.46-.09,3.68-.14.63-.56,1.21-.48,1.75.14l-.02,3.64Z"/>
      <path class="uuid-15f3bc21-7803-48a3-8010-b4c4d5790887" d="M135.32,13.18c-1.1,1.55-1.7,4.07-4.6,2.38.19-3.56,2.94-1.93,4.6-2.4,0,0,0,.01,0,.01Z"/>
      <path class="uuid-73f424c1-f194-41ef-b618-407122ff42c9" d="M139.05,27.9c-.59-.01-1.17-.06-1.75-.14,0-1.16,0-2.33,0-3.49.56-.08,1.13-.14,1.7-.16,1.89,1.24,1.99,2.5.05,3.8Z"/>
      <path class="uuid-dfc7ab85-cf5e-4746-a1fe-dc8eb44016d0" d="M120.68,20.48c.61.61,1.21,1.21,1.82,1.82-.01.64-.02,1.28-.04,1.93-.61.02-1.22.04-1.83.08-.83.49-1.61.42-2.33-.22-.62-1.31-.56-2.53.51-3.6.63,0,1.25,0,1.88,0Z"/>
      <path class="uuid-a61686d8-b791-4eb5-9502-bd75bf911158" d="M133.62,27.89c-.06.61-.11,1.23-.17,1.84-.85,1.29-1.5,2.97-3.58,1.83h0c-1.1-1.23-1.04-2.46,0-3.69,0,0,.01,0,.01,0,1.25,0,2.49.01,3.74.02Z"/>
      <path class="uuid-3fcf4af5-2584-4147-b28f-89a1dc9090a7" d="M129.87,27.87c0,1.23,0,2.46,0,3.69-2.5,1.21-5,2.42-7.49,3.63-.95-1.14-2.13-1.8-3.65-1.76-2.44-1.1-4.01-3.88-7.12-3.7-2.05-.06-4.07,0-5.55,1.75h-4.63c.32-1.6.53-2.65.74-3.7-1.23-1.63-3.37-1.61-4.89-2.71-.22-.31-.44-.62-.66-.94,2.53-5.63-4.18-2.46-4.68-4.61-1.14-3.32.47-4.25,2.89-4.56h0c0-.62-.01-1.25-.02-1.88.6-1.21,1.2-2.42,1.79-3.62,4.26-2.35,3.3,5.97,7.52,3.69.57.79,1.14,1.6,1.7,0,1.63.26,3.26.53,5.08.82.21,2.43.38,4.39.55,6.36.5,1.74,1.18.62,1.82.11,1.86-1.98,3.67.62,5.52.06,0,1.19.02,2.37.03,3.56-.36,1.7.64,2.73,1.79,3.69,3.09-.43,6.14,2.15,9.25.13Z"/>
      <path class="uuid-3fcf4af5-2584-4147-b28f-89a1dc9090a7" d="M87.48,29.68c.3-1.62.6-3.24.94-5.11,3.07-.17,5.64-.3,8.2-.44,0,0,.05.05.05.05,1.01,1.03,2.96,1.56,1.89,3.66-3.7.61-7.39,1.23-11.09,1.84Z"/>
      <path class="uuid-d95f6817-6e40-4ee4-b7ca-fd6a4f69797e" d="M129.87,31.56c1.2-.61,2.39-1.22,3.58-1.83,1.27.65,2.53,1.3,3.8,1.95-2.57,6.33-4.94,1.17-7.38-.12Z"/>
      <path class="uuid-8c556432-ce10-49ab-9000-dc88dad0c7f4" d="M106.06,31.48c.7-4.24,2.62-4.61,5.55-1.75-.18.56-.27,1.13-.28,1.72h0c-1.75.01-3.51.02-5.26.02Z"/>
      <path class="uuid-c074fd89-7173-4153-8974-2989cca6696e" d="M98.57,27.84c-.63-1.22-1.26-2.44-1.89-3.66,2.67-.08,5.32-.13,5.5,3.6-1.2.02-2.4.04-3.6.06Z"/>
      <path class="uuid-379a5154-a723-4fdb-abbf-b03579da1720" d="M118.73,33.43c.67-.49,1.34-.99,2.57-1.9.45,1.54.77,2.6,1.08,3.66-.56,0-1.12.01-1.68.04-.59-.65-1.19-1.28-1.91-1.77,0,0-.06-.03-.06-.03Z"/>
      <path class="uuid-3fcf4af5-2584-4147-b28f-89a1dc9090a7" d="M118.79,33.46c.64.59,1.27,1.18,1.91,1.77-.64-.59-1.27-1.18-1.91-1.77Z"/>
      <path class="uuid-3fcf4af5-2584-4147-b28f-89a1dc9090a7" d="M113.27,33.41c.25.14.49.27.74.41-.25-.14-.49-.27-.74-.41h0Z"/>
      <path class="uuid-3fcf4af5-2584-4147-b28f-89a1dc9090a7" d="M111.33,31.46c.65.65,1.3,1.3,1.94,1.95h0c-.65-.65-1.3-1.29-1.95-1.94,0,0,0,0,0,0Z"/>
      <path class="uuid-e58d2f66-7006-409f-9917-1d12e0118315" d="M70.85,18.65c-.24-.14-.49-.27-.73-.41.25.13.5.27.74.4,0,0,0,0,0,0Z"/>
      <path class="uuid-1944d0ce-40d8-4a94-ba5a-ef018abce0a5" d="M77.65,90.47c-.57.01-1.15.02-1.72.03-1.53-.05-2.74.6-3.71,1.75-1.31-.61-2.62-1.22-3.93-1.82-1.25-1.27-2.48-.93-3.68.08-1.21-.27-2.43-2.02-3.61.03-1.21,1.01-2.41,1.09-3.62,0-.01-.63-.03-1.25-.04-1.88.69-1.67,1.63-2.85,3.67-1.88,2.59-.23,5.49.8,7.45-1.9,1.22-1.02,2.43-1.09,3.64.04,1.3,2.4,5.83,1.57,5.56,5.56Z"/>
      <path class="uuid-1944d0ce-40d8-4a94-ba5a-ef018abce0a5" d="M55.52,88.59c-3.99-.66-.91-3.74-1.87-5.44-.05-1.55.72-2.71,1.8-3.71,1.42.14,2.84.29,4.71.48.29,1.81.55,3.46.81,5.11-1.69,1.38-4.06,1.74-5.46,3.57Z"/>
      <path class="uuid-d36c2d91-0164-4776-aab7-6681f92ce074" d="M83.17,94.19c-2.33-.14-3.59-1.31-3.62-3.7,1.99-.42,3.98-.84,5.96-1.25,1.72,3.12-.73,3.82-2.34,4.96Z"/>
      <path class="uuid-ffed33b3-1ab9-4396-b79f-b575e7c72d4b" d="M57.38,90.53c1.21,0,2.41,0,3.62,0-.27,2.47-.78,4.73-4.01,4.73-2.09-1.79.07-3.19.39-4.73Z"/>
      <path class="uuid-47a6e222-93ba-4a97-a559-ed06e8951e7e" d="M72.09,97.82c-2.45-.43-5.18-.4-6.26-4.08,3.71-.6,5.79.43,6.25,4.09,0,0,0,0,0,0Z"/>
      <path class="uuid-6e8c8b8b-5adb-4791-a83d-c5105cba3a6f" d="M68.5,77.22c-2.22,2.25-3.44,2.28-4.76.92.66-3.22,2.22-2.09,4.76-.92Z"/>
      <path class="uuid-341f9ee2-5d09-436b-80dc-d7e70435f238" d="M51.83,90.09c-2.2,2.27-3.41,2.27-4.71.91.66-3.23,2.21-2.08,4.71-.91Z"/>
      <path class="uuid-cdd4144e-5110-4e06-9131-bf8c9886a6f1" d="M55.46,79.43c-.6,1.24-1.2,2.48-1.8,3.71-1.21-.69-2.56-1.28-2.25-3.48,1.31-.08,2.68-.16,4.05-.24Z"/>
      <path class="uuid-e625bab8-2801-489c-bd98-eb8efd50c27c" d="M72.09,84.91c-1.21-.01-2.42-.02-3.64-.03.11-1.95.79-3.4,2.91-3.54,2.36.9,1.04,2.32.73,3.57Z"/>
      <path class="uuid-74e07233-1b77-4464-ad8b-787ccb3da35d" d="M47.39,81.95c-1.19,1.11-2.35,1.55-3.52.02.35-1.95,1.7-1.83,3.06-1.97.22.91.34,1.43.46,1.95Z"/>
      <path class="uuid-3661a085-fc2d-4338-88ff-06001c037fd3" d="M55.52,88.59c.17-3.72,2.77-3.71,5.46-3.57.02.59.03,1.17.03,1.75-1.22.63-2.44,1.25-3.67,1.88-.61-.03-1.21-.05-1.82-.06Z"/>
      <path class="uuid-011a1e2a-7b85-4696-8890-bdafb12f52ac" d="M76.5,78.06c.33-2.5,1.59-2.62,3.48-1.54-.5,2.1-1.45,2.93-3.48,1.54Z"/>
      <path class="uuid-bcb879ac-0dec-4ef7-9b49-85ecb39e40ec" d="M72.22,92.25c.19-.87.38-1.74.54-2.44,1.52-1.05,2.41-.41,3.17.69-.1.57-.16,1.14-.18,1.72-1.18,0-2.35.02-3.53.03Z"/>
      <path class="uuid-d28fee54-a81b-4e03-8d03-188923883bdd" d="M80.27,83.8c1.52-1.9,2.51-1.89,3.58-.48-.58,2.13-1.79,1.83-3.58.48Z"/>
      <path class="uuid-15a13c93-c4e4-4523-8d21-4bd9c52c14a9" d="M64.61,90.5c1.19-1.87,2.41-2.13,3.68-.08-1.23.03-2.46.05-3.68.08Z"/>
      <path class="uuid-a8d75711-91d4-40cd-b6a1-1a713b314183" d="M113.28,20.43c-.72,4.35-3.23,4.2-6.4,2.63.16-3.44,2.86-2.23,4.58-2.74.6.09,1.21.12,1.82.11Z"/>
      <path class="uuid-41974c03-b729-48eb-ac64-ccd03312c1c4" d="M105.83,13.14c.55,1.23,1.09,2.47,1.97,4.46-3.45-.6-3.64-2.47-3.67-4.46.57,0,1.13,0,1.7,0Z"/>
      <path class="uuid-7286fcef-c1b7-4101-801c-f7bda1c4510f" d="M193.82,80.33c-.88,2.03-2.01,3.39-4.45,1.85.88-2.87,2.98-1.47,4.45-1.84,0,0,0,0,0,0Z"/>
      <path class="uuid-60b11f7e-7b16-4486-a35f-ab392c7ba767" d="M205.58,86.72c.85-.13,1.27-.2,0,0,1.25.18.84.12,0,0Z"/>
      <path class="uuid-e268711d-73f2-4d2b-9bc0-f22127f68e27" d="M120.62,27.74c-1.62-.08-3.44.57-4.58-1.35-.16-2.05,1.53-1.94,2.79-2.34.6.08,1.2.17,1.79.26,0,1.15,0,2.29,0,3.44Z"/>
      <path class="uuid-a0927a49-858a-466c-a167-3b0fd1c1dbe3" d="M94.84,14.97c1.38.09,2.76.17,6.28.4-4.08,3-5.62,3.69-6.28-.4,0,0,0,0,0,0Z"/>
    </g>
  </g>
</svg>