<?xml version="1.0" encoding="UTF-8"?>
<svg id="uuid-2fbf4139-71e0-492a-befe-77cab674d24c" data-name="Layer 2" xmlns="http://www.w3.org/2000/svg" viewBox="0 0 291.5 136.5">
  <defs>
    <style>
      .uuid-89a17951-403f-4ee2-8f59-ab932eebf506 {
        fill: #944a31;
      }

      .uuid-89a17951-403f-4ee2-8f59-ab932eebf506, .uuid-a0ca25e2-00fe-4b3f-92fa-86461924deaf, .uuid-389db32b-3561-48bd-9095-baaf2580655d, .uuid-5e5c42b4-f0a1-43f2-91a5-39bf250c86c0, .uuid-ea4b8434-a3c2-4386-bb24-09b85914d00f, .uuid-25ebf4b2-a7a1-4445-ab03-f351610741e4, .uuid-0f25dcd8-6764-43f7-a965-bd73334e42bc, .uuid-1c47e25e-1a5f-4c41-8818-39285b5db87e, .uuid-38e85a44-94e2-47f2-be46-b7bd90991d23, .uuid-fecee129-d9d4-4a00-b5d8-35569d9a09de, .uuid-27a5d409-fda0-4b92-a8f5-be15666f1586, .uuid-8fa06002-152e-49c4-888c-3922f83bec93, .uuid-4c38de49-ab55-47f8-87db-a738724e0c61, .uuid-c0e074ec-0681-4cdd-8b9b-5a12f21caba6, .uuid-0d8dc733-1399-43d2-9521-294183dd0cc0, .uuid-48d32704-8b8a-40a0-b268-a9c8f0b3e85d, .uuid-777f8be6-cd77-4e6a-91e1-8256955d34b2, .uuid-50b97cef-054a-4be6-943a-8acb2f5b1b06, .uuid-1e76e360-75f5-48cd-9019-6ea121d793d6, .uuid-332bcf02-b3e1-476f-aae6-250bcfba8903, .uuid-37dff8f9-ed81-40f0-9200-7e3f6c4be9d9, .uuid-ac444a8c-aa92-49c0-b646-b194d04132bb, .uuid-13c6073f-58b3-45c3-9b67-59693c6525f4, .uuid-8db6af53-10a2-4050-ab86-96ced89dd5b0, .uuid-9b3b520e-9ffe-45c5-b432-b25f7e565e53, .uuid-8da9554b-19ee-4c0f-ba35-4cc7d9115746, .uuid-314d84e6-2096-442e-9f17-0812320d00e1, .uuid-1519221a-3c1f-4aac-aa37-0a8375736abf, .uuid-e8a44447-d66d-4aa7-ac0b-1e910566522f, .uuid-09c5ab8f-e4c2-43b5-a9b4-66afc1cce6b4, .uuid-53cecdd3-389b-4577-9044-1d808898900b, .uuid-c8a55bfe-4216-4cb3-a55c-018d9de73a43, .uuid-6cba3f5a-ee51-4595-bb42-980e4d03edd4, .uuid-1920390e-598f-4998-8b93-ee7a33a41fd7, .uuid-4320362e-bffa-463d-9472-468a6cf63014, .uuid-d6e1d3fd-8348-40ed-8c05-65c455586be9, .uuid-bb62c5b8-b6ea-4e54-b741-d30952ef576c, .uuid-f0d889d2-3a8e-4213-9969-be9e352d41e3, .uuid-e1a9252b-627d-420b-a41c-606032f424c1, .uuid-0aa54c43-acf0-4e09-9c8a-9935e159202d, .uuid-23e82116-9406-4861-bad0-1e646a859133, .uuid-e6473f53-620f-4ab3-a318-1c46ee1d6aed, .uuid-64531948-ae20-41c9-b9c2-5c25c88bd440, .uuid-c3b44b7c-d50b-495a-ad4d-30b707e5d073, .uuid-eddb91d7-dd2a-47ec-b5bc-d4f4a3ecbef6, .uuid-d07cb611-6bc0-42a9-b482-da1403837608, .uuid-f42d615e-d433-44a4-a8ff-67f1d4079686, .uuid-e53824ba-5524-49c8-b721-f4b29afc3d90, .uuid-e2fc3619-9087-4a57-b0d3-ba2e8080d5a9, .uuid-0be5a8ef-30c2-43d1-9681-8b26032b4134, .uuid-7f2a28e5-d10d-48e8-b30a-cdb3c134ee00, .uuid-cf6260c9-5cde-40af-a7ff-8afb432c9bdf, .uuid-e6f81f27-2afa-42e8-8c27-16b4b70cc8d3, .uuid-8a5dc957-2772-4a4c-9703-9fa89d8e11f5, .uuid-1165033c-6121-44d7-a2ff-17857f4b3097, .uuid-774b7cbf-b9ef-44b0-bf4e-9271fb56036a, .uuid-602034a6-2c24-41e0-a216-34c86bf8c68c, .uuid-808e86e9-5f64-4e20-b1f7-0f6f3a1649cb, .uuid-1cd1793b-f405-4856-a1ad-7acd8b61efa3, .uuid-84f35435-8151-4fdd-a677-79b98ff08990, .uuid-e2e61cba-a718-41f3-a753-a69336837cb3, .uuid-bebaf55d-45c8-4f26-acec-18062dab2eb8, .uuid-7120668e-618f-448e-a2c3-70d98d408dc0, .uuid-69cec689-a858-4b27-b7c3-2532c058a6ee, .uuid-4719787d-6a6a-47a8-ad0c-9db45ba93978, .uuid-fd34567e-52f3-4fec-b9c9-3c8dd8a7e43b, .uuid-e9e6b5a5-8ca2-4aea-8942-104c361223c5, .uuid-56eac865-067f-4aa1-907e-58d1a6856f52, .uuid-2cdef19a-1ee8-492f-84ae-240a29360439, .uuid-9cac31c9-4b56-473c-a670-cdac144e60e8, .uuid-1700cc32-ab28-4438-aced-b9aecba5a699, .uuid-15b0aae6-1b1f-4a83-95e4-c9c1ad5d5b97, .uuid-09986bde-8c4c-407a-a526-fed4f82e7561, .uuid-00c604dd-a789-4b94-8501-bfa414d95a27, .uuid-51384ad1-198a-4f67-b937-66a40d5d2722, .uuid-637a311c-271d-4cd5-9048-772acef7a6e2, .uuid-405bee53-764a-4c28-b810-9d168bd2a537, .uuid-37086b38-8efc-47ee-b6c3-98eda9f7127d, .uuid-c2a74010-9885-4f68-8fb2-b17f57a8bc5a, .uuid-b68eb9a5-b9e4-42be-bd6d-26f6f1d645dd, .uuid-2b85fdcb-ea11-4bb4-8563-09a82f083767, .uuid-8271a026-dec3-4500-b7c2-0b21261b72c2, .uuid-193aa266-7a41-4157-b989-c582495d0def, .uuid-44861b76-0c3f-4b78-bd98-799d0c0dd3f6, .uuid-9af4bc1f-a359-493a-b7e4-389337389228, .uuid-b7e3b5c2-0889-425a-b307-d0d63c5dbe03, .uuid-90a4a979-7a1d-4564-aaae-4330349b7adf, .uuid-68ffc86b-1445-4381-a297-26e2b8983c91, .uuid-1379c47b-583b-4cf1-acd2-e319b9744074, .uuid-27998b93-c939-4746-9f23-c7657fc92ccc, .uuid-0380b370-a539-4172-a9bc-ca2e4c82947b, .uuid-719b4793-035b-434b-9b10-a86791ecb884, .uuid-f7d8956d-ec1f-47e0-a4d5-0fe2c80e03e9, .uuid-d278b6a2-0f38-48df-a6d8-c30c4df79b47, .uuid-8b36853f-feb6-4967-8c11-ea1e2aa0277d, .uuid-e72a6443-1eee-4ec0-9286-29386dc9bf68, .uuid-3ebaed99-69c0-4f55-84c5-438217df2815, .uuid-628c19dc-8056-4937-80f5-15cf06c632b3, .uuid-2aff741f-d9d5-4c0f-bb69-3e5dea1b0522, .uuid-6e56405c-a148-4c53-84b1-20adb2afdfcf, .uuid-b555bc58-89c1-45d9-aedb-216b32678cd4, .uuid-13d50bd8-4152-4cd7-98a8-c9ee1bd03784, .uuid-21fb1e02-7164-4eca-b472-75f169f724fe, .uuid-5f02a7af-f9ea-4666-aeb9-ef405a2098b6, .uuid-3f34568d-ba14-4d58-915a-acd18dae1315, .uuid-5f69dc26-903c-427d-b1d3-fe57c4d69bdf, .uuid-8f497315-8003-4aee-bd89-8842486bfa3e, .uuid-67cd2f14-fa2b-4b26-820f-6a892d658ce4, .uuid-0fda21d7-699c-4be0-bc36-aee4415d461e, .uuid-1477d553-e029-4301-9261-c8c5173acf83, .uuid-b391ca95-67d0-448c-837f-4889c60d0b23, .uuid-6d1a6374-896a-4efb-bae3-18af0aef4f63, .uuid-a96aa016-9246-4e4a-89cd-38dd2c8d15f8, .uuid-a57c8a95-3e97-4b34-942b-4d0b5a5b9e54, .uuid-38bd584e-9fd6-484d-b4df-ed06954dc914, .uuid-284689d8-0efe-4f80-a7c5-41d13afb9e8c, .uuid-525654bb-1309-4ec0-a43a-544955ddd647, .uuid-71f067b2-6649-48b5-a1f8-81a92806dfe9, .uuid-b1fc0d6d-7750-4273-8ea6-75b0b51dba70, .uuid-d8bd922c-8683-4569-9fb8-892d1391f6f6, .uuid-70c0b738-ef64-4e28-80b1-2c6b928ff2b2, .uuid-f86726a2-4c08-4129-ad69-a4f70ed7d075, .uuid-32d54eae-8b9c-437a-9cd4-3cf245eaa49f, .uuid-b9fb71ef-81aa-46b7-a6b5-410e21a17904, .uuid-fff34cb4-5f2b-446c-827e-0f2cf6892e55, .uuid-f8ddbdb0-2831-4ce5-bbf2-8c2c9414d3de, .uuid-266df901-9632-4c21-9e67-35c1c1164c69, .uuid-97bd9b2e-6376-4c37-aec1-ecf1506902bf, .uuid-0817dc21-0568-48dd-b0ba-7d832d760d1c, .uuid-a46f6f09-74d2-4cb3-a4a2-df2e0e170ec1, .uuid-a6229349-b9a1-48e7-ac1f-03bec42ace88, .uuid-96496116-d483-4f79-bd85-2f53edb74468, .uuid-85254f2b-ada5-4ddd-a9f9-7426e4df27ae {
        stroke-width: 0px;
      }

      .uuid-a0ca25e2-00fe-4b3f-92fa-86461924deaf {
        fill: #360800;
      }

      .uuid-389db32b-3561-48bd-9095-baaf2580655d {
        fill: #6c3023;
      }

      .uuid-5e5c42b4-f0a1-43f2-91a5-39bf250c86c0 {
        fill: #5c342c;
      }

      .uuid-ea4b8434-a3c2-4386-bb24-09b85914d00f {
        fill: #300602;
      }

      .uuid-25ebf4b2-a7a1-4445-ab03-f351610741e4 {
        fill: #924b31;
      }

      .uuid-0f25dcd8-6764-43f7-a965-bd73334e42bc {
        fill: #894126;
      }

      .uuid-1c47e25e-1a5f-4c41-8818-39285b5db87e {
        fill: #983c30;
      }

      .uuid-38e85a44-94e2-47f2-be46-b7bd90991d23 {
        fill: #441810;
      }

      .uuid-fecee129-d9d4-4a00-b5d8-35569d9a09de {
        fill: #330b06;
      }

      .uuid-27a5d409-fda0-4b92-a8f5-be15666f1586 {
        fill: #43140d;
      }

      .uuid-8fa06002-152e-49c4-888c-3922f83bec93 {
        fill: #300904;
      }

      .uuid-4c38de49-ab55-47f8-87db-a738724e0c61 {
        fill: #461b18;
      }

      .uuid-c0e074ec-0681-4cdd-8b9b-5a12f21caba6 {
        fill: #752a14;
      }

      .uuid-0d8dc733-1399-43d2-9521-294183dd0cc0 {
        fill: #944b32;
      }

      .uuid-48d32704-8b8a-40a0-b268-a9c8f0b3e85d {
        fill: #834124;
      }

      .uuid-777f8be6-cd77-4e6a-91e1-8256955d34b2 {
        fill: #6b351b;
      }

      .uuid-50b97cef-054a-4be6-943a-8acb2f5b1b06 {
        fill: #57150f;
      }

      .uuid-1e76e360-75f5-48cd-9019-6ea121d793d6 {
        fill: #5a3b2f;
      }

      .uuid-332bcf02-b3e1-476f-aae6-250bcfba8903 {
        fill: #6a3428;
      }

      .uuid-37dff8f9-ed81-40f0-9200-7e3f6c4be9d9 {
        fill: #630700;
      }

      .uuid-ac444a8c-aa92-49c0-b646-b194d04132bb {
        fill: #380401;
      }

      .uuid-13c6073f-58b3-45c3-9b67-59693c6525f4 {
        fill: #5f3122;
      }

      .uuid-8db6af53-10a2-4050-ab86-96ced89dd5b0 {
        fill: #641503;
      }

      .uuid-9b3b520e-9ffe-45c5-b432-b25f7e565e53 {
        fill: #7c4324;
      }

      .uuid-8da9554b-19ee-4c0f-ba35-4cc7d9115746 {
        fill: #330c08;
      }

      .uuid-314d84e6-2096-442e-9f17-0812320d00e1 {
        fill: #924a31;
      }

      .uuid-1519221a-3c1f-4aac-aa37-0a8375736abf {
        fill: #612a15;
      }

      .uuid-e8a44447-d66d-4aa7-ac0b-1e910566522f {
        fill: #3a0703;
      }

      .uuid-09c5ab8f-e4c2-43b5-a9b4-66afc1cce6b4 {
        fill: #5c1805;
      }

      .uuid-53cecdd3-389b-4577-9044-1d808898900b {
        fill: #97402f;
      }

      .uuid-c8a55bfe-4216-4cb3-a55c-018d9de73a43 {
        fill: #390602;
      }

      .uuid-6cba3f5a-ee51-4595-bb42-980e4d03edd4 {
        fill: #5d2610;
      }

      .uuid-1920390e-598f-4998-8b93-ee7a33a41fd7 {
        fill: #6b0e04;
      }

      .uuid-4320362e-bffa-463d-9472-468a6cf63014 {
        fill: #3d0d02;
      }

      .uuid-d6e1d3fd-8348-40ed-8c05-65c455586be9 {
        fill: #3a0700;
      }

      .uuid-bb62c5b8-b6ea-4e54-b741-d30952ef576c {
        fill: #914830;
      }

      .uuid-f0d889d2-3a8e-4213-9969-be9e352d41e3 {
        fill: #77381d;
      }

      .uuid-e1a9252b-627d-420b-a41c-606032f424c1 {
        fill: #834022;
      }

      .uuid-0aa54c43-acf0-4e09-9c8a-9935e159202d {
        fill: #621600;
      }

      .uuid-23e82116-9406-4861-bad0-1e646a859133 {
        fill: #70210c;
      }

      .uuid-e6473f53-620f-4ab3-a318-1c46ee1d6aed {
        fill: #6f392d;
      }

      .uuid-64531948-ae20-41c9-b9c2-5c25c88bd440 {
        fill: #762a0c;
      }

      .uuid-c3b44b7c-d50b-495a-ad4d-30b707e5d073 {
        fill: #2f1711;
      }

      .uuid-eddb91d7-dd2a-47ec-b5bc-d4f4a3ecbef6 {
        fill: #5e1504;
      }

      .uuid-d07cb611-6bc0-42a9-b482-da1403837608 {
        fill: #270904;
      }

      .uuid-f42d615e-d433-44a4-a8ff-67f1d4079686 {
        fill: #561100;
      }

      .uuid-e53824ba-5524-49c8-b721-f4b29afc3d90 {
        fill: #6b1f05;
      }

      .uuid-e2fc3619-9087-4a57-b0d3-ba2e8080d5a9 {
        fill: #330b07;
      }

      .uuid-0be5a8ef-30c2-43d1-9681-8b26032b4134 {
        fill: #874123;
      }

      .uuid-7f2a28e5-d10d-48e8-b30a-cdb3c134ee00 {
        fill: #652e1a;
      }

      .uuid-cf6260c9-5cde-40af-a7ff-8afb432c9bdf {
        fill: #4e1f18;
      }

      .uuid-e6f81f27-2afa-42e8-8c27-16b4b70cc8d3 {
        fill: #681203;
      }

      .uuid-8a5dc957-2772-4a4c-9703-9fa89d8e11f5 {
        fill: #934a31;
      }

      .uuid-1165033c-6121-44d7-a2ff-17857f4b3097 {
        fill: #4b3632;
      }

      .uuid-774b7cbf-b9ef-44b0-bf4e-9271fb56036a {
        fill: #753b2a;
      }

      .uuid-602034a6-2c24-41e0-a216-34c86bf8c68c {
        fill: #884126;
      }

      .uuid-808e86e9-5f64-4e20-b1f7-0f6f3a1649cb {
        fill: #5f2403;
      }

      .uuid-1cd1793b-f405-4856-a1ad-7acd8b61efa3 {
        fill: #79280d;
      }

      .uuid-84f35435-8151-4fdd-a677-79b98ff08990 {
        fill: #3d0c00;
      }

      .uuid-e2e61cba-a718-41f3-a753-a69336837cb3 {
        fill: #662d24;
      }

      .uuid-bebaf55d-45c8-4f26-acec-18062dab2eb8 {
        fill: #814124;
      }

      .uuid-7120668e-618f-448e-a2c3-70d98d408dc0 {
        fill: #74250a;
      }

      .uuid-69cec689-a858-4b27-b7c3-2532c058a6ee {
        fill: #691703;
      }

      .uuid-4719787d-6a6a-47a8-ad0c-9db45ba93978 {
        fill: #663f36;
      }

      .uuid-fd34567e-52f3-4fec-b9c9-3c8dd8a7e43b {
        fill: #4e1203;
      }

      .uuid-e9e6b5a5-8ca2-4aea-8942-104c361223c5 {
        fill: #300f06;
      }

      .uuid-56eac865-067f-4aa1-907e-58d1a6856f52 {
        fill: #662d10;
      }

      .uuid-2cdef19a-1ee8-492f-84ae-240a29360439 {
        fill: #340b00;
      }

      .uuid-9cac31c9-4b56-473c-a670-cdac144e60e8 {
        fill: #6a1d0a;
      }

      .uuid-1700cc32-ab28-4438-aced-b9aecba5a699 {
        fill: #7a2b11;
      }

      .uuid-15b0aae6-1b1f-4a83-95e4-c9c1ad5d5b97 {
        fill: #6d2b25;
      }

      .uuid-09986bde-8c4c-407a-a526-fed4f82e7561 {
        fill: #702f11;
      }

      .uuid-00c604dd-a789-4b94-8501-bfa414d95a27 {
        fill: #5f1e15;
      }

      .uuid-51384ad1-198a-4f67-b937-66a40d5d2722 {
        fill: #6c321e;
      }

      .uuid-637a311c-271d-4cd5-9048-772acef7a6e2 {
        fill: #661502;
      }

      .uuid-405bee53-764a-4c28-b810-9d168bd2a537 {
        fill: #6a1805;
      }

      .uuid-37086b38-8efc-47ee-b6c3-98eda9f7127d {
        fill: #631a08;
      }

      .uuid-c2a74010-9885-4f68-8fb2-b17f57a8bc5a {
        fill: #320903;
      }

      .uuid-b68eb9a5-b9e4-42be-bd6d-26f6f1d645dd {
        fill: #340b06;
      }

      .uuid-2b85fdcb-ea11-4bb4-8563-09a82f083767 {
        fill: #934930;
      }

      .uuid-8271a026-dec3-4500-b7c2-0b21261b72c2 {
        fill: #814126;
      }

      .uuid-193aa266-7a41-4157-b989-c582495d0def {
        fill: #531f12;
      }

      .uuid-44861b76-0c3f-4b78-bd98-799d0c0dd3f6 {
        fill: #6f2f10;
      }

      .uuid-9af4bc1f-a359-493a-b7e4-389337389228 {
        fill: #894025;
      }

      .uuid-b7e3b5c2-0889-425a-b307-d0d63c5dbe03 {
        fill: #2e0000;
      }

      .uuid-90a4a979-7a1d-4564-aaae-4330349b7adf {
        fill: #944a32;
      }

      .uuid-68ffc86b-1445-4381-a297-26e2b8983c91 {
        fill: #883f26;
      }

      .uuid-1379c47b-583b-4cf1-acd2-e319b9744074 {
        fill: #651502;
      }

      .uuid-27998b93-c939-4746-9f23-c7657fc92ccc {
        fill: #552f1c;
      }

      .uuid-0380b370-a539-4172-a9bc-ca2e4c82947b {
        fill: #8c513c;
      }

      .uuid-719b4793-035b-434b-9b10-a86791ecb884 {
        fill: #541c0d;
      }

      .uuid-f7d8956d-ec1f-47e0-a4d5-0fe2c80e03e9 {
        fill: #752414;
      }

      .uuid-d278b6a2-0f38-48df-a6d8-c30c4df79b47 {
        fill: #5f2d1d;
      }

      .uuid-8b36853f-feb6-4967-8c11-ea1e2aa0277d {
        fill: #522620;
      }

      .uuid-e72a6443-1eee-4ec0-9286-29386dc9bf68 {
        fill: #874025;
      }

      .uuid-3ebaed99-69c0-4f55-84c5-438217df2815 {
        fill: #5f2f21;
      }

      .uuid-628c19dc-8056-4937-80f5-15cf06c632b3 {
        fill: #5c250e;
      }

      .uuid-2aff741f-d9d5-4c0f-bb69-3e5dea1b0522 {
        fill: #6a2f10;
      }

      .uuid-6e56405c-a148-4c53-84b1-20adb2afdfcf {
        fill: #571a05;
      }

      .uuid-b555bc58-89c1-45d9-aedb-216b32678cd4 {
        fill: #431611;
      }

      .uuid-13d50bd8-4152-4cd7-98a8-c9ee1bd03784 {
        fill: #2b0702;
      }

      .uuid-21fb1e02-7164-4eca-b472-75f169f724fe {
        fill: #350600;
      }

      .uuid-5f02a7af-f9ea-4666-aeb9-ef405a2098b6 {
        fill: #411f18;
      }

      .uuid-3f34568d-ba14-4d58-915a-acd18dae1315 {
        fill: #934a32;
      }

      .uuid-5f69dc26-903c-427d-b1d3-fe57c4d69bdf {
        fill: #320905;
      }

      .uuid-8f497315-8003-4aee-bd89-8842486bfa3e {
        fill: #94452f;
      }

      .uuid-67cd2f14-fa2b-4b26-820f-6a892d658ce4 {
        fill: #4a1714;
      }

      .uuid-0fda21d7-699c-4be0-bc36-aee4415d461e {
        fill: #954b32;
      }

      .uuid-1477d553-e029-4301-9261-c8c5173acf83 {
        fill: #7a3b2d;
      }

      .uuid-b391ca95-67d0-448c-837f-4889c60d0b23 {
        fill: #601703;
      }

      .uuid-6d1a6374-896a-4efb-bae3-18af0aef4f63 {
        fill: #2f130d;
      }

      .uuid-a96aa016-9246-4e4a-89cd-38dd2c8d15f8 {
        fill: #753724;
      }

      .uuid-a57c8a95-3e97-4b34-942b-4d0b5a5b9e54 {
        fill: #350500;
      }

      .uuid-38bd584e-9fd6-484d-b4df-ed06954dc914 {
        fill: #5b1905;
      }

      .uuid-284689d8-0efe-4f80-a7c5-41d13afb9e8c {
        fill: #562317;
      }

      .uuid-525654bb-1309-4ec0-a43a-544955ddd647 {
        fill: #874022;
      }

      .uuid-71f067b2-6649-48b5-a1f8-81a92806dfe9 {
        fill: #390600;
      }

      .uuid-b1fc0d6d-7750-4273-8ea6-75b0b51dba70 {
        fill: #7e4738;
      }

      .uuid-d8bd922c-8683-4569-9fb8-892d1391f6f6 {
        fill: #5d1201;
      }

      .uuid-70c0b738-ef64-4e28-80b1-2c6b928ff2b2 {
        fill: #894127;
      }

      .uuid-f86726a2-4c08-4129-ad69-a4f70ed7d075 {
        fill: #662e11;
      }

      .uuid-32d54eae-8b9c-437a-9cd4-3cf245eaa49f {
        fill: #561a0b;
      }

      .uuid-b9fb71ef-81aa-46b7-a6b5-410e21a17904 {
        fill: #250400;
      }

      .uuid-fff34cb4-5f2b-446c-827e-0f2cf6892e55 {
        fill: #954a32;
      }

      .uuid-f8ddbdb0-2831-4ce5-bbf2-8c2c9414d3de {
        fill: #7a3d23;
      }

      .uuid-266df901-9632-4c21-9e67-35c1c1164c69 {
        fill: #3a0300;
      }

      .uuid-97bd9b2e-6376-4c37-aec1-ecf1506902bf {
        fill: #6c220c;
      }

      .uuid-0817dc21-0568-48dd-b0ba-7d832d760d1c {
        fill: #652e19;
      }

      .uuid-a46f6f09-74d2-4cb3-a4a2-df2e0e170ec1 {
        fill: #672c1c;
      }

      .uuid-a6229349-b9a1-48e7-ac1f-03bec42ace88 {
        fill: #8c432c;
      }

      .uuid-96496116-d483-4f79-bd85-2f53edb74468 {
        fill: #682d1d;
      }

      .uuid-85254f2b-ada5-4ddd-a9f9-7426e4df27ae {
        fill: #5b2620;
      }
    </style>
  </defs>
  <g id="uuid-6a52f3e7-ddfa-4c8d-8815-d426588b72ac" data-name="Layer 2">
    <g id="uuid-1597f438-cdb4-4070-abca-466d50785a77" data-name="Meat">
      <path class="uuid-56eac865-067f-4aa1-907e-58d1a6856f52" d="M226.67,9.28c2.22-.45,4.11.31,5.85,1.61-.38.84-1.29,1.12-1.85,1.86.59.41,1.28-.1,1.89.17,5.53,1.42,10.91,2.97,10.67,10.33-.27,5.67,3.5,9.22,5.96,12.66,4.82,2.36,9.16-.26,13.18,1.31,2.19.86,3.71,2.35,4.4,4.63,1.07,5.9-4.39,7.07-7.74,9.79,1.67,7.34,6.84,12.21,10.28,18.05,2.79,4.85,5.95,9.74-.53,14.07-6.7,1.15-10.16-7.88-17.09-4.88-3.5.97-8.25.03-8.61,5.75-1.72,4.78-4.66,6.39-9.3,3.61-8.17-8.02-14.64-8.96-21.3-3.03-.17,1.69-.18,3.37-.59,5.02-.27.87-.7,1.65-1.26,2.36-1.13.88-2.42,1.2-3.82,1.16-.9-.12-1.76-.41-2.56-.85-1.41-1.09-2.45-2.51-3.58-3.86-4.61-7.01-11.64-5.64-18.34-5.19-2.86.19-3.11,2.51-3.19,4.78-.2,2.46-.68,4.77-2.94,6.22-2.44,1.08-4.64.55-6.7-.97q-7.66-9.16-27.57-6.73c2.02.15,2.84,1.55,3.4,3.24.54,3.32-.24,6.03-3.7,7.7-5.57.68-7.45-4.02-10.23-7.43-8.07-5.11-15.75-4.61-20.82,1.4-.31,3.22-1.52,5.75-4.95,6.57-3.58.12-5.03-2.76-7.03-4.84-5.96-4.9-15.35-4.71-21.55.48-1.07,2.7-2.79,4.61-7.07,5.05-5.03-2.57-10.08-7.51-17.06-8.61-2.01-.32-2.85-2.89-2.86-5.16-.03-2.94,2.97-4.56,3.42-7.32-2.06-4.27-4.05-8.36-7.54-11.29q-19.82-1.42-23.03-6.22c1.66-6.82,8.85-5.35,13-8.3,1.69-2.44-.15-4.04-1.2-5.79-.53-.64-1.01-1.31-1.49-1.98-3.48-5.17-9.43-.02-13.38-3.19-2.45-1.83-3.38-4.22-2.42-8,.44-2.93,5.29-3.13,6.02-6.75.05-.77.23-1.51.53-2.22.37-.53.87-.76,1.51-.66.49-.33,1.03-.57,1.61-.71.94-.03,1.68-.43,2.24-1.18l-.2-.12c.73-.3,1.49-.38,2.26-.2.73.29,1.37.71,1.94,1.25,1.29,1.39,2.33,3.05,4.12,3.93,6.11-.05,12.79,3.4,17.71-3.15.62-3.06,1.85-5.6,5.26-6.2,3.44-.04,5.13,2.57,7.2,4.56,5.82,4.93,12.36,3.23,18.44,2.52,1.88-2.17.67-3.94.55-5.69-.22-2.74.03-5.28,2.68-6.76,2.99-1.12,5.14.19,7.1,2.13,5.29,9.12,13.15,11.06,22.83,8.12,2.08-2.99-1.54-5.87-.09-8.91,6.8-6.21,7.75-5.89,20.04,7.26,5.82,1.62,11.67.71,17.27-2.21.15-.76.27-1.51.27-2.3-.04-.42-.05-.81-.09-1.22-.07-.87-.04-1.71.06-2.56,2.52-6.76,6.15-5.2,10.09-1.37,2.26,2.35,3.71,5.47,7.25,7.4,5.91-.17,12.83,1.67,16.95-5.67,2.39-1.99,4.88-1.55,7.41-.32.76.39,1.49.84,2.19,1.32.71.41,1.41.86,2.11,1.3,3.47,1.64,7.17.8,10.78.99,4.78.55,8.75-.74,11.4-5.03.62-.55,1.22-1.12,1.8-1.72Z"/>
      <path class="uuid-525654bb-1309-4ec0-a43a-544955ddd647" d="M51.53,84.85c.98,7.78,6.87,4.91,11.23,4.72,2.34,2.89,4.42,5.45,6.28,7.74,4.49.7,6.08-1.43,6.41-5.03,8.03-2.25,16.1,3.32,24.12-.14,1.89,1.75,3.79,3.49,5.51,5.08,3.88-1.29,3.55-4.15,3.63-6.82,8.2,2.02,16.27,2.25,23.99-1.88,3.18,2.13,2.94,7.54,8.1,8.12,3.5-.64,2.74-3.71,2.96-6.26,9.02-5.03,17.49-2.11,25.9,1.77,1.87.78,3.55,2.42,5.89,1.22,2.13-1.84,1.14-4.38,1.36-6.67,8.92,6.61,19.57,4.07,29.46,5.58,1.24-.02,2.49-.04,3.73-.06,7.71-3.27,15.89-4.51,24.11-5.62,1.33.59,2.66,1.18,3.54,1.57,3-1.04,3.6-2.97,3.76-5.18,3.27-2.03,7.43-1.44,10.64-3.61-.08-1-1.13-1.24-1.53-1.98,7.93-6.04,11.37,3.4,17.13,5.29,6.26-4.65.64-8.53-.48-12.58.12-.91.34-1.81.79-2.61q7.45-13.4-2.55-25.07l-3.76-3.75c-8.04-3.23-16.45-5.97-20.37-14.85,1.46-8.73-8.11-6.36-10.88-10.82.73-1.51,2.69-.7,3.58-1.91,1.95.56,3.9,1.11,5.85,1.67-.78.98-1.61,1.21-2.55.23,1,1.44,2.65.51,3.91,1.05,1.44,1.36,3.2,1.78,5.12,1.71,1.64.76,3.1,1.91,4.91,2.31.69.17,1.39.27,2.1.29.35-.01.71-.03,1.06-.04,1.26.62,2.52,1.24,3.79,1.86,0,0-.29.81-.28.81-.98.54-.96.49.13.29,1.2-.23-.38.08.85.08.49.57,1,.6,1.55.09l-.33.03c.2.96.41,1.89,1.58.71,2.42.33,4.29,1.57,5.79,3.45-.1,1.62,1.18,1.36,2.12,1.57l-.29-.09c.18,1.03,1.1,1.32,1.82,1.82.44.45.97.67,1.6.64,2.7.76,4.48,2.6,5.79,4.98,0,0,.24.79.24.78,0,0-.42.69-.42.69,0,0,.52.61.53.62.57.66,1.22,1.21,1.87,1.77.65.61,1.28,1.23,1.81,1.94.45.76.79,1.62,1.77,1.86l.02-.38c-.28.63-.19,1.19.27,1.7.17.24-.14.69.35.8,0,0,.83-.33.83-.33,1.02,1.96,2.03,3.92,3.05,5.88-.33.94-.51,1.89-.26,2.83,0-.05-.58.43-.58.43,0,0,.53.54.52.53.14-.57.51-.83,1.09-.77,2.56,8.19,2.28,16.39.05,24.6-.34-.27-.68-.54-1.02-.81-.21-1.26-.18-2.54-.18-3.81-.05-1.69.09-3.4-.07-5.1.09,1.94-.01,3.89.03,5.83,0,1.29,0,2.57,0,3.86,0,1.32.05,2.64-.44,3.9-5.48,8.09-12.76,14.41-20.52,20.79-4.41.77-9.23,1.27-13.79,2.94-3.77.55-6.89-1.66-10.59-2.5-4.3.23-8.31,2.5-12.7,3.33-18.04,3.23-36.19,4.88-54.5,6.05-23.76,1.51-47.54,1.42-71.29,2.48-8.25-2.02-16.43-4.84-25.07-2.01-12.53,1.91-22.9-5.48-34.38-8.12-2.01-.46-3.73-2.11-6-2.03-8.35.95-16.36,1.39-20.08-8.73-1.07-2.91-4.68-2.16-7.16-3-.88-.24-1.71-.6-2.5-1.05-2.19-1.68-3.34-4.12-4.62-6.46-.46-1.65-.15-3.44-.84-5.05-.19-.81-.27-1.63-.26-2.46,1.04-4.4-.52-8.6-1-12.88-.16-.74-.2-1.49-.18-2.23.07-.35.15-.71.21-1.06.46-1.06-.03-2.11-.09-3.17.18-.75.42-1.48.71-2.2.64-2.22,1.65-4.37,1.16-6.78-.04-1.19.32-2.34.33-3.53v.38c.7,0,1.18-.32,1.27-1.01.06-.42-.23-.65-.58-.65.23-2.49,1.53-4.28,3.62-5.56,0,0,.91-.02.91-.03.48-.39.92-.81,1.31-1.29.42-.46.85-.9,1.28-1.33.43-.43.86-.86,1.28-1.3.42-.42.85-.83,1.27-1.23.43-.37.85-.75,1.25-1.15-.01,0,.05-.84.05-.84,1.82-1.32,3.64-2.63,5.46-3.94,0,0,.71.33.71.33.15.49.24.99.27,1.5,0,0,.75-.11.75-.11,0,0-.73-.2-.73-.21-.02-.55.1-1.05.34-1.54,0,0,.8-.06.8-.06,1.88.42,3.42,1.13,2.94,3.72-1.23,3.39-5.83.69-6.84,3.1-2.85,3.26-1.17,5.6-.02,7.98,1.94,3.74-.73,7.14-.78,10.73-.07,5.4,1.32,10.24,5.29,14.09,1.92,1.46,4.2,1.24,6.27,1.39,8.88.65,14.94,4.79,17.73,13.47.55,1.71,1.44,3.39,2.8,4.7Z"/>
      <path class="uuid-f86726a2-4c08-4129-ad69-a4f70ed7d075" d="M38.65,99.57c8.27,2.6,16.78,4.63,24.71,8.02,5.24,2.24,10.27,3.41,15.81,3.08,3.12-1.38,6.23-1.39,9.33.04,1.3,1.77-1.45,3.1-.35,5.3,4.51-1.03,9.64,5.07,13.93-1.41.11-.83.49-1.51,1.09-2.07,12.21-4.3,24.77-.73,37.17-1.59,30.67-2.14,61.51-2.21,91.91-7.61.91.79,1.75,1.65,2.37,2.68,2.69,3.9,7.01.32,10.15,2.22.71.68.98,1.49.83,2.46-5.97,9.93-16.78,12.51-26.41,14.45-12.43,2.5-24.89,5.63-37.64,6.51-4.44.18-8.94-.39-13.27.58,3.16.89,7.06-.86,9.3,2.8-7.54,1.71-15.18,1.57-22.82,1.27-3.04-1.15-6.08-1.13-9.12-.01-8.81.17-17.64.78-26.33-1.35,1.39-2.29,3.71-1.97,5.82-2.09.66-.1,1.48.29,1.99-.42-6.01.88-12,.08-17.95.48-.81.12-1.61.28-2.4.5-1.29.04-2.41-.48-3.5-1.06-3.54-1.52-7.22-1.68-10.96-1.05-.74.34-1.43.79-2.06,1.32-1.98-.46-3.96-.91-5.94-1.37.5-.78,1.2-1.13,2.14-.98-.29,1.19,1.93.59,1.24.55-3.18-1.12-5.82-1.18-8.47-.04-1.58.32-3.05.25-4.12-1.21.75-1.22-.25-1.54-1.04-1.97-1.03-.14-1.98.24-2.98.37-.71-.13-1.4-.29-2.09-.49-2.58-.24-5.02-1.35-7.65-1.25-1.89-1.17-3.72-2.68-6.08-1.02-1.32-.48-2.64-.95-3.97-1.43.1-1.71-2.6-1.49-2.31-3.35-.16-5.48-5.85-7.18-7.81-11.47-1.38-3.02-5.3-5.29-2.51-9.41Z"/>
      <path class="uuid-0be5a8ef-30c2-43d1-9681-8b26032b4134" d="M66.31,23.93c-2.32-1.23-2.54-5.06-5.77-4.97-3.65,1.23-3.43,4.08-3.44,6.82-7.15,2.08-13.38-.35-19.38-3.96-.81-1.07-1.23-2.28-1.24-3.63,2.09-2.17,4.7-3.19,7.65-3.44,1.03,1.29,1.33.16,1.76-.54.68-.38,1.37-.75,2.05-1.13.55.17,1.43,1.65,1.41-.37,1.36-.51,2.72-1.01,4.08-1.52.57.16,1.44,1.55,1.52-.36,1.33-.49,2.66-.98,4-1.47.54.11,1.37,1.5,1.49-.32l5.85-1.64c.56.13,1.33,1.66,1.57-.24,4.77-2.27,9.85-3.11,15.07-3.35.97.8,2.14.91,3.29.75,1.21-.18,1.65-1.09.63-.41-1.02.68-.11-1.84-.55-.69,3.04-1.44,6.24-1.92,9.57-1.47,3.74,1.61,7.41.41,10.25.65-.65.69-2.08.33-3.46-1.11,4.37-1.71,8.92-1.63,13.49-1.31,1.62.94,3.54.75,5.24,1.38,8.29.29,16.58.48,24.87-.11,2.1-.99,4.58,0,6.62-1.29,5.85-.38,11.67-.32,17.38,1.22-2.93,2.48-5.98.92-9,1.26,7.04-.23,14.07.73,21.15-.59,2.72-.37,5.38-.3,7.81,1.22.02.77.34,1.38.96,1.85,1.96.49,3.9.41,5.84.06.7-.33,1.36-.74,1.96-1.25,2.63.44,5.26.89,7.89,1.33.83,2.42,2.08.71,3.2.32,2.17-.34,4.19-.09,5.93,1.41-.21.61-.06,1.1.46,1.48.54.3,1.07.3,1.61,0,.49-.29.92-.66,1.28-1.1,2.12-.25,4.14-.12,5.74,1.57.54.69,1.01,1.43,1.63,2.05-.99,2.19-1.97,4.38-3.3,7.32h-9.66c-4.79-1.61-9.95-1.77-14.66-3.69-2.47-.59-4.94-1.18-7.41-1.77-8.61-2.92-17.23-1.85-25.84-.03-1.82-.91-2.34-3.75-5.03-3.4-2.77.84-2.24,3.18-2.34,5.24-.82.65-1.68.72-2.6.24-17.95-5.77-35.93-9.01-54.03-.55-1.94.91-3.86,1.81-6.01,2.08-1.85-.87-2.44-3.66-5.24-3.29-3.33,1.44-1.84,4.53-2.13,7.04-8.39-4.77-15.52-2.04-22.16,3.69Z"/>
      <path class="uuid-628c19dc-8056-4937-80f5-15cf06c632b3" d="M180.64,129.14c19.84-3.72,40.51-4.13,58.64-14.78,2.47-1.45,4.58-2.97,5.88-5.52-.4-7.71,6.63-2.82,9.23-5.45,3.53-3.54,7.68-4.42,11.53-2.62,7.55-6.96,14.48-13.36,21.41-19.75,1.24.07,1.3,1.21,1.78,1.97-.42,3.4-.69,6.85-3.16,9.58,0,0-.88.04-.87.05,0,0-.24.84-.23.85s.61.63.61.63c-.97,3.57-2.61,6.73-5.53,9.12,0,0-.78-.07-.78-.05-.31.45-.65.87-1.02,1.27-.39.42-.77.82-1.17,1.22-.63.6-1.23,1.21-1.88,1.8-.77.62-1.42,1.33-2.09,2.02-.48.45-.94.91-1.38,1.38-.49.42-.78.96-.89,1.6-1.29,1.91-2.92,3.34-5.3,3.68l-.05.02c-3.08,2.96-6.87,4.43-10.97,5.27-.33-.39-.75-.6-1.25-.65,0,0-.58.41-.58.41,0,0,.15.69.15.69l-3.83,1.51c-.37-.41-.83-.69-1.36-.83,0,.01-.65.47-.63.47s.37.7.37.7c-3.48,2.11-7.29,3.09-11.32,3.35-.4-.39-.84-.73-1.31-1.02,0,0-.77-.18-.77-.18,0,0-.76.25-.75.25-.46.4-.58.88-.37,1.44-1.39.43-2.77.85-4.16,1.28-.62-.52-1.31-.93-2.05-1.25-4.49-.7-8.59,1.34-12.9,1.85-.64.46-.98,1.09-1.05,1.88-3.96,2.08-8.18,2.08-12.47,1.62-2.65,1.04-5.42.76-8.16.78-.92,0-1.82-.15-2.7-.43-2.76-1.6-7.9,1.74-8.6-4.15Z"/>
      <path class="uuid-6cba3f5a-ee51-4595-bb42-980e4d03edd4" d="M38.65,99.57c2.4,7.43,7.11,13,13.5,16.64,1.69,3.34-1.87,3.72-2.4,5.62.64.36.85.72.63,1.07-.21.35-.43.52-.65.52-1.32-.5-2.63-.99-3.95-1.49,0-2.13-.99-.47-1.56-.41-2.81-.45-5.53-1.12-7.57-3.33.05-1.92-.99-.61-1.61-.54-1.9-1.06-3.8-2.13-5.69-3.19h-.02c-2.55-.18-4.24-1.7-5.69-3.61-.24-2.13-1.85-3.08-3.48-3.99-.64-.37-1.26-.75-1.89-1.14-.8-.69-1.13-1.89-2.32-2.17l.19.25c-.19-.76-.28-1.52-.28-2.3.2-1.77.26-3.53-.87-5.06-.46-.45-.12-1.7-1.36-1.35.26.54.29,1.05.1,1.6-.19.61-.55,1.05-1.08,1.37,0,0-.89.22-.89.22l-.7-.58-.04-.06c-.61-.44-1.04-1-1.28-1.72-.59-.32-.84-.81-.75-1.48-.33-.82-.93-1.48-1.33-2.26-.24-.56-.49-1.12-.73-1.67.16-.28.31-.56.46-.84.55-.35,1.15-.52,1.81-.51.66.05,1.23-.16,1.7-.63h7.96c4.35,4.14,3.36,10.66,9.72,12.11,3.01-.32,6.54-.71,10.07-1.09Z"/>
      <path class="uuid-4c38de49-ab55-47f8-87db-a738724e0c61" d="M177.57,135.03h-15.45c.64-1.14.79-1.83,1.13-1.93.84-.26,1.76-.25,2.64-.35,7.97-3.79,15.94-.57,23.91.02l.05.06c.61.38.81.76.6,1.13-.21.37-.42.55-.63.55-4.09.18-8.17.36-12.26.54Z"/>
      <path class="uuid-85254f2b-ada5-4ddd-a9f9-7426e4df27ae" d="M5.41,75.7c-.08.7-.16,1.39-.24,2.09-.65.72-.73,1.94-1.95,2.14C.08,71.74-1.27,63.42,1.51,54.82c1.31.95,1.16,2.39,1.23,3.74.17,3.17.89,6.27,1.46,9.38,1.27,2.45.3,5.25,1.22,7.76Z"/>
      <path class="uuid-15b0aae6-1b1f-4a83-95e4-c9c1ad5d5b97" d="M182.42,2.08c-7.19,3.23-14.54,1.1-21.89.25,3.25-.31,6.49-.61,9.74-.92,4.05.22,8.1.45,12.15.67Z"/>
      <path class="uuid-cf6260c9-5cde-40af-a7ff-8afb432c9bdf" d="M90.24,132.62c.01-.58.04-1.15.07-1.73,4.9-1.26,9.79-1.37,14.67.08.65.65,1.31,1.31,1.96,1.96.39.34.52.68.38,1.02-.14.33-.27.5-.41.5-5.56-.61-11.12-1.21-16.67-1.82Z"/>
      <path class="uuid-1920390e-598f-4998-8b93-ee7a33a41fd7" d="M123.48.14c7.37,0,14.73,0,22.1.01.14.51.27,1.01.41,1.52-.43.3-.86.6-1.29.9-6.79.22-13.57.22-20.36,0-1.18-.5-1.46-1.31-.86-2.43Z"/>
      <path class="uuid-5f69dc26-903c-427d-b1d3-fe57c4d69bdf" d="M106.91,134.44c0-.5,0-1.01.03-1.51,0,0-.08-.11-.08-.11,6.29-1.86,12.71-.53,19.07-.8,1.34.31,1.65,1.06.93,2.23-2.52.23-5.04.46-7.56.69-4.13-.17-8.26-.33-12.39-.5Z"/>
      <path class="uuid-27a5d409-fda0-4b92-a8f5-be15666f1586" d="M228.57,127.39c-.03.48-.03.97,0,1.45-3.69.66-7.39,1.31-11.08,1.97-.61-.93-.52-1.79.27-2.57,3.41-2.75,7.07-2.34,10.81-.85Z"/>
      <path class="uuid-4719787d-6a6a-47a8-ad0c-9db45ba93978" d="M5.72,83.06c2.18,1.06,3.36,2.8,3.5,5.23,0,0-.05.86-.05.86-.58.18-1,.55-1.25,1.1-.3.22-.63.31-1,.28-1.91-2.17-2.96-4.7-3.15-7.58.7-.81,1.34-.82,1.94.11Z"/>
      <path class="uuid-0be5a8ef-30c2-43d1-9681-8b26032b4134" d="M34.97,27.6c-1.22-1.87-2.43-3.73-3.65-5.6.17-.98,1.23-1.27,1.62-2.07.68-.42,1.36-.85,2.04-1.27.62.61,1.17,1.28,1.64,2.01,1.4,2.78.88,5.09-1.66,6.92Z"/>
      <path class="uuid-50b97cef-054a-4be6-943a-8acb2f5b1b06" d="M102.67,1.52c1.38.39,2.76.77,5.74,1.61-5.38.3-9.16,1.76-12.54-1.16,2.26-.15,4.53-.3,6.79-.46Z"/>
      <path class="uuid-e6f81f27-2afa-42e8-8c27-16b4b70cc8d3" d="M198.99,3.97c-.05.42-.04.84.05,1.26-3.64,1.98-7.33,1.57-11.05.26.74-.73,1.49-1.46,2.23-2.18,2.92.22,5.84.44,8.76.66Z"/>
      <path class="uuid-38e85a44-94e2-47f2-be46-b7bd90991d23" d="M18.55,105.34c3,.63,6.46.84,5.08,5.51-1.18-.93-2.36-1.86-3.54-2.78-.69-.1-1.07-.51-1.2-1.18l-.38-.38c.02-.39.03-.78.05-1.17Z"/>
      <path class="uuid-5f02a7af-f9ea-4666-aeb9-ef405a2098b6" d="M60.28,125.29c3.27.57,7-1.08,9.73,2.06-.34.24-.68.49-1.02.73-1.67.12-3.35.31-4.88-.64-2.16.29-4.13-.03-5.7-1.69.45-.86,1.08-1.02,1.88-.46Z"/>
      <path class="uuid-a96aa016-9246-4e4a-89cd-38dd2c8d15f8" d="M4.87,43.72c.23,1.42.45,2.85.68,4.27.91,1.92-.58,2.93-1.56,4.14-.82.31-1.53.13-2.14-.48-.06-3.05.8-5.75,3.03-7.93Z"/>
      <path class="uuid-1477d553-e029-4301-9261-c8c5173acf83" d="M252.62,20.21c-1.93-1.31-3.86-2.61-5.79-3.92.04-.37.09-.73.13-1.1,1.87.75,3.75,1.5,5.62,2.25.24.27.48.53.73.8.02.74-.19,1.4-.69,1.97Z"/>
      <path class="uuid-fecee129-d9d4-4a00-b5d8-35569d9a09de" d="M79.21,130.78c2.05-2.36,4.65-1.62,8.32-1.22-1.65.87-2.44,1.28-3.23,1.69-1.7-.16-3.39-.31-5.09-.47Z"/>
      <path class="uuid-8b36853f-feb6-4967-8c11-ea1e2aa0277d" d="M189.83,134.49c.01-.56.02-1.12.03-1.67,3.41.04,6.83.09,10.24.13-3.27,1.55-6.73,1.77-10.27,1.55Z"/>
      <path class="uuid-808e86e9-5f64-4e20-b1f7-0f6f3a1649cb" d="M145.63,136.29c3.04-2.37,6.08-2.4,9.12.01-3.04,0-6.08,0-9.12-.01Z"/>
      <path class="uuid-1700cc32-ab28-4438-aced-b9aecba5a699" d="M123.48.14c.02.52.04,1.03.06,1.55-1.18,1.19-2.41,1.19-3.69.18-1.23-.55-2.46-1.1-3.69-1.66,2.44-.02,4.88-.05,7.31-.07Z"/>
      <path class="uuid-1cd1793b-f405-4856-a1ad-7acd8b61efa3" d="M145.53,1.69c.02-.51.03-1.02.04-1.53,2.44.01,4.88.03,7.32.04-1.43,1.92-3.56,1.54-5.53,1.69-.69.73-1.3.62-1.83-.19Z"/>
      <path class="uuid-8fa06002-152e-49c4-888c-3922f83bec93" d="M217.49,129.17c.01.55,0,1.1-.01,1.64-1.64.17-3.28.34-4.91.51-.81-.74-1.62-1.48-2.43-2.22,2.46-1.24,4.91-1.37,7.35.07Z"/>
      <path class="uuid-637a311c-271d-4cd5-9048-772acef7a6e2" d="M86.31,3.45c.74.35,1.47.7,2.5,1.19-2.44,1.34-4.28,1.1-5.88-.84,1.12-.12,2.25-.23,3.37-.35Z"/>
      <path class="uuid-193aa266-7a41-4157-b989-c582495d0def" d="M210.08,5.63c-1.38,2.04-3.3,1.93-6.2,1.1,1.4-.67,2.2-1.04,3-1.42,1.07.11,2.14.22,3.2.32Z"/>
      <path class="uuid-c8a55bfe-4216-4cb3-a55c-018d9de73a43" d="M75.42,127.18c.28.42.56.84.78,1.18-.39.43-.76.82-1.11,1.21-1.7-.22-3.39-.43-5.09-.65-.63-.37-.83-.73-.61-1.09.21-.35.43-.53.64-.53,0,0-.02.04-.02.04.64-.07,1.28-.14,1.92-.22,1.18-.88,2.34-.88,3.49.05Z"/>
      <path class="uuid-332bcf02-b3e1-476f-aae6-250bcfba8903" d="M241.83,14.84c-1.39-.13-2.77-.25-5.71-.52,2.26-.92,3.03-1.23,3.8-1.54,1.31.56,2.62,1.12,3.93,1.68-.53.87-1.2,1-2.02.39Z"/>
      <path class="uuid-eddb91d7-dd2a-47ec-b5bc-d4f4a3ecbef6" d="M1.85,51.65c.59-.06,1.17-.07,1.76-.01,1.06,1.17,1.03,2.38.12,3.62-.01.66-.02,1.31-.03,1.97.5.62.47,1.22-.09,1.78l-.18-.08c-.55.99-.99.89-1.33-.14-.2-1.32-.4-2.64-.59-3.96.11-1.06.23-2.12.34-3.18Z"/>
      <path class="uuid-27998b93-c939-4746-9f23-c7657fc92ccc" d="M16.67,30.73c-.74.82-1.49,1.64-2.23,2.46-.27.26-.55.52-.82.79-.26-.27-.53-.54-.79-.82,1.24-1.15,2.47-2.29,3.71-3.44,0,0,.19.8.19.8l-.06.21Z"/>
      <path class="uuid-3ebaed99-69c0-4f55-84c5-438217df2815" d="M12.85,34.79c-.72.72-1.44,1.43-2.16,2.15l-.74.17s-.77-.23-.77-.23c1.22-1.24,2.43-2.48,3.65-3.72,0,0,.24.21.24.21l.44.79-.66.63Z"/>
      <path class="uuid-51384ad1-198a-4f67-b937-66a40d5d2722" d="M282.54,40.7c-.78-.69-1.56-1.39-2.34-2.08-.55-.47-.72-.91-.51-1.34.21-.42.41-.63.6-.63,1.8.73,2.81,2.11,3.26,3.96-.34.03-.67.07-1.01.1Z"/>
      <path class="uuid-284689d8-0efe-4f80-a7c5-41d13afb9e8c" d="M289.67,52.93c-.21.7-.43,1.41-.64,2.11-.32,1.08-.77,1.2-1.39.21-.01-1.88-.33-3.84,1.27-5.34.26,1.01.51,2.02.77,3.02Z"/>
      <path class="uuid-23e82116-9406-4861-bad0-1e646a859133" d="M241.83,14.84c.67-.13,1.34-.26,2.02-.39,1.04.25,2.08.5,3.11.75-.09.36-.13.73-.13,1.1-1.88.24-3.83.71-5-1.46Z"/>
      <path class="uuid-d8bd922c-8683-4569-9fb8-892d1391f6f6" d="M234.07,11.11c-1.19.64-2.39,1.27-3.58,1.91-.15-.49-.29-.98-.44-1.47.82-.22,1.65-.43,2.47-.65.56-.27,1.08-.2,1.55.21Z"/>
      <path class="uuid-00c604dd-a789-4b94-8501-bfa414d95a27" d="M60.45,9.04c.79.28,1.58.56,2.55.9-1.8,1.71-2.96.83-4.04-.58.43-.42.93-.53,1.49-.32Z"/>
      <path class="uuid-8db6af53-10a2-4050-ab86-96ced89dd5b0" d="M219.36,7.43c.04.6.04,1.2,0,1.8-1.86,1.18-3.71,1.29-5.53-.08.73-.7,1.46-1.41,2.19-2.11,1.12.13,2.23.26,3.35.39Z"/>
      <path class="uuid-405bee53-764a-4c28-b810-9d168bd2a537" d="M67.87,7.15c.78.31,1.56.63,2.51,1.01-1.88,1.61-3.04.73-4.08-.76.47-.39,1-.47,1.57-.24Z"/>
      <path class="uuid-b68eb9a5-b9e4-42be-bd6d-26f6f1d645dd" d="M5.72,83.06c-.65-.04-1.29-.07-1.94-.11-.19-1-.37-2.01-.56-3.01.65-.72,1.3-1.43,1.95-2.14.18,1.76.37,3.51.55,5.27Z"/>
      <path class="uuid-d07cb611-6bc0-42a9-b482-da1403837608" d="M289.1,82.99c-.59-.66-1.18-1.31-1.78-1.97.15-1.15.3-2.3.44-3.45.36,0,.72,0,1.08,0l.46.24s.42-.3.42-.3c-.21,1.82-.42,3.65-.63,5.47Z"/>
      <path class="uuid-f86726a2-4c08-4129-ad69-a4f70ed7d075" d="M70.02,127.31c0,.54,0,1.08-.03,1.62-1.97-.49-3.93-.99-5.89-1.48,1.97-.05,3.95-.09,5.92-.14Z"/>
      <path class="uuid-c2a74010-9885-4f68-8fb2-b17f57a8bc5a" d="M235.94,125.49c-.01.53-.02,1.06-.01,1.59-1.07.16-2.13.33-3.2.49-.77-.7-1.54-1.41-2.31-2.11,1.85-1.27,3.69-1.3,5.53.03Z"/>
      <path class="uuid-a57c8a95-3e97-4b34-942b-4d0b5a5b9e54" d="M60.28,125.29c-.63.15-1.25.31-1.88.46-1.05-.18-2.1-.36-3.15-.53,1.7-1.68,3.39-2.62,5.03.07Z"/>
      <path class="uuid-8da9554b-19ee-4c0f-ba35-4cc7d9115746" d="M247.24,123.73c-1.31-.6-2.61-1.2-3.92-1.81,1.8-1.56,3.64-1.38,5.51-.16,0,.54.01,1.08.03,1.62,0,0-.76.43-.76.43l-.87-.09Z"/>
      <path class="uuid-6d1a6374-896a-4efb-bae3-18af0aef4f63" d="M276.4,105.56c.81-.8,1.62-1.6,2.44-2.4l.43-.05s.65.11.65.11c-1.13,1.26-2.26,2.52-3.39,3.78-.28-.22-.55-.44-.83-.65.24-.26.48-.52.71-.78Z"/>
      <path class="uuid-69cec689-a858-4b27-b7c3-2532c058a6ee" d="M54.97,10.84c.31.41.62.81.93,1.23-1.27.96-1.88.08-2.46-.86.43-.45.94-.57,1.52-.36Z"/>
      <path class="uuid-32d54eae-8b9c-437a-9cd4-3cf245eaa49f" d="M49.36,12.72c.35.38.7.76,1.06,1.15-1.25,1.04-1.87.17-2.47-.79.39-.43.86-.56,1.41-.37Z"/>
      <path class="uuid-9cac31c9-4b56-473c-a670-cdac144e60e8" d="M34.96,20.21c.04-.51.04-1.03.02-1.54.41-.45.91-.6,1.51-.47.69.63,1.39,1.26,2.08,1.89-1.15,1.35-2.36,1.22-3.6.13Z"/>
      <path class="uuid-c0e074ec-0681-4cdd-8b9b-5a12f21caba6" d="M269.65,27.23h-2.69c.2-.56.39-1.06.57-1.57.71.52,1.42,1.04,2.12,1.57Z"/>
      <path class="uuid-e53824ba-5524-49c8-b721-f4b29afc3d90" d="M272.79,29.59c-.45.14-.9.27-1.35.41-.2-.51-.39-.99-.58-1.47l.09-.3,1.84,1.35Z"/>
      <path class="uuid-44861b76-0c3f-4b78-bd98-799d0c0dd3f6" d="M280.29,36.64c-.03.66-.06,1.32-.09,1.97-.61-.63-1.22-1.26-1.83-1.9-.04-.38-.08-.75-.12-1.13.23-.3.34-.64.34-1.01.57.69,1.14,1.38,1.71,2.06Z"/>
      <path class="uuid-e2fc3619-9087-4a57-b0d3-ba2e8080d5a9" d="M285.44,94.1l-.7-.06-.7.02c-1.25-1.21-1.22-2.43-.05-3.67.65.73,1.3,1.46,1.94,2.18.18.62.01,1.13-.49,1.53Z"/>
      <path class="uuid-e8a44447-d66d-4aa7-ac0b-1e910566522f" d="M16.53,101.44c-.13.79-.26,1.58-.39,2.37-.61-.58-1.23-1.16-1.84-1.74-.46-.81-.37-1.55.25-2.23,1.53-.53,2.4-.26,1.98,1.61Z"/>
      <path class="uuid-13d50bd8-4152-4cd7-98a8-c9ee1bd03784" d="M49.72,123.42c0-.53.02-1.06.02-1.59.81.14,1.62.27,2.53.42-.4.62-.7,1.08-1,1.54,0,0-.84.06-.84.06l-.72-.43Z"/>
      <path class="uuid-a0ca25e2-00fe-4b3f-92fa-86461924deaf" d="M252.7,121.88c-.67-.64-1.34-1.28-2.01-1.92,1.29-1.12,2.52-1.16,3.67.21-.07.42-.07.84.01,1.26,0,0-.76.51-.76.51l-.92-.06Z"/>
      <path class="uuid-d6e1d3fd-8348-40ed-8c05-65c455586be9" d="M44.21,121.52c.55-.46,1.11-.92,1.62-1.35,1.44.87.27,1.25-.06,1.76,0,0-.85.05-.85.05,0,0-.71-.46-.71-.46Z"/>
      <path class="uuid-e9e6b5a5-8ca2-4aea-8942-104c361223c5" d="M273.08,108.84l1.91-1.89c.39-.08.78-.17,1.18-.25,0,0,.36.29.36.29-.61.61-1.22,1.23-1.83,1.84-.54.67-1.08.71-1.62,0Z"/>
      <path class="uuid-84f35435-8151-4fdd-a677-79b98ff08990" d="M273.08,108.84c.54,0,1.08,0,1.62,0-.67.61-1.33,1.22-2,1.83-.51.75-.96.71-1.34-.11.57-.57,1.15-1.15,1.72-1.72Z"/>
      <path class="uuid-c3b44b7c-d50b-495a-ad4d-30b707e5d073" d="M271.36,110.56c.45.04.89.08,1.34.11-.67.6-1.34,1.19-2,1.79-.21-.4-.41-.8-.62-1.22.45-.24.87-.46,1.29-.68Z"/>
      <path class="uuid-71f067b2-6649-48b5-a1f8-81a92806dfe9" d="M35.04,117.65c.69-.37,1.37-.74,2.58-1.4-.53,1.05-.76,1.5-.98,1.94-.65.16-1.18-.03-1.6-.54Z"/>
      <path class="uuid-6cba3f5a-ee51-4595-bb42-980e4d03edd4" d="M18.89,106.89c.61.19,1.01.58,1.2,1.18-.4-.4-.8-.79-1.2-1.18Z"/>
      <path class="uuid-6cba3f5a-ee51-4595-bb42-980e4d03edd4" d="M18.55,105.34c-.01.39-.03.78-.05,1.17-.49-.47-.99-.94-1.48-1.42l.76-.35c.26.19.52.39.77.6Z"/>
      <path class="uuid-ea4b8434-a3c2-4386-bb24-09b85914d00f" d="M17.79,104.74s-.76.35-.76.35c-.36-.51-.72-1.02-1.08-1.54.61.4,1.22.79,1.84,1.19Z"/>
      <path class="uuid-774b7cbf-b9ef-44b0-bf4e-9271fb56036a" d="M14.63,99.56c-.11.83-.22,1.67-.33,2.5-.59-.68-1.19-1.37-1.78-2.05.1-.33.19-.65.28-.98.34-.03.68-.06,1.02-.09.27.21.54.42.81.62Z"/>
      <path class="uuid-5e5c42b4-f0a1-43f2-91a5-39bf250c86c0" d="M11.07,97.72c.58-.01,1.16,0,1.74.03,0,0,.59.59.6.59,0,0-.19.82-.19.82-.25.27-.48.56-.69.86-.48-.76-.97-1.53-1.45-2.29Z"/>
      <path class="uuid-5e5c42b4-f0a1-43f2-91a5-39bf250c86c0" d="M9.74,95.94c.43.57.86,1.15,1.28,1.72-.43-.57-.86-1.15-1.28-1.72Z"/>
      <path class="uuid-5e5c42b4-f0a1-43f2-91a5-39bf250c86c0" d="M7.66,92.2c.44.75.89,1.51,1.33,2.26-.44-.75-.89-1.51-1.33-2.26Z"/>
      <path class="uuid-1165033c-6121-44d7-a2ff-17857f4b3097" d="M283.97,44.21c.14-.78.28-1.57.42-2.35.49.72.97,1.44,1.45,2.17,0,0-.68.4-.68.4-.4-.07-.8-.14-1.2-.21Z"/>
      <path class="uuid-f42d615e-d433-44a4-a8ff-67f1d4079686" d="M5.56,42.44c.23.38.46.76.71,1.16-.49.17-.94.33-1.4.5.23-.55.46-1.11.69-1.66Z"/>
      <path class="uuid-1379c47b-583b-4cf1-acd2-e319b9744074" d="M282.54,40.7c.34.02.68-.01,1.01-.1.28.55.55,1.09.83,1.64-.61-.51-1.23-1.03-1.84-1.54Z"/>
      <path class="uuid-b555bc58-89c1-45d9-aedb-216b32678cd4" d="M270.95,28.24s-.09.32-.09.31c-.5-.48-.99-.94-1.49-1.41.53.37,1.06.73,1.58,1.1Z"/>
      <path class="uuid-b1fc0d6d-7750-4273-8ea6-75b0b51dba70" d="M23.99,24.49c.12.39.16.78.14,1.19,0,0-.42.49-.42.49l-.55.47-.71-.14s-.46-.73-.46-.73c.66-.43,1.33-.85,1.99-1.28Z"/>
      <path class="uuid-0aa54c43-acf0-4e09-9c8a-9935e159202d" d="M261.75,22.21c-.38.24-.77.48-1.17.72-.14-.5-.27-.97-.41-1.43.65-.04,1.18.2,1.58.71Z"/>
      <path class="uuid-09c5ab8f-e4c2-43b5-a9b4-66afc1cce6b4" d="M29.35,21.94c-.48.67-.97,1.34-1.45,2.02-.58-.25-.81-.56-.68-.92.13-.39.28-.58.45-.58.56-.17,1.12-.35,1.68-.52Z"/>
      <path class="uuid-b1fc0d6d-7750-4273-8ea6-75b0b51dba70" d="M27.67,22.45c.08.5.16,1,.23,1.5-.8-.04-1.6-.08-2.39-.13.72-.46,1.45-.91,2.17-1.37Z"/>
      <path class="uuid-1e76e360-75f5-48cd-9019-6ea121d793d6" d="M260.5,21.46c-.83.18-1.66.36-2.48.54-.09-.35-.19-.71-.28-1.06,0,0,.51-.75.52-.75.75.42,1.5.85,2.25,1.27Z"/>
      <path class="uuid-fd34567e-52f3-4fec-b9c9-3c8dd8a7e43b" d="M32.94,19.94c-.54.69-1.08,1.38-1.62,2.07,0,0,0,.08,0,.08-.48-.36-.63-.72-.46-1.07.16-.35.33-.52.49-.52.43-.46.96-.65,1.59-.57Z"/>
      <path class="uuid-b1fc0d6d-7750-4273-8ea6-75b0b51dba70" d="M31.35,20.5c.01.53,0,1.06-.03,1.59-.72-.09-1.44-.18-2.17-.27.73-.44,1.46-.88,2.2-1.32Z"/>
      <path class="uuid-525654bb-1309-4ec0-a43a-544955ddd647" d="M252.84,18.88c-.1-.47-.19-.95-.25-1.43.63.29,1.25.59,1.88.88-.24.21-.48.43-.72.63l-.91-.09Z"/>
      <path class="uuid-37dff8f9-ed81-40f0-9200-7e3f6c4be9d9" d="M45.9,14.22c-.2.45-.41.89-.62,1.37-.39-.29-.76-.56-1.14-.84.59-.18,1.17-.36,1.76-.54Z"/>
      <path class="uuid-ac444a8c-aa92-49c0-b646-b194d04132bb" d="M226.72,11.05c-.54-.68-1.09-1.37-1.63-2.05.58-.19,1.11-.09,1.59.29.06.59.07,1.18.05,1.77Z"/>
      <path class="uuid-fff34cb4-5f2b-446c-827e-0f2cf6892e55" d="M95.84,16.5c4.02-6.04,10.66-8.25,16.94-8.86,13.68-1.33,27.37.04,40.95,2.66,3.53.68,2.59,2.56,2.91,4.43.57.8.46,1.49-.31,2.08-2,.99-4.13.47-6.2.76,2.08-.03,4.21.37,6.2-.74.65-.68,1.36-.8,2.15-.26v.02c.6.6,1.19,1.22,1.77,1.84-6.55,7.1-15,5.01-22.57,5.32-5.47-4.72-6.43-15.61-16.89-11.1-1.29,4.84,3.91,6.67,3.28,11.25-6.91,2.75-14.33,1.88-22.29,1.52-1.94-2.9-3.95-5.91-5.95-8.92Z"/>
      <path class="uuid-0fda21d7-699c-4be0-bc36-aee4415d461e" d="M51.53,84.85c-3.39,1.84-4.48-.7-5-3.03-1.74-7.78-6.14-11.2-14.31-12.59-15.38-2.61-18.74-11.71-12.01-28.75,4.52,2.89,12.12-6.45,14.8,3.74-.84.77-1.61,1.63-.72.99-.85.69-.14-.23.68-1.03,3.57,2.18,5.01,5.83,6.9,9.73-5.56,3.2-12.94.97-18.23,6.99,7.31,7.23,15.55,1.91,23.78,2.48,3.3,5.21,6.84,10.81,10.42,16.45-2,2.07-5.51,1.89-6.33,5.02Z"/>
      <path class="uuid-fff34cb4-5f2b-446c-827e-0f2cf6892e55" d="M255.11,66.93c-7.7,1.83-14.02,3.84-21.3,2.72-4-5.56-9.41-10.59-10.56-18.56,6.5-2.75,13.22.21,18.96-3.02,5.86,5.52,9.11,11.81,12.9,18.87Z"/>
      <path class="uuid-fff34cb4-5f2b-446c-827e-0f2cf6892e55" d="M211.99,51.49c4.19,5.53,8.41,10.57,10.83,17.33-6.77,2.8-13.2,3.61-20.35,2.75-4.07-5.53-9.3-10.6-10.65-18.66,6.92-2.38,13.54-.68,20.17-1.42Z"/>
      <path class="uuid-fff34cb4-5f2b-446c-827e-0f2cf6892e55" d="M88.77,59.53h24.14c3.17,4.94,6.6,10.27,10.41,16.21-7.24,3.47-14.73.42-21.53,2.79-5.22-5.17-8.33-11.22-13.02-19Z"/>
      <path class="uuid-90a4a979-7a1d-4564-aaae-4330349b7adf" d="M133.06,33.07c3.08,4.58,5.77,8.58,9.39,13.97-9.34,1.06-17.47,1.98-25.66,2.91-3.39-5.26-6.3-9.77-9.65-14.98,8.93-3.1,17.12-1.25,25.92-1.9Z"/>
      <path class="uuid-90a4a979-7a1d-4564-aaae-4330349b7adf" d="M151.87,46.6c-3.12-4.12-6.64-7.88-8.25-14.24,7.37-.88,14.36-1.71,21.94-2.61,4.54,3.71,7.14,8.91,9.5,15.82-8.3.37-15.7.7-23.19,1.03Z"/>
      <path class="uuid-90a4a979-7a1d-4564-aaae-4330349b7adf" d="M151.18,62.64c2.75,3.49,5.88,6.77,6.98,12.04-8.03,1.57-15.45,1.05-23.01.62-4.3-5.52-10.43-9.35-13.04-16.9,4.72-2.17,9.58-.85,14.21-1.27,3.84-1.64,7.58-.61,11.13-.62,1.83,5.95-3.12,5.9-5.14,8.29,3.44,1.38,5.46-3.58,8.87-2.16Z"/>
      <path class="uuid-3f34568d-ba14-4d58-915a-acd18dae1315" d="M191.88,72.43c-8.28,2.25-15.78,1.21-23.29,1.02-4.1-5.21-8.02-10.2-9.77-17.17,7.19-1.58,13.8-3.76,21.06-2.28,6.13,4.47,8.59,11.26,12.01,18.42Z"/>
      <path class="uuid-89a17951-403f-4ee2-8f59-ab932eebf506" d="M238.92,40.3c-8.11-.53-14.91,3.31-23.1,1.38-2.31-3.66-4.86-7.72-7.74-12.3,7.32-5.95,15.15-2.35,22.65-3.81,2.74,4.92,5.21,9.37,8.19,14.73Z"/>
      <path class="uuid-90a4a979-7a1d-4564-aaae-4330349b7adf" d="M90.13,75.68c-6.17,7.36-14.83,3.14-22.2,5.82-3.59-6.24-6.73-11.69-11.13-19.33,9.89,2.56,19.1-8.24,26.2,4.14,1.14,2.84-1.86,4.09-2.46,6.7,2.24.81,3.87-2.51,6.07-1.14v.03c.8,1.61,2.13,2.72,3.51,3.78Z"/>
      <path class="uuid-0fda21d7-699c-4be0-bc36-aee4415d461e" d="M265.51,42.44c13.91,4.92,14.66,16.66,1.76,27.68-3.54-5.28-7.16-10.51-10.58-15.87-.92-1.45-1.28-3.26-1.91-4.95,3.84-2.51,10.42.09,10.73-6.86Z"/>
      <path class="uuid-0fda21d7-699c-4be0-bc36-aee4415d461e" d="M206.37,92.29c-8.37,4.2-17.13.3-25.54,2.13-1.56-3.07-2.74-5.39-3.92-7.71-.43-1.34-.86-2.69-1.56-4.88h22.55c1.38,1.93,3.1,4.33,4.83,6.74,1.14.94.68,2.74,1.95,3.61.56.02,1.12.06,1.68.12Z"/>
      <path class="uuid-8a5dc957-2772-4a4c-9703-9fa89d8e11f5" d="M93.95,51.56h-10.47c-2.69-4.24-5.25-8.28-8.69-13.7,9.2-1.87,16.95-7.06,24.84.75-.77,4.81-2.1,9.38-5.69,12.95Z"/>
      <path class="uuid-89a17951-403f-4ee2-8f59-ab932eebf506" d="M165.86,12.88c5.49-5.79,23.41-5.77,25.84.03-.18,1.78-.28,3.58-.57,5.34-.08.5-.69.91-1.31,1.66-2.72.17-5.7.27-8.66.57-2.95.29-5.88.78-9.25,1.23-2.04-2.98-4.04-5.91-6.05-8.84Z"/>
      <path class="uuid-3f34568d-ba14-4d58-915a-acd18dae1315" d="M199.04,29.51c2.26,4.21,6.22,7.48,7.27,13.25-7.12,2.65-14.22,1.28-21.63,1.08-2.52-4.24-4.96-8.34-7.25-12.18,1.24-2.73,3.28-2,4.98-2.23,2.83-1.53,5.75-.83,8.46-.49,1.67,1.05.33,3.05,1.71,4.06,2.74-.04,2.95-4.86,6.46-3.49Z"/>
      <path class="uuid-0fda21d7-699c-4be0-bc36-aee4415d461e" d="M234.21,86.61c-7.3,5.03-15.54,6.03-24.11,5.62.06-.61.12-1.21.16-1.82,1.11-1.88,1.28-3.73-.13-5.55-.45-1.35-.9-2.69-1.64-4.9h21.03c2.38.98,3.1,4.16,4.68,6.66Z"/>
      <path class="uuid-90a4a979-7a1d-4564-aaae-4330349b7adf" d="M66.31,23.93c3.23-8.19,9.64-10.13,17.63-8.97,2.94.52,2.25,4.17,4.53,5.28,1.77,1.7,3.37,3.48,2.24,7.39-8.01-1.79-16.9,3.96-24.41-3.7Z"/>
      <path class="uuid-25ebf4b2-a7a1-4445-ab03-f351610741e4" d="M66.24,38.74c.08.6.14,1.2.18,1.81-2.08,3.23-7.02,1.14-9.06,4.75,5.03,3.78,6.59-4.34,10.8-2.93,2.22,2.76,5.06,5.18,5.16,10.26-7.04.73-14.03,1.45-21.51,2.22-2.93-4.95-5.81-9.81-8.6-14.53,2.16-2.34,4.4-1.41,6.41-1.66,5.55-1.27,11.09-1.44,16.62.09Z"/>
      <path class="uuid-8a5dc957-2772-4a4c-9703-9fa89d8e11f5" d="M132.7,88.51c-.33,1.6.69,4.42-1.96,4.24-7.36-.51-15.56,6.21-22.04-2.36-1.35-2.85-.14-3.66,2.68-3.93,7.26-.69,14.8-4.93,21.31,2.05Z"/>
      <path class="uuid-8a5dc957-2772-4a4c-9703-9fa89d8e11f5" d="M169.66,92.15c-8.71.49-17.13-3.15-25.9-1.77-.79-1.29-1.58-2.58-2.68-4.37,7.39-3.59,15.04-3.1,22.75-2.8,2.75,2.53,5.24,5.1,5.83,8.94Z"/>
      <path class="uuid-bb62c5b8-b6ea-4e54-b741-d30952ef576c" d="M99.57,92.14c-4.45,7.29-10.91,3.12-16.58,2.7-2.56-.19-5.03-1.67-7.54-2.57-.19-.23-.6-.58-.55-.66,3.13-5.33,21.42-4.92,24.67.53Z"/>
      <path class="uuid-0d8dc733-1399-43d2-9521-294183dd0cc0" d="M34.96,20.21c1.2-.04,2.4-.08,3.6-.13,5.45,4.28,12.51,3.32,18.54,5.7.32.77.64,1.54.96,2.31-7.73,1.14-15.49,4.37-23.09-.49.07-2.46,1.71-4.93,0-7.39Z"/>
      <path class="uuid-0d8dc733-1399-43d2-9521-294183dd0cc0" d="M241.37,23.84c6.79,4.95,13.58,9.9,20.37,14.85-3.6.46-7.2.93-11.87,1.53-4.26-4.22-8.98-8.77-8.5-16.38Z"/>
      <path class="uuid-e72a6443-1eee-4ec0-9286-29386dc9bf68" d="M151.18,62.64c-1.63,1.77-3.26,3.54-4.8,5.22-3.87.23-7.47,1.35-11.28-1.12,1.63-5.88,8.73-3.55,11.57-8.14-3.2-2.51-6.99-.91-10.35-1.47,3.37-3.24,7.37-1.08,10.62-1.7,2.87,2.03,3.89,4.43,4.23,7.21Z"/>
      <path class="uuid-0f25dcd8-6764-43f7-a965-bd73334e42bc" d="M68.17,42.37c-3.64,7.51-8.76,9.32-16.04,3.97,2.49-7.71,9-5.3,14.29-5.79.58.61,1.16,1.21,1.74,1.82Z"/>
      <path class="uuid-70c0b738-ef64-4e28-80b1-2c6b928ff2b2" d="M93.95,51.56c.75-4.82.74-9.98,5.68-12.95,3.08,1.58,3.94,4.74,5.37,7.5-.72.24-.95.71-.63,1.39.1.22.42.3.81.3-1.62,7.61-7.61,2.13-11.23,3.75Z"/>
      <path class="uuid-0f25dcd8-6764-43f7-a965-bd73334e42bc" d="M199.04,29.51c-1.35,2.23-2.71,4.46-3.86,6.37-3.17,1.39-5.62,1.19-8.22-1.2,1.08-1.66,2.06-3.18,3.39-5.24-3.17,0-5.55,0-7.94,0,5.56-2.65,11.1-3.02,16.63.07Z"/>
      <path class="uuid-314d84e6-2096-442e-9f17-0812320d00e1" d="M250.62,77.41h8.01c-6.64,4.65-10.6,8.71-17.12,5.59-.47-1.32-.94-2.64-1.43-4.01,3.54-2.58,7.18-1.11,10.54-1.58Z"/>
      <path class="uuid-602034a6-2c24-41e0-a216-34c86bf8c68c" d="M86.62,71.87c-2.82,2.88-4.87,7.57-10.5,4.44-.56-5.42,4.81-6.6,6.89-10,2.27,1.16,3.55,2.96,3.61,5.56Z"/>
      <path class="uuid-2b85fdcb-ea11-4bb4-8563-09a82f083767" d="M199.11,14.68c5.76-2.26,10.03,1.45,14.66,3.69-4.31-.55-9,1.81-12.91-1.74-.62-.61-1.05-1.4-1.76-1.93v-.03Z"/>
      <path class="uuid-0f25dcd8-6764-43f7-a965-bd73334e42bc" d="M66.24,38.74c-5.54-.03-11.08-.06-16.62-.09,5.55-2.64,11.09-3.03,16.62.09Z"/>
      <path class="uuid-8a5dc957-2772-4a4c-9703-9fa89d8e11f5" d="M105.17,47.81c-1.17,1.8-2.64,2.13-4.54,1.26.64-2.67,2.53-2.77,4.36-2.96.06.57.12,1.13.18,1.7Z"/>
      <path class="uuid-602034a6-2c24-41e0-a216-34c86bf8c68c" d="M90.13,75.68c-2.32-.19-3.51-1.44-3.51-3.78,1.17,1.26,2.34,2.52,3.51,3.78Z"/>
      <path class="uuid-525654bb-1309-4ec0-a43a-544955ddd647" d="M210.14,84.85c2.31,1.8,2.32,3.65.13,5.55-.04-1.85-.08-3.7-.13-5.55Z"/>
      <path class="uuid-525654bb-1309-4ec0-a43a-544955ddd647" d="M204.69,92.17c-.65-1.2-1.3-2.4-1.95-3.61.65,1.2,1.3,2.4,1.95,3.61Z"/>
      <path class="uuid-70c0b738-ef64-4e28-80b1-2c6b928ff2b2" d="M160.27,18.43c-.59-.61-1.19-1.23-1.78-1.84.59.61,1.19,1.23,1.78,1.84Z"/>
      <path class="uuid-0be5a8ef-30c2-43d1-9681-8b26032b4134" d="M199.1,14.71c.59.64,1.17,1.29,1.76,1.93-.59-.64-1.17-1.29-1.76-1.93Z"/>
      <path class="uuid-70c0b738-ef64-4e28-80b1-2c6b928ff2b2" d="M156.65,16.57v-1.85c.61,0,1.23,0,1.84,0,0,.62,0,1.23,0,1.85-.61,0-1.23,0-1.84,0h0Z"/>
      <path class="uuid-2aff741f-d9d5-4c0f-bb69-3e5dea1b0522" d="M254.38,103.39c-2.39,2.98-7.87.71-9.23,5.45-.63,0-1.26,0-1.88-.01-3.25-3.14-7.47-.37-11-1.8,0-1.23-.01-2.47-.02-3.7,3.67-1.35,7.34-2.7,10.13-3.72,5.04.33,7.65,4.68,12,3.79Z"/>
      <path class="uuid-09986bde-8c4c-407a-a526-fed4f82e7561" d="M88.42,112.5c-2.61-2.99-6.13-1.37-9.24-1.83,8.34-3.72,16.28-2.39,24,1.86,0,.61,0,1.22.01,1.83-5.4,3.15-10.19,1.5-14.77-1.86Z"/>
      <path class="uuid-a6229349-b9a1-48e7-ac1f-03bec42ace88" d="M5.41,75.7c-2.5-2.01-1.43-4.87-1.75-7.39-1.47-2.47-1.4-4.95,0-7.43,2.08,4.76,4.1,9.53,1.76,14.82Z"/>
      <path class="uuid-f0d889d2-3a8e-4213-9969-be9e352d41e3" d="M287.67,73.92c.24-3.1-.97-6.35,1.4-10.4v10.56c-.53.55-1,.5-1.4-.16Z"/>
      <path class="uuid-a6229349-b9a1-48e7-ac1f-03bec42ace88" d="M3.73,55.25c-.04-1.21-.08-2.41-.12-3.62.65-1.21,1.3-2.43,1.94-3.64,4.7,3.75-.89,4.92-1.82,7.26Z"/>
      <path class="uuid-7120668e-618f-448e-a2c3-70d98d408dc0" d="M3.65,60.88c0,2.48,0,4.95,0,7.43-3.01-2.76-1.6-6.25-1.56-9.52.44.12.88.17,1.33.14.07.65.14,1.3.22,1.95Z"/>
      <path class="uuid-f0d889d2-3a8e-4213-9969-be9e352d41e3" d="M287.64,55.24c.48.03.95-.04,1.4-.2,0,.75,0,1.5,0,4.87-.95-3.18-1.17-3.93-1.39-4.67Z"/>
      <path class="uuid-67cd2f14-fa2b-4b26-820f-6a892d658ce4" d="M287.67,73.92c.48-.06.95-.01,1.4.16-.08,1.17-.15,2.33-.22,3.5,0,0-.54-.03-.54-.03,0,0-.54.03-.54.03-.03-1.22-.06-2.43-.09-3.65Z"/>
      <path class="uuid-5e5c42b4-f0a1-43f2-91a5-39bf250c86c0" d="M10.9,88.55c-.58.61-1.16,1.22-1.74,1.83-.43-.39-.59-.79-.46-1.19.13-.41.27-.61.41-.61,0,0,.12-.29.12-.29.55.15,1.11.24,1.68.27Z"/>
      <path class="uuid-a6229349-b9a1-48e7-ac1f-03bec42ace88" d="M3.61,59c-.03-.6,0-1.19.09-1.78.2.43.45.85.58,1.31.02.09-.43.31-.67.48Z"/>
      <path class="uuid-f7d8956d-ec1f-47e0-a4d5-0fe2c80e03e9" d="M283.97,44.21c.41.03.81.1,1.2.21-.65,1.34-.89.38-1.2-.21Z"/>
      <path class="uuid-97bd9b2e-6376-4c37-aec1-ecf1506902bf" d="M9.95,37.11s.75-.17.74-.17c-.17.41-.18,1.5-.74.17Z"/>
      <path class="uuid-1519221a-3c1f-4aac-aa37-0a8375736abf" d="M278.24,35.59c.06.38.1.75.12,1.13-.27-.31-.53-.62-.79-.93.22-.07.45-.13.67-.2Z"/>
      <path class="uuid-64531948-ae20-41c9-b9c2-5c25c88bd440" d="M12.85,34.79c.02-.48.09-.95.21-1.42.45-.11.91-.18,1.38-.18-.53.53-1.06,1.07-1.59,1.6Z"/>
      <path class="uuid-b391ca95-67d0-448c-837f-4889c60d0b23" d="M16.67,30.73s.06-.22.06-.22c.18-.03.36-.06.54-.09-.2.1-.4.21-.6.31Z"/>
      <path class="uuid-0380b370-a539-4172-a9bc-ca2e4c82947b" d="M23.88,27.65c-.68,1.07-1.28.93-1.82-.11.64-.57,1.25-.56,1.82.11Z"/>
      <path class="uuid-6e56405c-a148-4c53-84b1-20adb2afdfcf" d="M23.88,27.65c-.61,0-1.22-.04-1.82-.11.09-.36.23-.71.4-1.04.39-.21.81-.32,1.26-.33.12.49.17.98.16,1.48Z"/>
      <path class="uuid-38bd584e-9fd6-484d-b4df-ed06954dc914" d="M257.73,20.94c.18.33.28.68.28,1.06-.28-.26-.56-.53-.85-.79.19-.09.37-.18.56-.27Z"/>
      <path class="uuid-37086b38-8efc-47ee-b6c3-98eda9f7127d" d="M252.84,18.88c.31-.06.61-.03.91.08-.38.42-.75.84-1.13,1.25-.05-.47.02-.91.22-1.34Z"/>
      <path class="uuid-e1a9252b-627d-420b-a41c-606032f424c1" d="M88.42,112.5c4.92.62,9.85,1.24,14.77,1.86,1.57.91,3.26,1.75,2.7,4.54-7.92,3.19-15.45-1.36-23.45-1.2.72-3.96,3.17-4.81,5.99-5.2Z"/>
      <path class="uuid-bebaf55d-45c8-4f26-acec-18062dab2eb8" d="M208.47,112.89c6.64-3.35,10.54-6.85,16.56-3.31-4.29,5.68-8.89,5.29-16.56,3.31Z"/>
      <path class="uuid-0817dc21-0568-48dd-b0ba-7d832d760d1c" d="M189.81,132.76c-7.97,0-15.94-.01-23.91-.02,3.46-7.18,9.9-2.09,14.74-3.6,2.18,3.44,6.96.26,9.17,3.62Z"/>
      <path class="uuid-48d32704-8b8a-40a0-b268-a9c8f0b3e85d" d="M232.27,107.02c2.13-.99,4.27-1.98,6.15-2.86,2.83.64,4.81,1.69,4.85,4.66-3.99,1.36-8.34,4.94-11-1.8Z"/>
      <path class="uuid-777f8be6-cd77-4e6a-91e1-8256955d34b2" d="M127.07,132.9c-6.74-.03-13.47-.05-20.21-.08,9.83-3.01,19.67-2.99,29.5,0-3.09,1.43-6.19,1.34-9.3.08Z"/>
      <path class="uuid-8271a026-dec3-4500-b7c2-0b21261b72c2" d="M115.8,122.92c3.52-3.9,5.89-3.21,8.84-1.72-2.13,3.65-4.82,2.02-8.84,1.72Z"/>
      <path class="uuid-389db32b-3561-48bd-9095-baaf2580655d" d="M104.98,130.97c-4.89-.03-9.78-.05-14.67-.08,4.91-2.67,9.8-2.77,14.67.08Z"/>
      <path class="uuid-9b3b520e-9ffe-45c5-b432-b25f7e565e53" d="M58.3,113.69c3.38-3.68,5-3.03,6.7-.72-1.7,2.49-3.5.72-6.7.72Z"/>
      <path class="uuid-719b4793-035b-434b-9b10-a86791ecb884" d="M127.07,132.9c3.1-.03,6.2-.05,9.3-.08-2.79,2.95-6.25,1.53-9.5,1.44.16-.44.22-.89.2-1.36Z"/>
      <path class="uuid-e6473f53-620f-4ab3-a318-1c46ee1d6aed" d="M75.42,127.18c-1.16-.02-2.33-.03-3.49-.05,1.19-1.71,2.35-1.72,3.49.05Z"/>
      <path class="uuid-1c47e25e-1a5f-4c41-8818-39285b5db87e" d="M145.53,1.69c.61.09,1.22.15,1.83.19-9.17,2.9-18.34,2.89-27.51-.01,1.23-.06,2.46-.12,3.69-.18,7.33,0,14.66,0,21.99,0Z"/>
      <path class="uuid-53cecdd3-389b-4577-9044-1d808898900b" d="M188,5.49c3.68-.09,7.37-.17,11.05-.26-3.61,3.28-7.3,2.98-11.05.26Z"/>
      <path class="uuid-8f497315-8003-4aee-bd89-8842486bfa3e" d="M213.81,9.14c1.84.03,3.69.05,5.53.08-1.88,2.32-3.72,2.3-5.53-.08Z"/>
      <path class="uuid-d278b6a2-0f38-48df-a6d8-c30c4df79b47" d="M217.49,129.17c-2.45-.02-4.9-.04-7.35-.07,6-2.08,11.81-6.24,18.42-1.71-3.83-.26-7.64-.46-11.07,1.78Z"/>
      <path class="uuid-f8ddbdb0-2831-4ce5-bbf2-8c2c9414d3de" d="M259.35,110.22c-.78,2.15-1.86,2.25-3.13,1.88-.75-2.85.54-2.98,3.13-1.88Z"/>
      <path class="uuid-e2e61cba-a718-41f3-a753-a69336837cb3" d="M194.3,129.45h8.85c-2.11,2.17-3.92,1.54-8.85,0Z"/>
      <path class="uuid-7f2a28e5-d10d-48e8-b30a-cdb3c134ee00" d="M235.94,125.49c-1.84,0-3.68-.02-5.53-.03,1.85-2.35,3.7-2.38,5.53.03Z"/>
      <path class="uuid-a46f6f09-74d2-4cb3-a4a2-df2e0e170ec1" d="M248.84,121.77c-1.84.05-3.68.1-5.51.16,1.77-2.55,3.61-2.55,5.51-.16Z"/>
      <path class="uuid-96496116-d483-4f79-bd85-2f53edb74468" d="M283.99,90.38c.02,1.22.03,2.45.05,3.67-2.05-1.2-2-2.42-.05-3.67Z"/>
      <path class="uuid-13c6073f-58b3-45c3-9b67-59693c6525f4" d="M254.36,120.17c-1.22-.07-2.45-.14-3.67-.21,1.34-1.97,2.56-1.9,3.67.21Z"/>
      <path class="uuid-2cdef19a-1ee8-492f-84ae-240a29360439" d="M265.34,116.16c-.22-.16-.44-.32-.66-.48.24.15.47.3.71.45,0,0-.05.02-.05.02Z"/>
      <path class="uuid-266df901-9632-4c21-9e67-35c1c1164c69" d="M276.16,106.71c-.38.13-.78.22-1.18.25.48-.47.95-.94,1.42-1.4-.02.4-.1.78-.24,1.15Z"/>
      <path class="uuid-4320362e-bffa-463d-9472-468a6cf63014" d="M279.26,103.1s-.44.05-.43.05c.07-.67.14-1.21.43-.05Z"/>
      <path class="uuid-774b7cbf-b9ef-44b0-bf4e-9271fb56036a" d="M16.53,101.44c-.63-.63-1.27-1.25-1.9-1.88,0,0,.08.11.08.11-.55-.5-.85-1.13-.95-1.86-.08-.73-.35-1.38-.8-1.95-.03-.58-.07-1.17-.11-1.75h0c2.16.73,4.32,1.45,6.04,2.02,1.43,3.39-.57,4.29-2.35,5.32Z"/>
      <path class="uuid-21fb1e02-7164-4eca-b472-75f169f724fe" d="M29.33,114.45c.14-.25.28-.49.42-.74-.14.25-.27.5-.41.75,0,0-.02,0-.02,0Z"/>
      <path class="uuid-5e5c42b4-f0a1-43f2-91a5-39bf250c86c0" d="M12.97,95.86c.54.68,1.07,1.36,1.61,2.04-.58.58-1.13.53-1.68-.05,0,0-.1-.09-.1-.09.05-.63.11-1.26.16-1.9Z"/>
      <path class="uuid-5e5c42b4-f0a1-43f2-91a5-39bf250c86c0" d="M12.85,94.1l-.75-.42c.25.14.5.29.74.43,0,0,0,0,0,0Z"/>
      <path class="uuid-b9fb71ef-81aa-46b7-a6b5-410e21a17904" d="M9.1,88.57c.02.6.04,1.2.05,1.81-.41,0-.82-.05-1.23-.14.39-.56.78-1.11,1.17-1.67Z"/>
      <path class="uuid-b7e3b5c2-0889-425a-b307-d0d63c5dbe03" d="M12.9,97.84c.56-.06,1.12-.05,1.68.05.07.59.12,1.18.14,1.78-.57.03-1.08-.14-1.51-.51-.12-.43-.22-.87-.3-1.31Z"/>
      <path class="uuid-70c0b738-ef64-4e28-80b1-2c6b928ff2b2" d="M156.65,16.57c-3.21,6.9-8.77,2.45-15.32,3.75,5.39-6.92,10.19-6.15,15.32-3.74h0Z"/>
      <path class="uuid-9af4bc1f-a359-493a-b7e4-389337389228" d="M34.99,44.18c.19,5.99-2.51,8.12-8.56,6.8.8-5.74,4.34-6.73,8.59-6.76,0,0-.04-.04-.04-.04Z"/>
      <path class="uuid-68ffc86b-1445-4381-a297-26e2b8983c91" d="M184.02,66.08c-5.48-.78-10.11-1.44-14.81-2.11.09-4.23,1.95-6.87,6.01-6.58,4.62.34,7.25,3.37,8.8,8.69Z"/>
    </g>
  </g>
</svg>