<?xml version="1.0" encoding="UTF-8"?>
<svg id="uuid-77b97da8-c870-44ca-91d2-5b94b5005433" data-name="Layer 2" xmlns="http://www.w3.org/2000/svg" viewBox="0 0 315.99 136.24">
  <defs>
    <style>
      .uuid-7b8a110b-cc66-4eb0-8808-b11527c6414d {
        fill: #deab2b;
      }

      .uuid-7b8a110b-cc66-4eb0-8808-b11527c6414d, .uuid-624ef54d-ff38-4fc0-a0e6-78c33de96ea7, .uuid-216c7458-a270-4ff1-9efa-41bdb4c57b28, .uuid-55bf1381-cd00-4f24-b856-4c85a40c8392, .uuid-23d2d67a-b118-4fb7-ab01-3aed3bf4b209, .uuid-424b0b76-8cbf-41d6-af03-461182faea63, .uuid-122f70b7-14a3-416e-953f-bc2539842eb0, .uuid-5b61e336-77b3-4b3f-acc4-88281cb27ef1, .uuid-492eea18-82c9-497a-882e-f199566cd8ea {
        stroke-width: 0px;
      }

      .uuid-624ef54d-ff38-4fc0-a0e6-78c33de96ea7 {
        fill: #dbac32;
      }

      .uuid-216c7458-a270-4ff1-9efa-41bdb4c57b28 {
        fill: #fee169;
      }

      .uuid-55bf1381-cd00-4f24-b856-4c85a40c8392 {
        fill: #daaf38;
      }

      .uuid-23d2d67a-b118-4fb7-ab01-3aed3bf4b209 {
        fill: #e2aa1e;
      }

      .uuid-424b0b76-8cbf-41d6-af03-461182faea63 {
        fill: #deac2b;
      }

      .uuid-122f70b7-14a3-416e-953f-bc2539842eb0 {
        fill: #fed322;
      }

      .uuid-5b61e336-77b3-4b3f-acc4-88281cb27ef1 {
        fill: #feed9f;
      }

      .uuid-492eea18-82c9-497a-882e-f199566cd8ea {
        fill: #fdf6bc;
      }
    </style>
  </defs>
  <g id="uuid-8456e0d3-8bc1-4ad4-9f25-9e0bbc23c6ce" data-name="Layer 2">
    <g id="uuid-b9df928e-a5ee-4256-b7b9-0d710d65aa20" data-name="Cheese">
      <path class="uuid-122f70b7-14a3-416e-953f-bc2539842eb0" d="M1.53,60.48c12.17-13.97,28.74-21.64,44.23-30.87C70.85,16.53,97.84,8.63,124.88.96c5.82-1.65,12.15-.86,18.26.02,31.15,4.47,61.32,12.45,90.24,24.96,25.69,11.84,51.44,23.57,73.78,41.36,2.68,2.13,4.9,4.84,7.33,7.28-1.05,2.62-3.25,2.88-5.69,3-20.83,1.01-41.18,5.09-61.41,9.83-38.26,9.01-73.46,25.37-107.05,46.18-16.96-14-33.18-27.25-51.66-37.28-14.07-7.77-28.53-14.71-43.46-20.68-7.17-2.48-14.46-4.55-21.65-6.96-5.54-1.78-11.13-3.29-16.86-4.39-2.1-.4-5.76.56-5.17-3.8Z"/>
      <path class="uuid-23d2d67a-b118-4fb7-ab01-3aed3bf4b209" d="M89.51,94.35c17.99,10.29,34.91,22.05,50.56,36.81,32.94-20.15,67-37.66,105.58-44.13.48.45.65.91.5,1.38-.14.47-.29.71-.45.71-37.18,11.24-72.66,26.32-104.48,47.12-17.21-12.61-33.6-24.62-49.99-36.62-1.55-1.44-3.9-2.61-1.72-5.26Z"/>
      <path class="uuid-492eea18-82c9-497a-882e-f199566cd8ea" d="M233.38,25.94c-24.18-7.42-48.05-15.6-72.82-21.31C122.8-4.08,91.05,12.93,57.9,24.97c-4.07,1.48-8.1,3.1-12.14,4.65C91.4,4.15,138.6-9.86,190.48,9.52c14.34,5.36,29.86,7.65,42.89,16.42Z"/>
      <path class="uuid-624ef54d-ff38-4fc0-a0e6-78c33de96ea7" d="M245.7,89.11c-.02-.69-.04-1.39-.06-2.08,18.73-6.58,38.22-8.94,57.88-10.43,3.69-.28,7.31-1.32,10.97-2.01,3.2,3.17.65,3.67-1.93,4.07-22.29,3.49-44.57,6.97-66.86,10.46Z"/>
      <path class="uuid-7b8a110b-cc66-4eb0-8808-b11527c6414d" d="M89.51,94.35c.57,1.75,1.15,3.51,1.72,5.26-14.66-7.21-29.32-14.43-43.98-21.64-.69-.43-1.41-.81-2.15-1.13l-.66.08-.53-.4c-.27-1.54-.03-2.5,1.85-1.67,15.73,3.94,29.39,12.5,43.75,19.5Z"/>
      <path class="uuid-55bf1381-cd00-4f24-b856-4c85a40c8392" d="M1.53,60.48c7.68,2.46,15.36,4.92,23.03,7.37.68.8.63,1.56-.15,2.26-6.67-1.54-13.38-2.92-19.98-4.73-1.96-.54-6.94-.36-2.9-4.9Z"/>
      <path class="uuid-424b0b76-8cbf-41d6-af03-461182faea63" d="M24.41,70.12c.05-.75.1-1.51.15-2.26,7.06,2.33,14.12,4.67,21.19,7-.61.56-1.23,1.11-1.85,1.67-6.5-2.14-13-4.27-19.49-6.41Z"/>
      <path class="uuid-424b0b76-8cbf-41d6-af03-461182faea63" d="M45.1,76.85c.72.38,1.44.75,2.16,1.13-.72-.38-1.44-.75-2.16-1.13Z"/>
      <path class="uuid-216c7458-a270-4ff1-9efa-41bdb4c57b28" d="M75.21,69.02c2.52-10.89,10.75-8.38,16.19-8.76,36.38-2.59,72.5.6,108.36,6.79,6.7,1.16,11.28,5.62,14,13.84-23.43,10.82-46.77,21.78-70.29,32.33-5.42,2.43-10.6-1.29-14.57-4.13-18.12-12.99-35.79-26.61-53.69-40.07Z"/>
      <path class="uuid-5b61e336-77b3-4b3f-acc4-88281cb27ef1" d="M183.41,83.26c-5.36,15.25-17.06,15.76-28.98,16.45-3.05-12.04,10.02-19.68,28.98-16.45Z"/>
    </g>
  </g>
</svg>