<?xml version="1.0" encoding="UTF-8"?>
<svg id="uuid-a0057d0f-bb2f-4410-a64a-ecafa2156435" data-name="Layer 2" xmlns="http://www.w3.org/2000/svg" viewBox="0 0 316.32 138.67">
  <defs>
    <style>
      .uuid-751a10c6-f063-4c89-b689-4eac02acbc4c {
        fill: #d5e033;
      }

      .uuid-751a10c6-f063-4c89-b689-4eac02acbc4c, .uuid-2725881f-f365-4d55-8e32-ca9dfabc0771, .uuid-0efd40d5-f2c8-4b89-8622-ef2922ad8538, .uuid-d5aeeec2-3ef9-4637-b21d-655ee85402c1, .uuid-5ac234d4-f7cd-473e-9612-178976683015, .uuid-64b545aa-1806-4985-9d91-2b9dff69a348, .uuid-02282483-624b-4a5e-89be-3e7bc27a49c6, .uuid-2dfa17a5-9c07-4bd3-8f34-7ea6b5de208c, .uuid-c08fd08f-2b74-4c9b-a130-fd146997e2e7, .uuid-cca5ab00-001e-40e2-94ad-149c3690f6d9, .uuid-fbd212dd-eddf-4ba9-9321-ae0ed0b29ebb, .uuid-e1934717-43a1-4055-82f0-695e05580bf8, .uuid-5528143e-c745-47f5-a7ef-c2e86f85b940, .uuid-d6cadc3e-1185-49c4-b78b-790916f5ec98, .uuid-db210094-74be-4121-833b-979f782d90e4, .uuid-3be95003-0980-482e-8ba8-a778c94862f4, .uuid-29b4948a-0c0d-4b7e-88a8-9e5405b75931, .uuid-e08d7cd8-64ab-4f8e-a408-51ea1f99ee40, .uuid-5abd8276-2811-4348-b602-298743f6a6ad, .uuid-c6787b7d-daff-4c0b-89da-6ee55926e169, .uuid-89f5e4f2-403a-46aa-b718-dd7e6336f899, .uuid-8020c480-ac7c-4597-a6aa-5ada39e70e41, .uuid-dc33e54a-0750-4ed3-9d18-5e9ed9b93753, .uuid-e849b121-47ef-4015-9bbb-21fe96a7c011, .uuid-5290f4c2-f5f1-4245-bed8-c4c280572960, .uuid-06ca23d2-aae6-465b-88be-87ca9f25af82, .uuid-59b752a1-4ff2-4c47-9002-2ae771c958cb, .uuid-1d7934ce-d2af-496b-a008-86bcc31c2f1b, .uuid-079ab3cc-4f0f-44dd-958e-13defd47dc1c, .uuid-36246031-c797-4984-b820-03e1d60f1453, .uuid-71bdfb8e-c01a-4c6c-9acc-8826fb986391, .uuid-33b4d5ca-948a-47f9-85de-bad67b6b2c9b, .uuid-2e9369d0-133f-4135-ad8a-b4f493918952, .uuid-918bc809-a55b-48f1-bb4a-8336261b6f47, .uuid-64eecb09-0076-4f7f-87d3-eb8fb5921818, .uuid-7173f007-35d0-4e29-84f2-b3af185c4715, .uuid-27f90f31-9458-4a52-a2b9-32ed9625cf8b, .uuid-cefbbf98-4db9-4ff2-93e5-bc6e82b50e35, .uuid-5861cdea-cd37-4a7b-9ac7-70be0aa477f9, .uuid-52a88a01-5f93-4fd0-b272-c736146a02de {
        stroke-width: 0px;
      }

      .uuid-2725881f-f365-4d55-8e32-ca9dfabc0771 {
        fill: #97981f;
      }

      .uuid-0efd40d5-f2c8-4b89-8622-ef2922ad8538 {
        fill: #9b9d26;
      }

      .uuid-d5aeeec2-3ef9-4637-b21d-655ee85402c1 {
        fill: #d3e232;
      }

      .uuid-5ac234d4-f7cd-473e-9612-178976683015 {
        fill: #888725;
      }

      .uuid-64b545aa-1806-4985-9d91-2b9dff69a348 {
        fill: #d6e234;
      }

      .uuid-02282483-624b-4a5e-89be-3e7bc27a49c6 {
        fill: #b2ba1e;
      }

      .uuid-2dfa17a5-9c07-4bd3-8f34-7ea6b5de208c {
        fill: #979825;
      }

      .uuid-c08fd08f-2b74-4c9b-a130-fd146997e2e7 {
        fill: #d7e133;
      }

      .uuid-cca5ab00-001e-40e2-94ad-149c3690f6d9 {
        fill: #9d9f37;
      }

      .uuid-fbd212dd-eddf-4ba9-9321-ae0ed0b29ebb {
        fill: #d2df30;
      }

      .uuid-e1934717-43a1-4055-82f0-695e05580bf8 {
        fill: #c1d320;
      }

      .uuid-5528143e-c745-47f5-a7ef-c2e86f85b940 {
        fill: #9b9d2b;
      }

      .uuid-d6cadc3e-1185-49c4-b78b-790916f5ec98 {
        fill: #d1e22e;
      }

      .uuid-db210094-74be-4121-833b-979f782d90e4 {
        fill: #d1e031;
      }

      .uuid-3be95003-0980-482e-8ba8-a778c94862f4 {
        fill: #f4f7bf;
      }

      .uuid-29b4948a-0c0d-4b7e-88a8-9e5405b75931 {
        fill: #a3a234;
      }

      .uuid-e08d7cd8-64ab-4f8e-a408-51ea1f99ee40 {
        fill: #a0a033;
      }

      .uuid-5abd8276-2811-4348-b602-298743f6a6ad {
        fill: #969a25;
      }

      .uuid-c6787b7d-daff-4c0b-89da-6ee55926e169 {
        fill: #d4e231;
      }

      .uuid-89f5e4f2-403a-46aa-b718-dd7e6336f899 {
        fill: #d4e234;
      }

      .uuid-8020c480-ac7c-4597-a6aa-5ada39e70e41 {
        fill: #d3e230;
      }

      .uuid-dc33e54a-0750-4ed3-9d18-5e9ed9b93753 {
        fill: #9a9933;
      }

      .uuid-e849b121-47ef-4015-9bbb-21fe96a7c011 {
        fill: #b5bc21;
      }

      .uuid-5290f4c2-f5f1-4245-bed8-c4c280572960 {
        fill: #b0bb15;
      }

      .uuid-06ca23d2-aae6-465b-88be-87ca9f25af82 {
        fill: #939416;
      }

      .uuid-59b752a1-4ff2-4c47-9002-2ae771c958cb {
        fill: #b1b923;
      }

      .uuid-1d7934ce-d2af-496b-a008-86bcc31c2f1b {
        fill: #d1e02e;
      }

      .uuid-079ab3cc-4f0f-44dd-958e-13defd47dc1c {
        fill: #96962a;
      }

      .uuid-36246031-c797-4984-b820-03e1d60f1453 {
        fill: #d5df31;
      }

      .uuid-71bdfb8e-c01a-4c6c-9acc-8826fb986391 {
        fill: #b1bb18;
      }

      .uuid-33b4d5ca-948a-47f9-85de-bad67b6b2c9b {
        fill: #d0e130;
      }

      .uuid-2e9369d0-133f-4135-ad8a-b4f493918952 {
        fill: #939727;
      }

      .uuid-918bc809-a55b-48f1-bb4a-8336261b6f47 {
        fill: #b2bb1b;
      }

      .uuid-64eecb09-0076-4f7f-87d3-eb8fb5921818 {
        fill: #9d9f2d;
      }

      .uuid-7173f007-35d0-4e29-84f2-b3af185c4715 {
        fill: #d4e432;
      }

      .uuid-27f90f31-9458-4a52-a2b9-32ed9625cf8b {
        fill: #b2bb16;
      }

      .uuid-cefbbf98-4db9-4ff2-93e5-bc6e82b50e35 {
        fill: #9d9f38;
      }

      .uuid-5861cdea-cd37-4a7b-9ac7-70be0aa477f9 {
        fill: #d5e132;
      }

      .uuid-52a88a01-5f93-4fd0-b272-c736146a02de {
        fill: #d0e02e;
      }
    </style>
  </defs>
  <g id="uuid-b74fea3f-9c27-44f3-b5de-cfca417c43d6" data-name="Layer 2">
    <g id="uuid-55b918ca-881c-4f3a-a32f-45c2294dd452" data-name="Lettuce">
      <path class="uuid-e1934717-43a1-4055-82f0-695e05580bf8" d="M2.36,69.46c.44-1.37.88-2.74,1.33-4.11,2.01-2.59,3.91-5.27,6.19-7.64.46-.21.95-.34,1.45-.39,6.89-7.68,15.61-11.58,25.79-12.29,3.54-.25,6.26-1.63,8.27-4.51,1.07-.97,2.34-1.54,3.7-1.95,2.79-1.93,3.28-5.63,5.96-7.65,3.61-2.68,7.99-2.46,12.13-3.13,3.55-.58,7.86-.54,10.03-3.28,6.38-8.05,14.88-9.52,24.27-9.84,3.87-.13,7.54-1.98,10.36-4.98.81-.56,1.68-1.01,2.6-1.36,8.92-1.66,16.97,4.77,25.93,2.77,4.2,1.39,2.14,6.4,4.8,8.74,3.76-1.73,3.56-6.31,6.59-8.38,4.06-2.4,8.3.04,12.43-.43,2.77-1.04,4.98-3.05,7.58-4.38,13.57,1.01,26.43,6.72,40.35,5.95,2.88-.16,5.7,3.02,8.19,5.14,4.17,3.54,8.54,4.52,13.54,1.91,5.8-3.03,10.95-1.82,14.87,3.17,3.87,4.93,8.95,6.03,14.74,6.25,4.9.19,10.16.32,11.42,6.82.05,2.67-2.63,4.19-3.28,6.97,2.89-.11,2.67-3.76,5.18-3.64,6.57,4.96,13.91,8.12,21.73,10.7,7.57,2.5,12.05,8.97,15.38,15.85,2.81,5.81.63,10.75-4.1,14.85-2.76,2.39-5.73,4.37-9.03,5.89-4.47,1.66-9.48,1.97-13.29,5.27-4.82,12.71-17.14,7.28-25.83,10.65-2.29,1.52-3.37,3.97-4.43,6.28-3.19,6.93-8.3,9.58-15.75,7.83-6.31-1.49-11.58-.16-15.03,5.82-.62.74-1.33,1.39-2.12,1.95-6.57,4.26-13.21,2.15-19.68-.1-5.57-1.94-10.72-2.73-15.34,1.92-6.88,4.2-13.63,3.76-20.36-.45-6.55-4.11-12.73-3.4-19.25.74-9.39,5.95-12.93,5.52-21.97-1.83-5.22-4.25-10.06-6.46-16.9-2.94-7.02,3.62-13.56.57-18.79-4.48-6.75-6.51-13.36-9.8-22.73-4.45-5.86,3.34-10.74-.6-14.03-5.61-3.61-5.49-7.79-8.28-14.79-6.46-4.86,1.26-9.12-1.05-11.45-5.63-1.64-3.23-3.95-5.1-7.48-5.59-2.25-.41-4.49-.03-6.72-.06-10.39-.14-13.83-5.69-12.49-19.88Z"/>
      <path class="uuid-918bc809-a55b-48f1-bb4a-8336261b6f47" d="M299.26,85.1c4.55-3.53,9.09-7.06,13.55-10.52-.61-24.94-27.73-20.3-37.15-34.76-1.12-.25-1.76-.92-1.89-2.07-.54-4.55-3.51-6.22-7.6-5.78-10,1.06-18.43-.85-21.56-10.09-26.53,1.48-49.23-9.99-73.32-13.52-.13-.53-.25-1.05-.38-1.58,6.01-7.84,12.43-3.32,18.78-.61,12.56.13,25.75-1.99,35.08,9.76,3.37,2.74,5.4.29,7.5-1.92,11.2-6.41,15.54,3.69,22.61,9.73,13.06-5.12,19.45,5.05,26.8,13.33,5.2,5.52,12.95.65,18.54,4.57,14.03,8.05,17.91,20.49,15.39,35.68-3.83,5.98-7.63,12.05-16.34,7.78Z"/>
      <path class="uuid-71bdfb8e-c01a-4c6c-9acc-8826fb986391" d="M224.46,122.58c1.56-3.12,3.11-6.25,5.05-10.12,7.08.71,13.74,1.38,21.1,2.12,2.67-4.8,5.34-9.58,8.2-14.71,9.23-3.41,21.41,1.65,28.59-8.82.32.32.64.64.96.97-.25.38-.51.75-.77,1.13-.71,3.14-1.43,6.28-2.14,9.42-.44.08-.88.17-1.32.25-.87.22-1.71.53-2.51.94-6.22,2.94-14.88-1.98-19.53,6.05-1.38,2.87-2.76,5.75-4.13,8.62-6.75,4.3-13.46,8.02-21.96,4.34-3.57-1.55-7.69,1.25-11.55-.17Z"/>
      <path class="uuid-59b752a1-4ff2-4c47-9002-2ae771c958cb" d="M112.21,10.42c-2.23,4.91-5.88,8.34-11.42,7.59-10.66-1.44-18.49,2.36-23.52,11.45-10.53,1.44-21.61.06-28.29,10.33-1.21-.81-1.31-1.74-.31-2.8,4.24-9.66,11.44-14.88,22.18-14.23,6.82.41,9.38-5.15,13.2-8.86,7.49-7.26,16.33-4.69,24.98-3.87,1.17-.75,2.23-.61,3.18.39Z"/>
      <path class="uuid-2dfa17a5-9c07-4bd3-8f34-7ea6b5de208c" d="M147.6,132.1c-12.33,11.85-21.11,2.34-30.64-6.17-15.77,11.15-26.7,1.68-36.58-9.44-10.49.23-22.29,14-29.49-3.76.82-.58,1.72-.83,2.72-.74,2.86.68,5.44,2.14,8.46,3.02,2.57.33,4.89-1.17,7.18-2.2,7.47-3.36,13.9-2.05,19.71,3.48,6.88,6.54,14.27,10.13,23.7,4.86,2.64-1.48,6.32-1.31,8.34.84,8.26,8.76,17.73,10.47,28.64,6.07.63.86.64,1.72.03,2.6l.07-.07c-.74.48-1.46.98-2.16,1.53Z"/>
      <path class="uuid-918bc809-a55b-48f1-bb4a-8336261b6f47" d="M171.28,8.36c-4.96,9.65-12.87,4.18-19.78,3.86-.37,0-.74-.02-1.11-.02-.72-.15-1.42-.38-2.1-.65-.35-.12-.68-.26-1.03-.37-1.4-.43-2.84-.77-4.22-1.28-.69-.31-1.29-.75-1.8-1.3-.83-1.52.2-2.87.42-4.29,7.89-7.11,15.02-4.63,21.86,1.7,1.85,3.16,5.63-.41,7.64,2.19l.11.16Z"/>
      <path class="uuid-02282483-624b-4a5e-89be-3e7bc27a49c6" d="M47.08,41.76c-9.82,10.01-25.58,6.35-35.75,15.55,2.49-3.27,4.98-6.54,7.48-9.82,8.85-4.73,18.08-7.64,28.28-5.74Z"/>
      <path class="uuid-0efd40d5-f2c8-4b89-8622-ef2922ad8538" d="M224.46,122.58c10.82-4.15,22.91,1.83,33.51-4.17-4.25,7.14-11.05,9.27-18.3,7.09-7.71-2.31-13.08.21-18.19,5.25-.93.27-1.87.34-2.83.2-1.83-5.4,3.51-5.82,5.8-8.37h.01Z"/>
      <path class="uuid-29b4948a-0c0d-4b7e-88a8-9e5405b75931" d="M52.97,112.73c-.7,0-1.39,0-2.09,0-1.55-2.02-3.11-4.03-4.85-6.29-11.47,4.1-18.92,1.06-20.94-11.37.43-.29.86-.58,1.29-.87,4.42-.79,3.92,4.65,6.98,5.59,7.78,2.44,20.42-2.42,19.62,12.94Z"/>
      <path class="uuid-5abd8276-2811-4348-b602-298743f6a6ad" d="M2.36,69.46c0,14.18,6.75,20.37,20.98,17.68,1.78,1.59,3.37,3.26,2.52,5.96-.78.69-1.56.73-2.34,0-7.9-2.89-19.67,1.75-22.27-11.45-.54-3.44-1.21-6.89.45-10.24.22-.65.44-1.31.66-1.96Z"/>
      <path class="uuid-079ab3cc-4f0f-44dd-958e-13defd47dc1c" d="M218.46,130.38c1.01.13,2.01.25,3.02.38-6.97,7.01-14.28,5.12-21.33.41-3.81-2.54-7.36-2.01-11.19-.71-1.08.88-1.9.69-2.48-.58,0-2.62,1.79-3.84,3.82-4.87,10.14-2.13,19.15,1.65,28.17,5.38Z"/>
      <path class="uuid-e08d7cd8-64ab-4f8e-a408-51ea1f99ee40" d="M299.26,85.1c6.74.13,11.96-2.95,16.34-7.78-2.36,16.48-17.26,9.35-26.01,13.81-.71.63-1.4.65-2.09-.03,0,0-.09-.05-.1-.05,3.95-1.98,7.91-3.96,11.86-5.95Z"/>
      <path class="uuid-64eecb09-0076-4f7f-87d3-eb8fb5921818" d="M141.67,4.31l-.07,3.9c-3.43,4.28-7.54,3.75-12.02,1.92-5.14-2.1-10.38-3.24-15.55.06-.61.04-1.21.12-1.81.22-1.06-.13-2.11-.26-3.18-.39,2.9-2,5.8-3.99,8.71-5.99.66-.33,1.33-.66,2-.98,7.56-4,14.25,7.34,21.93,1.25Z"/>
      <path class="uuid-cefbbf98-4db9-4ff2-93e5-bc6e82b50e35" d="M47.08,41.76c-9.43,1.91-18.85,3.82-28.28,5.74,7.79-9.64,20.29-5.9,29.86-10.5.1.93.21,1.86.31,2.8-.63.66-1.26,1.31-1.89,1.97Z"/>
      <path class="uuid-5528143e-c745-47f5-a7ef-c2e86f85b940" d="M262.1,109.79c3.13-12.74,15.45-3.24,21.51-8.87.38.51.83.94,1.35,1.29,0,0,.49.34.49.34-5.97,8.25-16.22,2.74-23.35,7.24Z"/>
      <path class="uuid-dc33e54a-0750-4ed3-9d18-5e9ed9b93753" d="M186.92,130.32c.68.04,1.36.09,2.04.13-6.77,6.5-13.86,11.58-23.55,5.47-.13-1.85,1.07-2.72,2.51-3.42,6.38-.29,12.32-4.51,19-2.17Z"/>
      <path class="uuid-2e9369d0-133f-4135-ad8a-b4f493918952" d="M171.17,8.2c-2.4-1.23-6.35,2.92-7.64-2.19,3.86-1.32,7.73-2.63,11.59-3.95.39-.36.85-.54,1.38-.55,1.74,0,3.49,0,5.23,0,.53.07,1.04.23,1.52.47,2.15,1.39,4.29,2.79,6.44,4.19-6.27-.18-13.11-5.64-18.52,2.04Z"/>
      <path class="uuid-cca5ab00-001e-40e2-94ad-149c3690f6d9" d="M167.27,134.32c-.62.53-1.24,1.07-1.87,1.6-4.99-2.5-9.11-7.58-15.72-5.27-.04-.78-.09-1.56-.13-2.34,6.41-6.46,14.15-3.84,17.72,6.02Z"/>
      <path class="uuid-2725881f-f365-4d55-8e32-ca9dfabc0771" d="M300.22,41.64c-6.22-1.36-14.1,4-18.54-4.57,6.28,1.1,13.48-1.51,18.54,4.57Z"/>
      <path class="uuid-06ca23d2-aae6-465b-88be-87ca9f25af82" d="M232.26,14.01c-1.44,4.16-3.51,5.13-7.83,3.61-.16-.06-.25-.6-.19-.88.06-.29.34-.54.52-.8,2.5-.64,5-1.28,7.5-1.92Z"/>
      <path class="uuid-3be95003-0980-482e-8ba8-a778c94862f4" d="M9.88,57.71c-2.06,2.55-4.13,5.09-6.19,7.64.31-3.97,2.71-6.24,6.19-7.64Z"/>
      <path class="uuid-e1934717-43a1-4055-82f0-695e05580bf8" d="M1.7,71.42c-.15,3.41-.3,6.83-.45,10.24-1.71-3.49-1.77-6.92.45-10.24Z"/>
      <path class="uuid-cca5ab00-001e-40e2-94ad-149c3690f6d9" d="M147.6,132.1c.72-.51,1.44-1.02,2.15-1.53-.72.51-1.44,1.02-2.15,1.53Z"/>
      <path class="uuid-e1934717-43a1-4055-82f0-695e05580bf8" d="M23.52,93.11c.6.02,1.19.08,1.79.16.09.4.19.8.28,1.19,0,0-.49.62-.49.62-.53-.66-1.05-1.31-1.58-1.97Z"/>
      <path class="uuid-e1934717-43a1-4055-82f0-695e05580bf8" d="M287.5,91.1c.7,0,1.4.02,2.09.03-.67.67-1.33,1.34-1.99,2.01-.03-.68-.07-1.36-.1-2.04Z"/>
      <path class="uuid-e849b121-47ef-4015-9bbb-21fe96a7c011" d="M119.74,3.06c-.67.33-1.33.65-2,.98.67-.33,1.33-.65,2-.98Z"/>
      <path class="uuid-918bc809-a55b-48f1-bb4a-8336261b6f47" d="M183.24,1.98c-.61.14-1.12-.02-1.52-.47.65-.37,1.15-.21,1.52.47Z"/>
      <path class="uuid-918bc809-a55b-48f1-bb4a-8336261b6f47" d="M176.5,1.52c-.35.44-.81.63-1.38.55.29-.7.75-.89,1.38-.55Z"/>
      <path class="uuid-27f90f31-9458-4a52-a2b9-32ed9625cf8b" d="M25.58,94.46c-.13-.39-.22-.79-.28-1.2-.66-2.04-1.31-4.08-1.96-6.12,8.83,5.17,15.15,17.17,27.93,9.12,4.11,5.83,7.44,10.56,8.68,12.32,30.16,1.38,55.57,9.58,82,19.64,10.08-9.71,21.66-11.97,34.74-2.21,2.36,1.77,8.06-.93,12.22-1.57.51.44.69.89.53,1.35-.16.46-.32.69-.48.69-.68,1.28-1.36,2.56-2.04,3.85-6.18,3.13-12.58,5.19-19.64,4-5.01-4.63-9.75-10.09-17.72-6.01-13.12,10.46-23.28,3.54-32.77-7.12-16.85,13.55-26.7-.83-37.63-9.08-6.1,2.23-11.27,4.13-16.85,6.17-3.74-.27-7.13-1.84-9.33-5.54-3.1-10.74-11.81-10.64-19.85-9.86-2.95-3.29-5.25-5.85-7.55-8.41Z"/>
      <path class="uuid-5290f4c2-f5f1-4245-bed8-c4c280572960" d="M188.96,126.48c-.02-.68-.03-1.36-.05-2.04,2.71-7.03,7.72-6.42,13.35-4.1,7.16,2.96,14.39,5.45,22.19,2.25-2,2.6-3.99,5.2-5.99,7.79-9.83-1.3-19.67-2.61-29.5-3.91Z"/>
      <path class="uuid-d5aeeec2-3ef9-4637-b21d-655ee85402c1" d="M19.68,60.74c1.94,2.21,3.99,4.54,5.6,6.38-.31,10.73-7.05,12.18-14.75,13.18-2.09-8.48-.19-14.77,9.16-19.56Z"/>
      <path class="uuid-64b545aa-1806-4985-9d91-2b9dff69a348" d="M186.39,107.19c-.71,4.16-1.35,7.9-2,11.69-3.65,2.61-7.27,2.05-10.88.49-3.06-3.41-2.63-6.4.48-9.35,3.26-3.1,6.25-6.87,12.4-2.83Z"/>
      <path class="uuid-c08fd08f-2b74-4c9b-a130-fd146997e2e7" d="M127.96,116.29c2.49-9.42,5.66-14.62,15.44-7.19-2.39,4.2-4.52,7.91-7.14,12.51-3.27-2.09-5.55-3.55-8.31-5.32Z"/>
      <path class="uuid-8020c480-ac7c-4597-a6aa-5ada39e70e41" d="M77.11,90.57c-5.88,4.72-9.74,7.83-14.64,11.76-1.28-4.82-2.45-9.21-4.04-15.19,6.23,1.14,10.74,1.97,18.68,3.43Z"/>
      <path class="uuid-e849b121-47ef-4015-9bbb-21fe96a7c011" d="M114.02,10.19c3.34-2.07,6.68-4.14,9.47-5.87,6.56,3.04,11.64,7.1,18.1,3.89,0,0,.12.13.12.13,1,.84,1.15,1.88.74,3.06-.27.27-.54.54-.81.81-9.63,5.13-18.34-2.38-27.62-2.01Z"/>
      <path class="uuid-fbd212dd-eddf-4ba9-9321-ae0ed0b29ebb" d="M69.26,33.92c-7.58,5.77-4.43,19.09-17.93,12.86,1.68-3.61,3.1-6.68,4.75-10.22,3.12-.63,6.37-1.28,13.19-2.65Z"/>
      <path class="uuid-5861cdea-cd37-4a7b-9ac7-70be0aa477f9" d="M89.62,104.46c4.38-5.44,8.32-6.36,14.2-4.34-1.18,4.1-2.33,8.08-4.04,14.04-4.2-4.01-6.96-6.65-10.16-9.71Z"/>
      <path class="uuid-751a10c6-f063-4c89-b689-4eac02acbc4c" d="M241.13,24.59c4.22,6.36,7.24,10.92,11.36,17.12-6.34-1.13-10.87-1.94-16.36-2.92,1.57-4.46,2.88-8.19,5-14.2Z"/>
      <path class="uuid-89f5e4f2-403a-46aa-b718-dd7e6336f899" d="M151.5,12.22c.71,7.36-2.5,11.5-10.91,12.94.4-4.91.73-8.93,1.05-12.96,0,0,0,0,0,0,2.29-2.02,4.94-2.63,7.9-1.98h0c.65.67,1.24,1.39,1.96,2h0Z"/>
      <path class="uuid-36246031-c797-4984-b820-03e1d60f1453" d="M178.81,11.9c3.65,2.35,5.72,3.69,7.85,5.07-1.52,5.86-3.54,9.82-11.08,6.14.92-3.18,1.83-6.37,3.22-11.2Z"/>
      <path class="uuid-33b4d5ca-948a-47f9-85de-bad67b6b2c9b" d="M221.14,26.92c-3.71,1.98-6.57,3.51-11.07,5.92-.31-5.18-.51-8.44-.72-11.89,5.05-1.09,7.97,1.07,11.78,5.97Z"/>
      <path class="uuid-db210094-74be-4121-833b-979f782d90e4" d="M273.77,37.75c.63.69,1.26,1.38,1.89,2.07,1.03,4.36,1.5,8.43-5.31,9.19-2.61-4.96-6.44-9.87,3.41-11.26Z"/>
      <path class="uuid-7173f007-35d0-4e29-84f2-b3af185c4715" d="M207.69,109.31c5.66-.34,7.65,2.9,9.64,6.17-1.59,3.77-4.62,3.63-7.3,2.46-3.66-1.6-3.64-4.76-2.35-8.62Z"/>
      <path class="uuid-d6cadc3e-1185-49c4-b78b-790916f5ec98" d="M306.83,72.98c-5.63-4.59-10.4-7.72-10.54-15.43,6.09,3.51,11.07,6.42,10.54,15.43Z"/>
      <path class="uuid-c6787b7d-daff-4c0b-89da-6ee55926e169" d="M249.4,96.8c1.01,3.56,1.73,6.07,3.31,11.61-6.12-4.11-9.66-6.48-15.74-10.57,5.58-.47,8.37-.7,12.43-1.05Z"/>
      <path class="uuid-52a88a01-5f93-4fd0-b272-c736146a02de" d="M94.48,32.19c-3.73.76-5.99,1.23-8.97,1.84-.71-3.3-1.26-5.85-1.85-8.55,5.94-1.68,7.29,2.38,10.82,6.71Z"/>
      <path class="uuid-d5aeeec2-3ef9-4637-b21d-655ee85402c1" d="M123.19,21.53c-6,.38-7.15-2.43-6.91-7.91,4.85.44,6.51,2.91,6.91,7.91Z"/>
      <path class="uuid-1d7934ce-d2af-496b-a008-86bcc31c2f1b" d="M34.73,92.1c-2.62-8.06,2.4-6.6,6.53-7.06-.03,4.39-2.47,5.79-6.53,7.06Z"/>
      <path class="uuid-5ac234d4-f7cd-473e-9612-178976683015" d="M284.97,102.22c-.45-.43-.9-.86-1.35-1.3.45.43.9.86,1.35,1.3Z"/>
      <path class="uuid-e1934717-43a1-4055-82f0-695e05580bf8" d="M149.54,10.22c-2.63.66-5.27,1.32-7.9,1.98.02-1.29.05-2.58.07-3.86,2.61.63,5.22,1.26,7.83,1.88Z"/>
      <path class="uuid-e1934717-43a1-4055-82f0-695e05580bf8" d="M151.51,12.22c-.65-.66-1.3-1.32-1.96-1.98.65.66,1.3,1.32,1.96,1.98Z"/>
    </g>
  </g>
</svg>