<?xml version="1.0" encoding="UTF-8"?>
<svg id="uuid-b87fe328-2437-4221-9530-8061ba222b6c" data-name="Layer 2" xmlns="http://www.w3.org/2000/svg" viewBox="0 0 156.45 63.12">
  <defs>
    <style>
      .uuid-d6ab2583-e713-4f89-8bbc-18d149d385ab {
        fill: #e08d2f;
      }

      .uuid-d6ab2583-e713-4f89-8bbc-18d149d385ab, .uuid-7f37a8ef-11da-43a1-abc8-f30ba5f9c9ba, .uuid-b088aeb4-bd0d-4d3a-9166-c01925de6995, .uuid-ecd7dbc8-b0df-4570-bafe-0b83d4a936f3, .uuid-0724edd7-879b-4451-bb7c-a09b2f1b1c26, .uuid-adf678ed-d9e5-4819-9106-867576613d86, .uuid-6b054e9d-3322-45ba-82c7-451ec160c551, .uuid-e6a95e18-b57a-4d30-8df0-0eb830f27955, .uuid-9dd84519-f9dd-4541-a66d-07096e9d5a47, .uuid-7d51a8b6-2b30-4990-b8fc-3eb2830af49b, .uuid-b8a1d47e-8215-49cb-84cc-00c8e43d3864, .uuid-e481a616-c5f7-441b-9b28-e0702483796d, .uuid-7512cb94-2873-49a6-99b0-a3cfa5793279, .uuid-20c7bee9-9f7c-477e-9db5-fb33d3d3cd57, .uuid-be50b4e5-f3d6-4f77-8442-96f9c3a2740b, .uuid-13453f78-a6a6-4c4a-8e49-890cbb72fef8, .uuid-af769842-add6-4fb7-b50f-77a6da842f21, .uuid-bb58d761-3fa6-4f9b-b224-92c457d761ff, .uuid-a7877499-237a-4048-9317-fb986563d2b4, .uuid-3dec2fde-ef20-43a2-a9e2-14501b4d8f98, .uuid-fbf8ee8b-2d4b-47e7-adf0-61f2924c4901, .uuid-b5b21d71-2d49-4f35-a6ff-3c5a136ab6c2, .uuid-530b3c2e-517a-4161-8a16-5ed19a4595bc, .uuid-de13f662-5bb1-4fac-a6dc-ef4198feacc7, .uuid-d98e3802-44f0-4fea-abd2-5219e1121ea7 {
        stroke-width: 0px;
      }

      .uuid-7f37a8ef-11da-43a1-abc8-f30ba5f9c9ba {
        fill: #f3a352;
      }

      .uuid-b088aeb4-bd0d-4d3a-9166-c01925de6995 {
        fill: #ad6532;
      }

      .uuid-ecd7dbc8-b0df-4570-bafe-0b83d4a936f3 {
        fill: #e59a4a;
      }

      .uuid-0724edd7-879b-4451-bb7c-a09b2f1b1c26 {
        fill: #e4a45a;
      }

      .uuid-adf678ed-d9e5-4819-9106-867576613d86 {
        fill: #e28c2d;
      }

      .uuid-6b054e9d-3322-45ba-82c7-451ec160c551 {
        fill: #df8323;
      }

      .uuid-e6a95e18-b57a-4d30-8df0-0eb830f27955 {
        fill: #efb56b;
      }

      .uuid-9dd84519-f9dd-4541-a66d-07096e9d5a47 {
        fill: #edb86c;
      }

      .uuid-7d51a8b6-2b30-4990-b8fc-3eb2830af49b {
        fill: #eaac60;
      }

      .uuid-b8a1d47e-8215-49cb-84cc-00c8e43d3864 {
        fill: #f5dac7;
      }

      .uuid-e481a616-c5f7-441b-9b28-e0702483796d {
        fill: #cd7926;
      }

      .uuid-7512cb94-2873-49a6-99b0-a3cfa5793279 {
        fill: #cc843a;
      }

      .uuid-20c7bee9-9f7c-477e-9db5-fb33d3d3cd57 {
        fill: #dd9136;
      }

      .uuid-be50b4e5-f3d6-4f77-8442-96f9c3a2740b {
        fill: #efa452;
      }

      .uuid-13453f78-a6a6-4c4a-8e49-890cbb72fef8 {
        fill: #fae7d8;
      }

      .uuid-af769842-add6-4fb7-b50f-77a6da842f21 {
        fill: #eeb56a;
      }

      .uuid-bb58d761-3fa6-4f9b-b224-92c457d761ff {
        fill: #9e5b2a;
      }

      .uuid-a7877499-237a-4048-9317-fb986563d2b4 {
        fill: #ecaa5f;
      }

      .uuid-3dec2fde-ef20-43a2-a9e2-14501b4d8f98 {
        fill: #daa665;
      }

      .uuid-fbf8ee8b-2d4b-47e7-adf0-61f2924c4901 {
        fill: #eca95f;
      }

      .uuid-b5b21d71-2d49-4f35-a6ff-3c5a136ab6c2 {
        fill: #d48b3a;
      }

      .uuid-530b3c2e-517a-4161-8a16-5ed19a4595bc {
        fill: #c08045;
      }

      .uuid-de13f662-5bb1-4fac-a6dc-ef4198feacc7 {
        fill: #d3934b;
      }

      .uuid-d98e3802-44f0-4fea-abd2-5219e1121ea7 {
        fill: #fce9ce;
      }
    </style>
  </defs>
  <g id="uuid-b64c6145-0dd6-4e66-b168-df7af188efdb" data-name="Layer 2">
    <g id="uuid-97898ccc-d6dd-4356-b2ca-828c9326b322" data-name="burger bottom bun">
      <path class="uuid-7f37a8ef-11da-43a1-abc8-f30ba5f9c9ba" d="M53.33.22h51c15.1,0,32.2.3,44.8,9.7,5.2,5.5,6.9,10,7.2,17.6-.3,9.1-3.9,14.8-10.4,20.9-17.6,14.2-42.5,14.7-64.1,14.6h-9.3c-22.5,0-47.6-1-64.9-17.2C1.43,39.02-.27,32.12.03,22.92c1-6.3,3.8-10,8.6-14.1C21.73-.08,37.93-.08,53.13.02l.2.2Z"/>
      <path class="uuid-6b054e9d-3322-45ba-82c7-451ec160c551" d="M34.83,3.72h-2v2h-2c-.3,1-.7,2-1,3h-2v2h-2c-1.4,2.8-2.8,5.7-4.1,8.6-.9,2.1-1.9,4.3-2.9,6.4v8c18,7.1,36.9,6.5,56,6.4h25.2c15.1,0,30.7-1,42.9-11,4.4-4.5,5.4-9.3,6.1-15.4,3.93,2.4,6.27,4.73,7,7,.9,8.3.7,14.9-4.2,21.8-12.3,14.7-30.6,18.3-48.8,20.2-6.9.4-13.9.4-20.8.4h-9.3c-22.5,0-47.6-1-64.9-17.2C1.83,39.12.13,32.22.43,23.02c.8-5.2,2.7-8.7,6.5-12.3,5.7-4.1,10.8-7,17.9-7.6,1,0,2.1-.2,3.2-.3,2.6,0,4.5.1,6.9.9h-.1Z"/>
      <path class="uuid-af769842-add6-4fb7-b50f-77a6da842f21" d="M154.83,28.72h1c.9,5.5-1.3,9-4.2,13.5-9.8,13.1-25.3,16.9-40.7,19.4-9.6,1.4-19.3,1.5-29,1.4h-9.3c-23.5,0-46.8-1.6-65.2-17.4-1.13-1.33-1.7-3.33-1.7-6,5.4,1.9,11,4.7,14.8,9,12.4,11.2,42.5,8.4,58.2,8h3.8c25.1-.5,48.1-2.8,67.2-20.9.6-.6,1.2-1.1,1.8-1.7,1.5-1.6,2.3-3.3,3.2-5.3h.1Z"/>
      <path class="uuid-adf678ed-d9e5-4819-9106-867576613d86" d="M34.83,3.72h-2v2h-2c-.3,1-.7,2-1,3h-2v2h-2c-3.6,7.2-6.6,14-8,22l-6-3c-.9-.4-1.8-.9-2.7-1.3-3-2.2-4-4.3-5.3-7.7v-2l-2-1C6.03,10.72,11.13,6.62,18.83,3.72c5.4-1,10.7-1.6,16,0Z"/>
      <path class="uuid-9dd84519-f9dd-4541-a66d-07096e9d5a47" d="M139.83,13.72c1.67.33,3.33.67,5,1-.3,1.7-.7,3.3-1,5h-2c-.3.7-.5,1.5-.8,2.2-1.1,2.6-2.3,4.6-4.2,6.8h-2l-1,3c-2.4.8-4.73,1.47-7,2v2h-10l-1-6c3-2,6.1-3.5,9.4-4.9,6.1-2.7,10.6-5.6,14.6-11.1Z"/>
      <path class="uuid-bb58d761-3fa6-4f9b-b224-92c457d761ff" d="M149.83,41.72c0,2-.47,3.53-1.4,4.6-18.3,16-43.3,16.9-66.4,16.7h-9.3c-14.6,0-30-.3-43.9-5.4v-1c5.3-.2,9,.2,14,2,6.7,1.1,13.2,1.2,20,1.2h21.7c21.3,0,47.3-.1,63.5-16.2.6-.7,1.2-1.4,1.9-2.1l-.1.2Z"/>
      <path class="uuid-530b3c2e-517a-4161-8a16-5ed19a4595bc" d="M5.83,39.72c5.5,1.9,11,4.7,14.9,9.1,2.7,2.4,4.9,2.9,8.4,3.7,1.07.27,2.17.5,3.3.7.8.2,1.6.3,2.5.5l-2,1v2c-10,.8-15.5-2.7-23.1-9.1-1.53-1.33-2.83-2.63-3.9-3.9v-4h-.1Z"/>
      <path class="uuid-a7877499-237a-4048-9317-fb986563d2b4" d="M94.83,56.72v1c-2.6.3-5.3.7-8,1,5.9.3,11.9.7,18,1v1h-54v-1l12-1v-1c10.7-.8,21.3-1.1,32-1Z"/>
      <path class="uuid-d6ab2583-e713-4f89-8bbc-18d149d385ab" d="M20.83,48.72c6.6-.4,12.2,1.2,18.4,3,1,.3,2,.6,3.1.9,2.5.7,5,1.4,7.5,2.1v1c-6.8.5-13-.2-19.6-1.8-.7-.2-1.4-.3-2.1-.5-3.4-.87-5.83-2.43-7.3-4.7Z"/>
      <path class="uuid-fbf8ee8b-2d4b-47e7-adf0-61f2924c4901" d="M140.83,5.72l8,4v3c-1.3-.3-2.6-.7-4-1,.3,2.3.7,4.6,1,7l-2,1v-5c-1.6.07-3.27.4-5,1-1.3,1.7-2.7,3.3-4,5-2.13,1.2-4.13,2.2-6,3,.67-2,1.77-3.47,3.3-4.4s3.13-2.33,4.8-4.2c2.1-2.6,2.8-2.8,5.9-3.4l1-2c-1-.7-2-1.3-3-2v-2h0Z"/>
      <path class="uuid-e6a95e18-b57a-4d30-8df0-0eb830f27955" d="M5.83,39.72c3.3,1.1,6.3,2.6,9.2,4.4.7.4,1.4.8,2.1,1.2,2,1.7,2.3,2.8,2.7,5.4-4.1-.5-6.2-1.6-9.2-4.4-.7-.6-1.4-1.2-2.1-1.8-1.13-1.2-2.03-2.8-2.7-4.8h0Z"/>
      <path class="uuid-20c7bee9-9f7c-477e-9db5-fb33d3d3cd57" d="M151.83,30.72h2c-3.3,7.9-11.9,12.8-19,17,.7-1.3,1.3-2.6,2-4h2v-2c1.3-.3,2.6-.7,4-1v-2c3-2.67,5.33-4,7-4l2-4Z"/>
      <path class="uuid-7d51a8b6-2b30-4990-b8fc-3eb2830af49b" d="M117.83,55.72h3l2,2c-3.3.3-6.6.7-10,1v-1c-5.3-.3-10.6-.7-16-1v-1c2.6-.2,5.1-.4,7.7-.6.7,0,1.4-.1,2.2-.2,3.9-.3,7.3-.2,11.1.7v.1Z"/>
      <path class="uuid-d98e3802-44f0-4fea-abd2-5219e1121ea7" d="M121.83.72c6.7-.2,12.6.3,19,2v2l3,1c-1.33.67-2.6.83-3.8.5-.7-.3-1.4-.5-2.2-.8-5.3-1.9-10.6-2.8-16.1-3.7V.72h.1Z"/>
      <path class="uuid-3dec2fde-ef20-43a2-a9e2-14501b4d8f98" d="M154.83,28.72h1c.5,5.6-1,8.4-4,13-1-1.3-2-2.6-3-4,.6-.73,1.23-1.47,1.9-2.2,1.7-2.2,3-4.2,4.1-6.8Z"/>
      <path class="uuid-7512cb94-2873-49a6-99b0-a3cfa5793279" d="M1.83,32.72c3.4,1.1,4.1,2.1,6,5-1,1.3-2,2.6-3,4-2.3-3.4-3-4.7-3-9h0Z"/>
      <path class="uuid-e481a616-c5f7-441b-9b28-e0702483796d" d="M1.83,18.72h2c.3,1.6.7,3.3,1,5-.67.33-1.33.67-2,1-.4,2.3-.7,4.7-1,7H.83v-9.2c0-1.8.37-3.03,1.1-3.7l-.1-.1Z"/>
      <path class="uuid-ecd7dbc8-b0df-4570-bafe-0b83d4a936f3" d="M144.83,11.72c1.87-.13,3.87-.13,6,0,1.27,1.33,2.27,2.67,3,4-.3.7-.7,1.3-1,2l-3-3c-1,.7-2,1.3-3,2-.7-1.7-1.3-3.3-2-5Z"/>
      <path class="uuid-b8a1d47e-8215-49cb-84cc-00c8e43d3864" d="M125.83,59.72c-3.3,2-5.9,2.2-9.8,2.1h-3c-.73,0-1.5,0-2.3,0v-1c1.7-.4,3.5-.7,5.2-1.1,1-.2,2-.4,3-.6,2.7-.3,4.3-.2,6.8.7l.1-.1Z"/>
      <path class="uuid-b5b21d71-2d49-4f35-a6ff-3c5a136ab6c2" d="M153.83,17.72c2.7,4,2.2,6.2,2,11-.67.33-1.33.67-2,1-.9-4.3-.9-7.7,0-12Z"/>
      <path class="uuid-13453f78-a6a6-4c4a-8e49-890cbb72fef8" d="M6.83,44.72c2.6,2,5.3,4,8,6-1.3.3-2.6.7-4,1-1.47-1.2-2.8-2.53-4-4v-3h0Z"/>
      <path class="uuid-be50b4e5-f3d6-4f77-8442-96f9c3a2740b" d="M145.83,14.72l2,2c0,1.27-.33,2.6-1,4-1.73,1.47-3.4,2.8-5,4,1.3-3.3,2.7-6.7,4-10Z"/>
      <path class="uuid-de13f662-5bb1-4fac-a6dc-ef4198feacc7" d="M7.83,9.72h2v3c-1,.3-2,.7-3,1-1.13,1.67-2.13,3.33-3,5-.7-.3-1.3-.7-2-1,1-1.3,1.9-2.7,2.9-4,.5-.7,1.1-1.5,1.6-2.2.5-.6,1-1.2,1.5-1.8Z"/>
      <path class="uuid-b088aeb4-bd0d-4d3a-9166-c01925de6995" d="M28.83,56.72c4.07-.13,6.73-.13,8,0l2,2c-3.8,1.5-6.3.4-10-1v-1Z"/>
      <path class="uuid-0724edd7-879b-4451-bb7c-a09b2f1b1c26" d="M32.03,53.02c.93.2,1.87.43,2.8.7l-2,1v2c-2.3-.3-4.6-.7-7-1,2-2.8,2.6-3,6.2-2.7Z"/>
    </g>
  </g>
</svg>